SplineFontDB: 3.0
FontName: Geneva-Regular-Italic
FullName: Geneva Regular Italic
FamilyName: Geneva
Weight: Regular
Copyright: Copyright 2011 Google Inc. All Rights Reserved.
Version: 2.001101; 2014
DefaultBaseFilename: Geneva-400-Italic
ItalicAngle: -12
UnderlinePosition: -200
UnderlineWidth: 100
Ascent: 1536
Descent: 512
InvalidEm: 0
sfntRevision: 0x00020000
LayerCount: 2
Layer: 0 1 "Back" 1
Layer: 1 1 "Fore" 0
XUID: [1021 805 -1179658985 11262681]
FSType: 0
OS2Version: 3
OS2_WeightWidthSlopeOnly: 0
OS2_UseTypoMetrics: 1
CreationTime: 1221222574
ModificationTime: 1431280060
PfmFamily: 33
TTFWeight: 400
TTFWidth: 5
LineGap: 0
VLineGap: 0
Panose: 2 0 0 0 0 0 0 0 0 0
OS2TypoAscent: 1536
OS2TypoAOffset: 0
OS2TypoDescent: -512
OS2TypoDOffset: 0
OS2TypoLinegap: 102
OS2WinAscent: 1946
OS2WinAOffset: 0
OS2WinDescent: 512
OS2WinDOffset: 0
HheadAscent: 1900
HheadAOffset: 0
HheadDescent: -500
HheadDOffset: 0
OS2SubXSize: 1434
OS2SubYSize: 1331
OS2SubXOff: 0
OS2SubYOff: 287
OS2SupXSize: 1434
OS2SupYSize: 1331
OS2SupXOff: 0
OS2SupYOff: 977
OS2StrikeYSize: 102
OS2StrikeYPos: 512
OS2CapHeight: 1456
OS2XHeight: 1082
OS2Vendor: 'GOOG'
OS2CodePages: 2000019f.00000000
OS2UnicodeRanges: e0000aff.5000217f.00000021.00000000
Lookup: 1 0 0 "'c2sc' Capitals to Small Capitals lookup 0" { "'c2sc' Capitals to Small Capitals lookup 0 subtable"  } ['c2sc' ('DFLT' <'dflt' > 'cyrl' <'dflt' > 'grek' <'dflt' > 'latn' <'AZE ' 'CRT ' 'MOL ' 'NAV ' 'ROM ' 'TUR ' 'dflt' > ) ]
Lookup: 1 0 0 "'smcp' Lowercase to Small Capitals lookup 1" { "'smcp' Lowercase to Small Capitals lookup 1 subtable"  } ['smcp' ('DFLT' <'dflt' > 'cyrl' <'dflt' > 'grek' <'dflt' > 'latn' <'AZE ' 'CRT ' 'MOL ' 'NAV ' 'ROM ' 'TUR ' 'dflt' > ) ]

StartChar: .notdef
Encoding: 65536 -1 0
Width: 918
Flags: W
LayerCount: 2
Back
Fore
SplineSet
808 0 m 1,0,-1
 100 0 l 1,1,-1
 100 1456 l 1,2,-1
 808 1456 l 1,3,-1
 808 0 l 1,0,-1
754 84 m 1,4,-1
 754 1371 l 1,5,-1
 480 728 l 1,6,-1
 754 84 l 1,4,-1
154 1359 m 1,7,-1
 154 96 l 1,8,-1
 422 728 l 1,9,-1
 154 1359 l 1,7,-1
194 54 m 1,10,-1
 709 54 l 1,11,-1
 451 660 l 1,12,-1
 194 54 l 1,10,-1
451 796 m 1,13,-1
 709 1402 l 1,14,-1
 194 1402 l 1,15,-1
 451 796 l 1,13,-1
EndSplineSet
EndChar

StartChar: exclam
Encoding: 33 33 5
Width: 521
Flags: W
LayerCount: 2
Back
Fore
SplineSet
305 411 m 1,0,-1
 141 411 l 1,1,-1
 310 1456 l 1,2,-1
 500 1456 l 1,3,-1
 305 411 l 1,0,-1
67 90 m 0,4,5
 68 137 68 137 97 167.5 c 128,-1,6
 126 198 126 198 174 200 c 0,7,8
 220 202 220 202 250 172 c 128,-1,9
 280 142 280 142 280 96 c 0,10,11
 280 49 280 49 250 19.5 c 128,-1,12
 220 -10 220 -10 173 -12 c 128,-1,13
 126 -14 126 -14 96.5 15 c 128,-1,14
 67 44 67 44 67 90 c 0,4,5
EndSplineSet
EndChar

StartChar: quotedbl
Encoding: 34 34 6
Width: 645
Flags: W
LayerCount: 2
Back
Fore
SplineSet
393 1390 m 1,0,-1
 310 1042 l 1,1,-1
 200 1041 l 1,2,-1
 280 1544 l 1,3,-1
 416 1535 l 1,4,-1
 393 1390 l 1,0,-1
655 1390 m 1,5,-1
 572 1042 l 1,6,-1
 462 1042 l 1,7,-1
 542 1544 l 1,8,-1
 678 1535 l 1,9,-1
 655 1390 l 1,5,-1
EndSplineSet
EndChar

StartChar: numbersign
Encoding: 35 35 7
Width: 1233
Flags: W
LayerCount: 2
Back
Fore
SplineSet
707 410 m 1,0,-1
 457 410 l 1,1,-1
 307 0 l 1,2,-1
 163 0 l 1,3,-1
 312 410 l 1,4,-1
 82 410 l 1,5,-1
 106 547 l 1,6,-1
 361 547 l 1,7,-1
 489 901 l 1,8,-1
 241 901 l 1,9,-1
 265 1040 l 1,10,-1
 539 1040 l 1,11,-1
 691 1456 l 1,12,-1
 836 1456 l 1,13,-1
 683 1040 l 1,14,-1
 934 1040 l 1,15,-1
 1086 1456 l 1,16,-1
 1232 1456 l 1,17,-1
 1079 1040 l 1,18,-1
 1275 1040 l 1,19,-1
 1251 901 l 1,20,-1
 1029 901 l 1,21,-1
 901 547 l 1,22,-1
 1117 547 l 1,23,-1
 1093 410 l 1,24,-1
 852 410 l 1,25,-1
 703 0 l 1,26,-1
 557 0 l 1,27,-1
 707 410 l 1,0,-1
505 547 m 1,28,-1
 755 547 l 1,29,-1
 884 901 l 1,30,-1
 634 901 l 1,31,-1
 505 547 l 1,28,-1
EndSplineSet
EndChar

StartChar: dollar
Encoding: 36 36 8
Width: 1126
Flags: W
LayerCount: 2
Back
Fore
SplineSet
801 382 m 0,0,1
 811 468 811 468 758 532 c 128,-1,2
 705 596 705 596 578.5 644.5 c 128,-1,3
 452 693 452 693 377 754 c 0,4,5
 229 875 229 875 243 1071 c 0,6,7
 254 1235 254 1235 361.5 1342.5 c 128,-1,8
 469 1450 469 1450 646 1473 c 1,9,-1
 685 1692 l 1,10,-1
 831 1692 l 1,11,-1
 791 1470 l 1,12,13
 939 1441 939 1441 1011.5 1320.5 c 128,-1,14
 1084 1200 1084 1200 1069 1008 c 1,15,-1
 890 1008 l 1,16,17
 898 1155 898 1155 846.5 1233.5 c 128,-1,18
 795 1312 795 1312 695 1315 c 0,19,20
 582 1317 582 1317 508.5 1251.5 c 128,-1,21
 435 1186 435 1186 423 1075 c 0,22,23
 414 989 414 989 460.5 927 c 128,-1,24
 507 865 507 865 644 810.5 c 128,-1,25
 781 756 781 756 852 696.5 c 128,-1,26
 923 637 923 637 955.5 560 c 128,-1,27
 988 483 988 483 981 384 c 0,28,29
 968 213 968 213 853.5 108 c 128,-1,30
 739 3 739 3 550 -17 c 1,31,-1
 516 -208 l 1,32,-1
 371 -208 l 1,33,-1
 406 -15 l 1,34,35
 242 9 242 9 158 126 c 128,-1,36
 74 243 74 243 85 429 c 1,37,-1
 266 429 l 1,38,39
 255 298 255 298 313.5 220 c 128,-1,40
 372 142 372 142 490 140 c 0,41,42
 617 138 617 138 702.5 204.5 c 128,-1,43
 788 271 788 271 801 382 c 0,0,1
EndSplineSet
Substitution2: "'c2sc' Capitals to Small Capitals lookup 0 subtable" dollar.c2sc
Position2: "'cpsp' Capital Spacing lookup 0 subtable" dx=36 dy=0 dh=72 dv=0
EndChar

StartChar: percent
Encoding: 37 37 9
Width: 1465
Flags: W
LayerCount: 2
Back
Fore
SplineSet
525 1478 m 0,0,1
 646 1474 646 1474 717.5 1389.5 c 128,-1,2
 789 1305 789 1305 781 1176 c 2,3,-1
 775 1099 l 1,4,5
 760 965 760 965 669.5 880 c 128,-1,6
 579 795 579 795 454 799 c 0,7,8
 333 801 333 801 260 887 c 128,-1,9
 187 973 187 973 195 1099 c 2,10,-1
 201 1163 l 2,11,12
 214 1307 214 1307 305.5 1393.5 c 128,-1,13
 397 1480 397 1480 525 1478 c 0,0,1
330 1097 m 1,14,15
 325 1016 325 1016 359.5 968.5 c 128,-1,16
 394 921 394 921 458 919 c 0,17,18
 526 917 526 917 576.5 967.5 c 128,-1,19
 627 1018 627 1018 638 1099 c 2,20,-1
 647 1177 l 2,21,22
 654 1253 654 1253 621 1304 c 128,-1,23
 588 1355 588 1355 521 1357 c 0,24,25
 452 1359 452 1359 401 1308 c 128,-1,26
 350 1257 350 1257 339 1176 c 2,27,-1
 330 1097 l 1,14,15
1070 658 m 0,28,29
 1194 654 1194 654 1265 568.5 c 128,-1,30
 1336 483 1336 483 1328 357 c 2,31,-1
 1322 290 l 2,32,33
 1309 149 1309 149 1218.5 61.5 c 128,-1,34
 1128 -26 1128 -26 1000 -22 c 0,35,36
 880 -20 880 -20 806.5 65 c 128,-1,37
 733 150 733 150 741 279 c 2,38,-1
 747 347 l 2,39,40
 760 486 760 486 849 573 c 128,-1,41
 938 660 938 660 1070 658 c 0,28,29
876 277 m 2,42,43
 871 197 871 197 904.5 148.5 c 128,-1,44
 938 100 938 100 1004 98 c 0,45,46
 1074 96 1074 96 1123.5 147 c 128,-1,47
 1173 198 1173 198 1184 279 c 2,48,-1
 1193 358 l 2,49,50
 1200 433 1200 433 1167 484 c 128,-1,51
 1134 535 1134 535 1067 537 c 0,52,53
 996 539 996 539 946 488 c 128,-1,54
 896 437 896 437 885 357 c 2,55,-1
 876 277 l 2,42,43
360 112 m 1,56,-1
 261 184 l 1,57,-1
 1142 1312 l 1,58,-1
 1241 1241 l 1,59,-1
 360 112 l 1,56,-1
EndSplineSet
EndChar

StartChar: ampersand
Encoding: 38 38 10
Width: 1245
Flags: W
LayerCount: 2
Back
Fore
SplineSet
71 384 m 0,0,1
 86 570 86 570 293 716 c 1,2,-1
 407 792 l 1,3,-1
 364 869 l 2,4,5
 292 1001 292 1001 300 1114 c 0,6,7
 312 1279 312 1279 420 1379.5 c 128,-1,8
 528 1480 528 1480 692 1476 c 0,9,10
 827 1474 827 1474 915 1388.5 c 128,-1,11
 1003 1303 1003 1303 995 1176 c 0,12,13
 986 1004 986 1004 782 861 c 1,14,-1
 635 763 l 1,15,-1
 884 382 l 1,16,17
 975 517 975 517 998 672 c 1,18,-1
 1159 672 l 1,19,20
 1132 417 1132 417 978 245 c 1,21,-1
 1135 0 l 1,22,-1
 933 0 l 1,23,-1
 860 113 l 1,24,25
 686 -23 686 -23 477 -19 c 0,26,27
 288 -17 288 -17 173 95.5 c 128,-1,28
 58 208 58 208 71 384 c 0,0,1
483 131 m 0,29,30
 617 128 617 128 767 244 c 1,31,-1
 496 668 l 1,32,-1
 453 638 l 2,33,34
 274 514 274 514 255 383 c 0,35,36
 240 275 240 275 303 204 c 128,-1,37
 366 133 366 133 483 131 c 0,29,30
478 1121 m 0,38,39
 470 1037 470 1037 527 936 c 2,40,-1
 554 889 l 1,41,-1
 707 992 l 1,42,43
 814 1072 814 1072 825 1177 c 0,44,45
 831 1241 831 1241 790 1283 c 128,-1,46
 749 1325 749 1325 681 1325 c 0,47,48
 598 1325 598 1325 542 1264.5 c 128,-1,49
 486 1204 486 1204 478 1121 c 0,38,39
EndSplineSet
EndChar

StartChar: quotesingle
Encoding: 39 39 11
Width: 356
Flags: W
LayerCount: 2
Back
Fore
SplineSet
374 1418 m 1,0,-1
 298 1057 l 1,1,-1
 170 1057 l 1,2,-1
 247 1536 l 1,3,-1
 393 1536 l 1,4,-1
 374 1418 l 1,0,-1
EndSplineSet
EndChar

StartChar: parenleft
Encoding: 40 40 12
Width: 689
Flags: W
LayerCount: 2
Back
Fore
SplineSet
133 587 m 1,0,1
 166 818 166 818 255.5 1037 c 128,-1,2
 345 1256 345 1256 475 1410.5 c 128,-1,3
 605 1565 605 1565 765 1644 c 1,4,-1
 792 1520 l 1,5,6
 635 1403 635 1403 522.5 1214.5 c 128,-1,7
 410 1026 410 1026 349 766.5 c 128,-1,8
 288 507 288 507 290 255 c 0,9,10
 290 48 290 48 343.5 -109.5 c 128,-1,11
 397 -267 397 -267 498 -358 c 1,12,-1
 453 -470 l 1,13,14
 286 -354 286 -354 197.5 -127 c 128,-1,15
 109 100 109 100 117 393 c 0,16,17
 119 489 119 489 131 576 c 2,18,-1
 133 587 l 1,0,1
EndSplineSet
EndChar

StartChar: parenright
Encoding: 41 41 13
Width: 701
Flags: W
LayerCount: 2
Back
Fore
SplineSet
547 585 m 1,0,1
 512 341 512 341 420 123.5 c 128,-1,2
 328 -94 328 -94 199.5 -243.5 c 128,-1,3
 71 -393 71 -393 -85 -471 c 1,4,-1
 -113 -356 l 1,5,6
 230 -98 230 -98 345 473 c 0,7,8
 391 703 391 703 389 916 c 0,9,10
 384 1345 384 1345 181 1531 c 1,11,-1
 228 1643 l 1,12,13
 340 1565 340 1565 417.5 1435.5 c 128,-1,14
 495 1306 495 1306 531.5 1134.5 c 128,-1,15
 568 963 568 963 564 779 c 0,16,17
 561 682 561 682 549 596 c 2,18,-1
 547 585 l 1,0,1
EndSplineSet
EndChar

StartChar: asterisk
Encoding: 42 42 14
Width: 866
Flags: W
LayerCount: 2
Back
Fore
SplineSet
384 987 m 1,0,-1
 107 1077 l 1,1,-1
 175 1221 l 1,2,-1
 453 1108 l 1,3,-1
 504 1456 l 1,4,-1
 654 1456 l 1,5,-1
 584 1112 l 1,6,-1
 887 1220 l 1,7,-1
 906 1061 l 1,8,-1
 591 970 l 1,9,-1
 738 695 l 1,10,-1
 610 607 l 1,11,-1
 479 897 l 1,12,-1
 257 617 l 1,13,-1
 143 715 l 1,14,-1
 384 987 l 1,0,-1
EndSplineSet
EndChar

StartChar: plus
Encoding: 43 43 15
Width: 1136
Flags: W
LayerCount: 2
Back
Fore
SplineSet
682 781 m 1,0,-1
 1076 781 l 1,1,-1
 1045 606 l 1,2,-1
 652 606 l 1,3,-1
 572 146 l 1,4,-1
 390 146 l 1,5,-1
 470 606 l 1,6,-1
 76 606 l 1,7,-1
 107 781 l 1,8,-1
 500 781 l 1,9,-1
 574 1206 l 1,10,-1
 756 1206 l 1,11,-1
 682 781 l 1,0,-1
EndSplineSet
EndChar

StartChar: comma
Encoding: 44 44 16
Width: 400
Flags: W
LayerCount: 2
Back
Fore
SplineSet
-9 -291 m 1,0,-1
 -113 -216 l 1,1,2
 3 -73 3 -73 31 68 c 2,3,-1
 57 219 l 1,4,-1
 234 219 l 1,5,-1
 213 84 l 2,6,7
 177 -144 177 -144 -9 -291 c 1,0,-1
EndSplineSet
EndChar

StartChar: hyphen
Encoding: 45 45 17
Width: 558
Flags: W
LayerCount: 2
Back
Fore
SplineSet
500 543 m 1,0,-1
 25 543 l 1,1,-1
 52 694 l 1,2,-1
 527 694 l 1,3,-1
 500 543 l 1,0,-1
EndSplineSet
EndChar

StartChar: period
Encoding: 46 46 18
Width: 533
Flags: W
LayerCount: 2
Back
Fore
SplineSet
164 210 m 0,0,1
 213 211 213 211 245 180 c 128,-1,2
 277 149 277 149 276 100 c 128,-1,3
 275 51 275 51 243 20.5 c 128,-1,4
 211 -10 211 -10 163 -12 c 128,-1,5
 115 -14 115 -14 84 15.5 c 128,-1,6
 53 45 53 45 53 94 c 128,-1,7
 53 143 53 143 84 175.5 c 128,-1,8
 115 208 115 208 164 210 c 0,0,1
EndSplineSet
EndChar

StartChar: slash
Encoding: 47 47 19
Width: 829
Flags: W
LayerCount: 2
Back
Fore
SplineSet
51 -125 m 1,0,-1
 -113 -125 l 1,1,-1
 751 1456 l 1,2,-1
 914 1456 l 1,3,-1
 51 -125 l 1,0,-1
EndSplineSet
Substitution2: "'frac' Diagonal Fractions lookup 21 subtable" fraction
EndChar

StartChar: zero
Encoding: 48 48 20
Width: 1126
Flags: W
LayerCount: 2
Back
Fore
SplineSet
472 -20 m 0,0,1
 288 -16 288 -16 196 110.5 c 128,-1,2
 104 237 104 237 112 475 c 0,3,4
 114 549 114 549 123 621 c 2,5,-1
 159 864 l 2,6,7
 207 1175 207 1175 342 1328 c 128,-1,8
 477 1481 477 1481 698 1476 c 0,9,10
 884 1472 884 1472 975.5 1348.5 c 128,-1,11
 1067 1225 1067 1225 1060 990 c 0,12,13
 1057 915 1057 915 1048 843 c 2,14,-1
 1013 608 l 2,15,16
 960 279 960 279 826 127 c 128,-1,17
 692 -25 692 -25 472 -20 c 0,0,1
873 876 m 1,18,19
 887 997 887 997 886 1064 c 0,20,21
 881 1318 881 1318 689 1325 c 0,22,23
 549 1330 549 1330 462.5 1221.5 c 128,-1,24
 376 1113 376 1113 342 881 c 2,25,-1
 299 591 l 2,26,27
 285 475 285 475 286 402 c 0,28,29
 291 137 291 137 482 130 c 0,30,31
 615 124 615 124 701.5 228 c 128,-1,32
 788 332 788 332 825 558 c 2,33,-1
 873 876 l 1,18,19
EndSplineSet
Substitution2: "Single Substitution lookup 26 subtable" zero.dnom
Substitution2: "'numr' Numerators lookup 25 subtable" zero.frac
Substitution2: "'dnom' Denominators lookup 24 subtable" zero.dnom
Substitution2: "'frac' Diagonal Fractions lookup 23 subtable" zero.frac
Substitution2: "'pnum' Proportional Numbers lookup 19 subtable" zero.pnum
Substitution2: "'onum' Oldstyle Figures lookup 17 subtable" zero.oldstyle
EndChar

StartChar: one
Encoding: 49 49 21
Width: 1126
Flags: W
LayerCount: 2
Back
Fore
SplineSet
604 0 m 1,0,-1
 422 0 l 1,1,-1
 636 1228 l 1,2,-1
 249 1092 l 1,3,-1
 280 1268 l 1,4,-1
 820 1463 l 1,5,-1
 852 1463 l 1,6,-1
 604 0 l 1,0,-1
EndSplineSet
Substitution2: "Single Substitution lookup 26 subtable" one.dnom
Substitution2: "'numr' Numerators lookup 25 subtable" uni00B9
Substitution2: "'dnom' Denominators lookup 24 subtable" one.dnom
Substitution2: "'frac' Diagonal Fractions lookup 23 subtable" uni00B9
Substitution2: "'pnum' Proportional Numbers lookup 19 subtable" one.pnum
Substitution2: "'onum' Oldstyle Figures lookup 17 subtable" one.oldstyle
EndChar

StartChar: two
Encoding: 50 50 22
Width: 1126
Flags: W
LayerCount: 2
Back
Fore
SplineSet
950 0 m 1,0,-1
 23 0 l 1,1,-1
 45 141 l 1,2,-1
 582 663 l 1,3,-1
 680 760 l 2,4,5
 849 929 849 929 867 1072 c 0,6,7
 880 1182 880 1182 824 1251.5 c 128,-1,8
 768 1321 768 1321 666 1325 c 0,9,10
 535 1329 535 1329 447 1248.5 c 128,-1,11
 359 1168 359 1168 340 1028 c 1,12,-1
 161 1027 l 1,13,14
 174 1161 174 1161 243.5 1264.5 c 128,-1,15
 313 1368 313 1368 426.5 1423.5 c 128,-1,16
 540 1479 540 1479 673 1476 c 0,17,18
 854 1472 854 1472 960.5 1366.5 c 128,-1,19
 1067 1261 1067 1261 1052 1093 c 0,20,21
 1035 901 1035 901 831 689 c 1,22,-1
 739 596 l 1,23,-1
 271 151 l 1,24,-1
 974 151 l 1,25,-1
 950 0 l 1,0,-1
EndSplineSet
Substitution2: "Single Substitution lookup 26 subtable" two.dnom
Substitution2: "'numr' Numerators lookup 25 subtable" uni00B2
Substitution2: "'dnom' Denominators lookup 24 subtable" two.dnom
Substitution2: "'frac' Diagonal Fractions lookup 23 subtable" uni00B2
Substitution2: "'pnum' Proportional Numbers lookup 19 subtable" two.pnum
Substitution2: "'onum' Oldstyle Figures lookup 17 subtable" two.oldstyle
EndChar

StartChar: three
Encoding: 51 51 23
Width: 1126
Flags: W
LayerCount: 2
Back
Fore
SplineSet
416 818 m 1,0,-1
 536 817 l 2,1,2
 668 817 668 817 758.5 886.5 c 128,-1,3
 849 956 849 956 862 1075 c 0,4,5
 875 1191 875 1191 819 1257.5 c 128,-1,6
 763 1324 763 1324 656 1326 c 0,7,8
 542 1328 542 1328 462.5 1259.5 c 128,-1,9
 383 1191 383 1191 365 1075 c 1,10,-1
 186 1074 l 1,11,12
 203 1254 203 1254 339.5 1366.5 c 128,-1,13
 476 1479 476 1479 665 1477 c 0,14,15
 848 1473 848 1473 952.5 1362.5 c 128,-1,16
 1057 1252 1057 1252 1043 1071 c 0,17,18
 1034 968 1034 968 964 883 c 128,-1,19
 894 798 894 798 770 742 c 1,20,21
 869 702 869 702 918 615.5 c 128,-1,22
 967 529 967 529 959 413 c 0,23,24
 943 216 943 216 802.5 96 c 128,-1,25
 662 -24 662 -24 461 -20 c 0,26,27
 274 -16 274 -16 163 96 c 128,-1,28
 52 208 52 208 60 385 c 1,29,-1
 241 384 l 1,30,31
 235 272 235 272 295 203.5 c 128,-1,32
 355 135 355 135 469 131 c 0,33,34
 597 127 597 127 682 204 c 128,-1,35
 767 281 767 281 779 410 c 0,36,37
 790 529 790 529 725 595.5 c 128,-1,38
 660 662 660 662 531 666 c 2,39,-1
 392 667 l 1,40,-1
 416 818 l 1,0,-1
EndSplineSet
Substitution2: "Single Substitution lookup 26 subtable" three.dnom
Substitution2: "'numr' Numerators lookup 25 subtable" uni00B3
Substitution2: "'dnom' Denominators lookup 24 subtable" three.dnom
Substitution2: "'frac' Diagonal Fractions lookup 23 subtable" uni00B3
Substitution2: "'pnum' Proportional Numbers lookup 19 subtable" three.pnum
Substitution2: "'onum' Oldstyle Figures lookup 17 subtable" three.oldstyle
EndChar

StartChar: four
Encoding: 52 52 24
Width: 1126
Flags: W
LayerCount: 2
Back
Fore
SplineSet
857 489 m 1,0,-1
 1053 489 l 1,1,-1
 1026 338 l 1,2,-1
 831 338 l 1,3,-1
 772 0 l 1,4,-1
 590 0 l 1,5,-1
 649 338 l 1,6,-1
 5 338 l 1,7,-1
 26 457 l 1,8,-1
 826 1456 l 1,9,-1
 1024 1456 l 1,10,-1
 857 489 l 1,0,-1
243 489 m 1,11,-1
 675 489 l 1,12,-1
 805 1205 l 1,13,-1
 776 1163 l 1,14,-1
 243 489 l 1,11,-1
EndSplineSet
Substitution2: "Single Substitution lookup 26 subtable" four.dnom
Substitution2: "'numr' Numerators lookup 25 subtable" four.frac
Substitution2: "'dnom' Denominators lookup 24 subtable" four.dnom
Substitution2: "'frac' Diagonal Fractions lookup 23 subtable" four.frac
Substitution2: "'pnum' Proportional Numbers lookup 19 subtable" four.pnum
Substitution2: "'onum' Oldstyle Figures lookup 17 subtable" four.oldstyle
EndChar

StartChar: five
Encoding: 53 53 25
Width: 1126
Flags: W
LayerCount: 2
Back
Fore
SplineSet
219 733 m 1,0,-1
 404 1456 l 1,1,-1
 1130 1456 l 1,2,-1
 1103 1285 l 1,3,-1
 533 1285 l 1,4,-1
 421 887 l 1,5,6
 531 952 531 952 659 950 c 0,7,8
 840 948 840 948 937 813.5 c 128,-1,9
 1034 679 1034 679 1016 471 c 0,10,11
 997 247 997 247 857 111 c 128,-1,12
 717 -25 717 -25 508 -21 c 0,13,14
 334 -19 334 -19 227 91 c 128,-1,15
 120 201 120 201 114 384 c 1,16,-1
 283 384 l 1,17,18
 290 264 290 264 351 198 c 128,-1,19
 412 132 412 132 516 130 c 0,20,21
 644 126 644 126 731.5 221 c 128,-1,22
 819 316 819 316 835 470 c 0,23,24
 849 605 849 605 788 692.5 c 128,-1,25
 727 780 727 780 609 784 c 0,26,27
 536 786 536 786 479.5 762 c 128,-1,28
 423 738 423 738 367 693 c 1,29,-1
 219 733 l 1,0,-1
EndSplineSet
Substitution2: "Single Substitution lookup 26 subtable" five.dnom
Substitution2: "'numr' Numerators lookup 25 subtable" five.frac
Substitution2: "'dnom' Denominators lookup 24 subtable" five.dnom
Substitution2: "'frac' Diagonal Fractions lookup 23 subtable" five.frac
Substitution2: "'pnum' Proportional Numbers lookup 19 subtable" five.pnum
Substitution2: "'onum' Oldstyle Figures lookup 17 subtable" five.oldstyle
EndChar

StartChar: six
Encoding: 54 54 26
Width: 1126
Flags: W
LayerCount: 2
Back
Fore
SplineSet
955 1458 m 1,0,-1
 939 1301 l 1,1,-1
 904 1301 l 1,2,3
 704 1297 704 1297 562 1177 c 128,-1,4
 420 1057 420 1057 342 823 c 1,5,6
 478 959 478 959 660 955 c 0,7,8
 775 953 775 953 857 891.5 c 128,-1,9
 939 830 939 830 977.5 721.5 c 128,-1,10
 1016 613 1016 613 1004 482 c 0,11,12
 984 261 984 261 845.5 117.5 c 128,-1,13
 707 -26 707 -26 505 -20 c 0,14,15
 343 -16 343 -16 239 99 c 128,-1,16
 135 214 135 214 120 407 c 0,17,18
 112 512 112 512 145 691 c 0,19,20
 214 1064 214 1064 417.5 1261 c 128,-1,21
 621 1458 621 1458 935 1458 c 2,22,-1
 955 1458 l 1,0,-1
621 802 m 0,23,24
 524 804 524 804 439 746 c 128,-1,25
 354 688 354 688 308 598 c 1,26,-1
 301 531 l 1,27,-1
 299 450 l 2,28,29
 299 368 299 368 324 291 c 128,-1,30
 349 214 349 214 398 174 c 128,-1,31
 447 134 447 134 513 133 c 0,32,33
 634 128 634 128 720.5 223 c 128,-1,34
 807 318 807 318 824 473 c 0,35,36
 834 563 834 563 813 638 c 128,-1,37
 792 713 792 713 743.5 756.5 c 128,-1,38
 695 800 695 800 621 802 c 0,23,24
EndSplineSet
Substitution2: "Single Substitution lookup 26 subtable" six.dnom
Substitution2: "'numr' Numerators lookup 25 subtable" six.frac
Substitution2: "'dnom' Denominators lookup 24 subtable" six.dnom
Substitution2: "'frac' Diagonal Fractions lookup 23 subtable" six.frac
EndChar

StartChar: seven
Encoding: 55 55 27
Width: 1126
Flags: W
LayerCount: 2
Back
Fore
SplineSet
1146 1342 m 1,0,-1
 355 0 l 1,1,-1
 157 0 l 1,2,-1
 944 1304 l 1,3,-1
 184 1304 l 1,4,-1
 208 1456 l 1,5,-1
 1164 1456 l 1,6,-1
 1146 1342 l 1,0,-1
EndSplineSet
Substitution2: "Single Substitution lookup 26 subtable" seven.dnom
Substitution2: "'numr' Numerators lookup 25 subtable" seven.frac
Substitution2: "'dnom' Denominators lookup 24 subtable" seven.dnom
Substitution2: "'frac' Diagonal Fractions lookup 23 subtable" seven.frac
Substitution2: "'pnum' Proportional Numbers lookup 19 subtable" seven.pnum
Substitution2: "'onum' Oldstyle Figures lookup 17 subtable" seven.oldstyle
EndChar

StartChar: eight
Encoding: 56 56 28
Width: 1126
Flags: W
LayerCount: 2
Back
Fore
SplineSet
1064 1085 m 0,0,1
 1055 976 1055 976 986.5 888.5 c 128,-1,2
 918 801 918 801 800 744 c 1,3,4
 894 690 894 690 939.5 599.5 c 128,-1,5
 985 509 985 509 977 402 c 0,6,7
 962 209 962 209 819 92.5 c 128,-1,8
 676 -24 676 -24 474 -20 c 0,9,10
 285 -16 285 -16 175 97 c 128,-1,11
 65 210 65 210 80 385 c 0,12,13
 91 510 91 510 168 603.5 c 128,-1,14
 245 697 245 697 378 755 c 1,15,16
 300 809 300 809 262.5 891 c 128,-1,17
 225 973 225 973 233 1067 c 0,18,19
 247 1252 247 1252 378 1366 c 128,-1,20
 509 1480 509 1480 700 1476 c 0,21,22
 874 1472 874 1472 976 1363 c 128,-1,23
 1078 1254 1078 1254 1064 1085 c 0,0,1
798 406 m 0,24,25
 810 519 810 519 750 594.5 c 128,-1,26
 690 670 690 670 576 674 c 0,27,28
 452 676 452 676 364 595.5 c 128,-1,29
 276 515 276 515 262 388 c 0,30,31
 250 272 250 272 310.5 202 c 128,-1,32
 371 132 371 132 482 130 c 0,33,34
 608 126 608 126 696 203.5 c 128,-1,35
 784 281 784 281 798 406 c 0,24,25
882 1082 m 0,36,37
 893 1183 893 1183 840.5 1252 c 128,-1,38
 788 1321 788 1321 691 1325 c 0,39,40
 579 1327 579 1327 502 1253.5 c 128,-1,41
 425 1180 425 1180 412 1064 c 0,42,43
 401 960 401 960 454.5 893 c 128,-1,44
 508 826 508 826 605 824 c 0,45,46
 714 822 714 822 791.5 894.5 c 128,-1,47
 869 967 869 967 882 1082 c 0,36,37
EndSplineSet
Substitution2: "Single Substitution lookup 26 subtable" eight.dnom
Substitution2: "'numr' Numerators lookup 25 subtable" eight.frac
Substitution2: "'dnom' Denominators lookup 24 subtable" eight.dnom
Substitution2: "'frac' Diagonal Fractions lookup 23 subtable" eight.frac
EndChar

StartChar: nine
Encoding: 57 57 29
Width: 1126
Flags: W
LayerCount: 2
Back
Fore
SplineSet
823 640 m 1,0,1
 749 562 749 562 666 523.5 c 128,-1,2
 583 485 583 485 501 487 c 0,3,4
 386 489 386 489 304.5 552 c 128,-1,5
 223 615 223 615 185.5 725 c 128,-1,6
 148 835 148 835 160 965 c 0,7,8
 173 1109 173 1109 241 1229 c 128,-1,9
 309 1349 309 1349 418.5 1414.5 c 128,-1,10
 528 1480 528 1480 660 1476 c 0,11,12
 834 1472 834 1472 933 1350 c 128,-1,13
 1032 1228 1032 1228 1040 1023 c 0,14,15
 1043 916 1043 916 1015 757 c 0,16,17
 949 383 949 383 754.5 193.5 c 128,-1,18
 560 4 560 4 255 -2 c 1,19,-1
 210 -2 l 1,20,-1
 226 154 l 1,21,-1
 263 154 l 1,22,23
 478 158 478 158 615.5 274.5 c 128,-1,24
 753 391 753 391 823 640 c 1,0,1
539 640 m 0,25,26
 630 636 630 636 714 691.5 c 128,-1,27
 798 747 798 747 852 841 c 1,28,-1
 860 914 l 1,29,-1
 863 995 l 1,30,31
 859 1150 859 1150 805.5 1234 c 128,-1,32
 752 1318 752 1318 652 1322 c 0,33,34
 528 1327 528 1327 440.5 1226.5 c 128,-1,35
 353 1126 353 1126 339 975 c 0,36,37
 332 914 332 914 341 851 c 128,-1,38
 350 788 350 788 377 740 c 0,39,40
 431 643 431 643 539 640 c 0,25,26
EndSplineSet
Substitution2: "Single Substitution lookup 26 subtable" nine.dnom
Substitution2: "'numr' Numerators lookup 25 subtable" nine.frac
Substitution2: "'dnom' Denominators lookup 24 subtable" nine.dnom
Substitution2: "'frac' Diagonal Fractions lookup 23 subtable" nine.frac
Substitution2: "'pnum' Proportional Numbers lookup 19 subtable" nine.pnum
Substitution2: "'onum' Oldstyle Figures lookup 17 subtable" nine.oldstyle
EndChar

StartChar: less
Encoding: 60 60 32
Width: 1020
Flags: W
LayerCount: 2
Back
Fore
SplineSet
263 640 m 1,0,-1
 828 387 l 1,1,-1
 795 200 l 1,2,-1
 65 579 l 1,3,-1
 91 725 l 1,4,-1
 952 1103 l 1,5,-1
 916 898 l 1,6,-1
 263 640 l 1,0,-1
EndSplineSet
EndChar

StartChar: equal
Encoding: 61 61 33
Width: 1100
Flags: W
LayerCount: 2
Back
Fore
SplineSet
994 814 m 1,0,-1
 184 814 l 1,1,-1
 212 975 l 1,2,-1
 1023 975 l 1,3,-1
 994 814 l 1,0,-1
922 399 m 1,4,-1
 112 399 l 1,5,-1
 140 559 l 1,6,-1
 951 559 l 1,7,-1
 922 399 l 1,4,-1
EndSplineSet
EndChar

StartChar: greater
Encoding: 62 62 34
Width: 1048
Flags: W
LayerCount: 2
Back
Fore
SplineSet
781 654 m 1,0,-1
 183 913 l 1,1,-1
 216 1095 l 1,2,-1
 980 716 l 1,3,-1
 954 571 l 1,4,-1
 58 191 l 1,5,-1
 94 392 l 1,6,-1
 781 654 l 1,0,-1
EndSplineSet
EndChar

StartChar: question
Encoding: 63 63 35
Width: 948
Flags: W
LayerCount: 2
Back
Fore
SplineSet
321 409 m 1,0,1
 334 524 334 524 382 612 c 128,-1,2
 430 700 430 700 538 796 c 2,3,-1
 619 867 l 2,4,5
 744 978 744 978 760 1100 c 0,6,7
 772 1194 772 1194 729 1253 c 128,-1,8
 686 1312 686 1312 595 1316 c 0,9,10
 493 1318 493 1318 427.5 1261.5 c 128,-1,11
 362 1205 362 1205 345 1116 c 1,12,-1
 165 1115 l 1,13,14
 184 1280 184 1280 306.5 1379.5 c 128,-1,15
 429 1479 429 1479 606 1477 c 0,16,17
 774 1473 774 1473 866.5 1371 c 128,-1,18
 959 1269 959 1269 945 1104 c 0,19,20
 928 922 928 922 741 754 c 1,21,-1
 619 650 l 1,22,23
 521 561 521 561 498 410 c 1,24,-1
 321 409 l 1,0,1
250 90 m 0,25,26
 251 137 251 137 280 167.5 c 128,-1,27
 309 198 309 198 357 200 c 0,28,29
 403 201 403 201 433.5 171.5 c 128,-1,30
 464 142 464 142 463 95 c 0,31,32
 463 49 463 49 433 19 c 128,-1,33
 403 -11 403 -11 356 -12 c 0,34,35
 309 -14 309 -14 279.5 15 c 128,-1,36
 250 44 250 44 250 90 c 0,25,26
EndSplineSet
EndChar

StartChar: at
Encoding: 64 64 36
Width: 1794
Flags: W
LayerCount: 2
Back
Fore
SplineSet
1199 -20 m 0,0,1
 1110 -18 1110 -18 1055.5 26.5 c 128,-1,2
 1001 71 1001 71 988 148 c 1,3,4
 852 -24 852 -24 709 -21 c 0,5,6
 593 -19 593 -19 537 72 c 128,-1,7
 481 163 481 163 493 319 c 0,8,9
 503 480 503 480 579 647.5 c 128,-1,10
 655 815 655 815 765 903.5 c 128,-1,11
 875 992 875 992 1005 990 c 0,12,13
 1144 987 1144 987 1277 885 c 1,14,-1
 1144 327 l 1,15,16
 1134 261 1134 261 1134 234 c 0,17,18
 1129 99 1129 99 1226 96 c 0,19,20
 1373 90 1373 90 1464 261 c 128,-1,21
 1555 432 1555 432 1566 702 c 0,22,23
 1573 882 1573 882 1520 1019 c 128,-1,24
 1467 1156 1467 1156 1351.5 1226 c 128,-1,25
 1236 1296 1236 1296 1067 1299 c 0,26,27
 846 1303 846 1303 657 1176 c 128,-1,28
 468 1049 468 1049 345.5 806 c 128,-1,29
 223 563 223 563 211 284 c 0,30,31
 203 103 203 103 258 -39 c 128,-1,32
 313 -181 313 -181 425 -253.5 c 128,-1,33
 537 -326 537 -326 699 -327 c 0,34,35
 868 -331 868 -331 1038 -249 c 1,36,-1
 1065 -366 l 1,37,38
 926 -453 926 -453 697 -453 c 0,39,40
 506 -452 506 -452 365 -368.5 c 128,-1,41
 224 -285 224 -285 147 -124.5 c 128,-1,42
 70 36 70 36 70 246 c 0,43,44
 68 463 68 463 147.5 688.5 c 128,-1,45
 227 914 227 914 368.5 1085.5 c 128,-1,46
 510 1257 510 1257 690.5 1345.5 c 128,-1,47
 871 1434 871 1434 1071 1431 c 0,48,49
 1265 1428 1265 1428 1404.5 1344 c 128,-1,50
 1544 1260 1544 1260 1617.5 1099 c 128,-1,51
 1691 938 1691 938 1691 734 c 0,52,53
 1691 509 1691 509 1625.5 333 c 128,-1,54
 1560 157 1560 157 1449.5 66.5 c 128,-1,55
 1339 -24 1339 -24 1199 -20 c 0,0,1
649 294 m 1,56,57
 644 123 644 123 761 120 c 0,58,59
 868 115 868 115 961 264 c 2,60,-1
 993 317 l 1,61,-1
 994 328 l 1,62,-1
 1127 834 l 1,63,64
 1075 862 1075 862 1020 863 c 0,65,66
 881 868 881 868 784.5 728 c 128,-1,67
 688 588 688 588 654 351 c 1,68,-1
 649 294 l 1,56,57
EndSplineSet
EndChar

StartChar: A
Encoding: 65 65 37
Width: 1306
GlyphClass: 2
Flags: W
LayerCount: 2
Back
Fore
SplineSet
909 380 m 1,0,-1
 319 380 l 1,1,-1
 120 0 l 1,2,-1
 -81 0 l 1,3,-1
 710 1456 l 1,4,-1
 875 1456 l 1,5,-1
 1163 0 l 1,6,-1
 978 0 l 1,7,-1
 909 380 l 1,0,-1
402 538 m 1,8,-1
 881 538 l 1,9,-1
 760 1217 l 1,10,-1
 402 538 l 1,8,-1
EndSplineSet
Substitution2: "'c2sc' Capitals to Small Capitals lookup 0 subtable" A.c2sc
Position2: "'cpsp' Capital Spacing lookup 0 subtable" dx=36 dy=0 dh=72 dv=0
EndChar

StartChar: B
Encoding: 66 66 38
Width: 1247
GlyphClass: 2
Flags: W
LayerCount: 2
Back
Fore
SplineSet
59 0 m 1,0,-1
 312 1456 l 1,1,-1
 739 1455 l 2,2,3
 962 1455 962 1455 1073 1355 c 128,-1,4
 1184 1255 1184 1255 1170 1076 c 0,5,6
 1152 867 1152 867 907 761 c 1,7,8
 1005 723 1005 723 1053.5 631 c 128,-1,9
 1102 539 1102 539 1093 428 c 0,10,11
 1078 231 1078 231 935 115.5 c 128,-1,12
 792 0 792 0 565 0 c 2,13,-1
 59 0 l 1,0,-1
365 681 m 1,14,-1
 274 157 l 1,15,-1
 571 156 l 2,16,17
 707 156 707 156 799 229 c 128,-1,18
 891 302 891 302 906 426 c 0,19,20
 920 544 920 544 865 610 c 128,-1,21
 810 676 810 676 692 680 c 2,22,-1
 365 681 l 1,14,-1
392 835 m 1,23,-1
 663 834 l 2,24,25
 790 834 790 834 877.5 899 c 128,-1,26
 965 964 965 964 980 1078 c 0,27,28
 993 1184 993 1184 938.5 1238 c 128,-1,29
 884 1292 884 1292 758 1297 c 1,30,-1
 472 1298 l 1,31,-1
 392 835 l 1,23,-1
EndSplineSet
Substitution2: "'c2sc' Capitals to Small Capitals lookup 0 subtable" B.c2sc
Position2: "'cpsp' Capital Spacing lookup 0 subtable" dx=36 dy=0 dh=72 dv=0
EndChar

StartChar: C
Encoding: 67 67 39
Width: 1303
GlyphClass: 2
Flags: W
LayerCount: 2
Back
Fore
SplineSet
1169 464 m 1,0,1
 1127 238 1127 238 964.5 106 c 128,-1,2
 802 -26 802 -26 575 -20 c 0,3,4
 440 -17 440 -17 339 46.5 c 128,-1,5
 238 110 238 110 182 229.5 c 128,-1,6
 126 349 126 349 120 494 c 0,7,8
 116 576 116 576 127 654 c 2,9,-1
 144 774 l 2,10,11
 191 1102 191 1102 374.5 1291.5 c 128,-1,12
 558 1481 558 1481 821 1476 c 0,13,14
 1026 1472 1026 1472 1146 1343.5 c 128,-1,15
 1266 1215 1266 1215 1273 987 c 1,16,-1
 1086 987 l 1,17,18
 1073 1293 1073 1293 846 1317 c 1,19,-1
 813 1319 l 1,20,21
 624 1324 624 1324 497.5 1178.5 c 128,-1,22
 371 1033 371 1033 334 781 c 2,23,-1
 312 630 l 1,24,-1
 306 542 l 1,25,26
 300 358 300 358 371.5 249.5 c 128,-1,27
 443 141 443 141 584 137 c 0,28,29
 736 132 736 132 835.5 210 c 128,-1,30
 935 288 935 288 987 461 c 1,31,-1
 1169 464 l 1,0,1
EndSplineSet
Substitution2: "'ss06' Style Set 6 lookup 15 subtable" C.ss06
Substitution2: "'c2sc' Capitals to Small Capitals lookup 0 subtable" C.c2sc
Position2: "'cpsp' Capital Spacing lookup 0 subtable" dx=36 dy=0 dh=72 dv=0
EndChar

StartChar: D
Encoding: 68 68 40
Width: 1313
GlyphClass: 2
Flags: W
LayerCount: 2
Back
Fore
SplineSet
59 0 m 1,0,-1
 312 1456 l 1,1,-1
 690 1455 l 2,2,3
 868 1455 868 1455 996.5 1366 c 128,-1,4
 1125 1277 1125 1277 1181 1120.5 c 128,-1,5
 1237 964 1237 964 1214 770 c 2,6,-1
 1204 697 l 2,7,8
 1160 379 1160 379 957 189.5 c 128,-1,9
 754 0 754 0 447 0 c 2,10,-1
 59 0 l 1,0,-1
472 1298 m 1,11,-1
 274 157 l 1,12,-1
 459 156 l 2,13,14
 671 156 671 156 818.5 288 c 128,-1,15
 966 420 966 420 1010 650 c 0,16,17
 1045 834 1045 834 1034 963 c 0,18,19
 1019 1118 1019 1118 931 1205.5 c 128,-1,20
 843 1293 843 1293 695 1297 c 2,21,-1
 472 1298 l 1,11,-1
EndSplineSet
Substitution2: "'ss06' Style Set 6 lookup 15 subtable" D.ss06
Substitution2: "'c2sc' Capitals to Small Capitals lookup 0 subtable" D.c2sc
Position2: "'cpsp' Capital Spacing lookup 0 subtable" dx=36 dy=0 dh=72 dv=0
EndChar

StartChar: E
Encoding: 69 69 41
Width: 1139
GlyphClass: 2
Flags: W
LayerCount: 2
Back
Fore
SplineSet
976 673 m 1,0,-1
 364 673 l 1,1,-1
 274 157 l 1,2,-1
 986 157 l 1,3,-1
 958 0 l 1,4,-1
 59 0 l 1,5,-1
 312 1456 l 1,6,-1
 1201 1456 l 1,7,-1
 1173 1298 l 1,8,-1
 472 1298 l 1,9,-1
 391 830 l 1,10,-1
 1003 830 l 1,11,-1
 976 673 l 1,0,-1
EndSplineSet
Substitution2: "'c2sc' Capitals to Small Capitals lookup 0 subtable" E.c2sc
Position2: "'cpsp' Capital Spacing lookup 0 subtable" dx=36 dy=0 dh=72 dv=0
EndChar

StartChar: F
Encoding: 70 70 42
Width: 1108
GlyphClass: 2
Flags: W
LayerCount: 2
Back
Fore
SplineSet
951 643 m 1,0,-1
 359 643 l 1,1,-1
 247 0 l 1,2,-1
 59 0 l 1,3,-1
 312 1456 l 1,4,-1
 1188 1456 l 1,5,-1
 1160 1298 l 1,6,-1
 472 1298 l 1,7,-1
 386 800 l 1,8,-1
 979 800 l 1,9,-1
 951 643 l 1,0,-1
EndSplineSet
Substitution2: "'c2sc' Capitals to Small Capitals lookup 0 subtable" F.c2sc
Position2: "'cpsp' Capital Spacing lookup 0 subtable" dx=36 dy=0 dh=72 dv=0
EndChar

StartChar: G
Encoding: 71 71 43
Width: 1363
GlyphClass: 2
Flags: W
LayerCount: 2
Back
Fore
SplineSet
1147 192 m 1,0,1
 1074 89 1074 89 934.5 33.5 c 128,-1,2
 795 -22 795 -22 616 -20 c 0,3,4
 473 -17 473 -17 366 47 c 128,-1,5
 259 111 259 111 198 230.5 c 128,-1,6
 137 350 137 350 128 502 c 0,7,8
 121 621 121 621 157.5 824 c 128,-1,9
 194 1027 194 1027 285 1175 c 128,-1,10
 376 1323 376 1323 512.5 1401 c 128,-1,11
 649 1479 649 1479 825 1476 c 0,12,13
 1028 1472 1028 1472 1148.5 1355.5 c 128,-1,14
 1269 1239 1269 1239 1286 1028 c 1,15,-1
 1100 1028 l 1,16,17
 1089 1166 1089 1166 1017 1240 c 128,-1,18
 945 1314 945 1314 818 1318 c 0,19,20
 630 1325 630 1325 503.5 1183 c 128,-1,21
 377 1041 377 1041 337 768 c 2,22,-1
 318 628 l 1,23,-1
 315 552 l 1,24,25
 315 355 315 355 396 247.5 c 128,-1,26
 477 140 477 140 623 138 c 0,27,28
 834 133 834 133 958 242 c 1,29,-1
 1018 569 l 1,30,-1
 690 569 l 1,31,-1
 718 725 l 1,32,-1
 1230 725 l 1,33,-1
 1147 192 l 1,0,1
EndSplineSet
Substitution2: "'ss06' Style Set 6 lookup 15 subtable" G.ss06
Substitution2: "'c2sc' Capitals to Small Capitals lookup 0 subtable" G.c2sc
Position2: "'cpsp' Capital Spacing lookup 0 subtable" dx=36 dy=0 dh=72 dv=0
EndChar

StartChar: H
Encoding: 72 72 44
Width: 1426
GlyphClass: 2
Flags: W
LayerCount: 2
Back
Fore
SplineSet
1146 0 m 1,0,-1
 958 0 l 1,1,-1
 1075 673 l 1,2,-1
 364 673 l 1,3,-1
 247 0 l 1,4,-1
 59 0 l 1,5,-1
 312 1456 l 1,6,-1
 500 1456 l 1,7,-1
 391 830 l 1,8,-1
 1101 830 l 1,9,-1
 1210 1456 l 1,10,-1
 1399 1456 l 1,11,-1
 1146 0 l 1,0,-1
EndSplineSet
Substitution2: "'c2sc' Capitals to Small Capitals lookup 0 subtable" H.c2sc
Position2: "'cpsp' Capital Spacing lookup 0 subtable" dx=36 dy=0 dh=72 dv=0
EndChar

StartChar: I
Encoding: 73 73 45
Width: 550
GlyphClass: 2
Flags: W
LayerCount: 2
Back
Fore
SplineSet
260 0 m 1,0,-1
 73 0 l 1,1,-1
 326 1456 l 1,2,-1
 513 1456 l 1,3,-1
 260 0 l 1,0,-1
EndSplineSet
Substitution2: "'c2sc' Capitals to Small Capitals lookup 0 subtable" I.c2sc
Position2: "'cpsp' Capital Spacing lookup 0 subtable" dx=36 dy=0 dh=72 dv=0
EndChar

StartChar: J
Encoding: 74 74 46
Width: 1106
GlyphClass: 2
Flags: W
LayerCount: 2
Back
Fore
SplineSet
910 1456 m 1,0,-1
 1098 1456 l 1,1,-1
 923 425 l 1,2,3
 894 219 894 219 756 96.5 c 128,-1,4
 618 -26 618 -26 412 -22 c 0,5,6
 220 -18 220 -18 115 94 c 128,-1,7
 10 206 10 206 22 402 c 1,8,-1
 209 402 l 1,9,10
 198 282 198 282 254 210.5 c 128,-1,11
 310 139 310 139 422 137 c 0,12,13
 545 133 545 133 630 214 c 128,-1,14
 715 295 715 295 734 424 c 2,15,-1
 910 1456 l 1,0,-1
EndSplineSet
Substitution2: "'c2sc' Capitals to Small Capitals lookup 0 subtable" J.c2sc
Position2: "'cpsp' Capital Spacing lookup 0 subtable" dx=36 dy=0 dh=72 dv=0
EndChar

StartChar: K
Encoding: 75 75 47
Width: 1255
GlyphClass: 2
Flags: W
LayerCount: 2
Back
Fore
SplineSet
544 675 m 1,0,-1
 331 484 l 1,1,-1
 247 0 l 1,2,-1
 59 0 l 1,3,-1
 312 1456 l 1,4,-1
 500 1456 l 1,5,-1
 376 747 l 1,6,-1
 1118 1456 l 1,7,-1
 1360 1456 l 1,8,-1
 683 804 l 1,9,-1
 1136 0 l 1,10,-1
 927 0 l 1,11,-1
 544 675 l 1,0,-1
EndSplineSet
Substitution2: "'ss05' Style Set 5 lookup 14 subtable" K.ss05
Substitution2: "'ss04' Style Set 4 lookup 13 subtable" K.ss04
Substitution2: "'c2sc' Capitals to Small Capitals lookup 0 subtable" K.c2sc
Position2: "'cpsp' Capital Spacing lookup 0 subtable" dx=36 dy=0 dh=72 dv=0
EndChar

StartChar: L
Encoding: 76 76 48
Width: 1079
GlyphClass: 2
Flags: W
LayerCount: 2
Back
Fore
SplineSet
275 157 m 1,0,-1
 945 157 l 1,1,-1
 917 0 l 1,2,-1
 59 0 l 1,3,-1
 312 1456 l 1,4,-1
 501 1456 l 1,5,-1
 275 157 l 1,0,-1
EndSplineSet
Substitution2: "'c2sc' Capitals to Small Capitals lookup 0 subtable" L.c2sc
Position2: "'cpsp' Capital Spacing lookup 0 subtable" dx=36 dy=0 dh=72 dv=0
EndChar

StartChar: M
Encoding: 77 77 49
Width: 1744
GlyphClass: 2
Flags: W
LayerCount: 2
Back
Fore
SplineSet
549 1456 m 1,0,-1
 804 270 l 1,1,-1
 1472 1456 l 1,2,-1
 1719 1456 l 1,3,-1
 1466 0 l 1,4,-1
 1279 0 l 1,5,-1
 1379 576 l 1,6,-1
 1498 1162 l 1,7,-1
 838 0 l 1,8,-1
 694 0 l 1,9,-1
 434 1185 l 1,10,-1
 344 557 l 1,11,-1
 247 0 l 1,12,-1
 59 0 l 1,13,-1
 312 1456 l 1,14,-1
 549 1456 l 1,0,-1
EndSplineSet
Substitution2: "'c2sc' Capitals to Small Capitals lookup 0 subtable" M.c2sc
Position2: "'cpsp' Capital Spacing lookup 0 subtable" dx=36 dy=0 dh=72 dv=0
EndChar

StartChar: N
Encoding: 78 78 50
Width: 1426
GlyphClass: 2
Flags: W
LayerCount: 2
Back
Fore
SplineSet
1146 0 m 1,0,-1
 964 0 l 1,1,-1
 444 1130 l 1,2,-1
 248 0 l 1,3,-1
 59 0 l 1,4,-1
 312 1456 l 1,5,-1
 494 1456 l 1,6,-1
 1015 321 l 1,7,-1
 1212 1456 l 1,8,-1
 1399 1456 l 1,9,-1
 1146 0 l 1,0,-1
EndSplineSet
Substitution2: "'c2sc' Capitals to Small Capitals lookup 0 subtable" N.c2sc
Position2: "'cpsp' Capital Spacing lookup 0 subtable" dx=36 dy=0 dh=72 dv=0
EndChar

StartChar: O
Encoding: 79 79 51
Width: 1376
GlyphClass: 2
Flags: W
LayerCount: 2
Back
Fore
SplineSet
593 -20 m 0,0,1
 454 -17 454 -17 351.5 47 c 128,-1,2
 249 111 249 111 190 235.5 c 128,-1,3
 131 360 131 360 125 515 c 0,4,5
 119 636 119 636 152 814 c 128,-1,6
 185 992 185 992 266 1135 c 128,-1,7
 347 1278 347 1278 463 1364 c 0,8,9
 620 1480 620 1480 821 1476 c 0,10,11
 1034 1472 1034 1472 1157 1328.5 c 128,-1,12
 1280 1185 1280 1185 1289 940 c 0,13,14
 1293 835 1293 835 1267.5 673 c 128,-1,15
 1242 511 1242 511 1176.5 372 c 128,-1,16
 1111 233 1111 233 1010 139 c 0,17,18
 834 -25 834 -25 593 -20 c 0,0,1
1104 894 m 0,19,20
 1110 1091 1110 1091 1035 1199.5 c 128,-1,21
 960 1308 960 1308 812 1312 c 0,22,23
 678 1316 678 1316 572.5 1240 c 128,-1,24
 467 1164 467 1164 399.5 1012.5 c 128,-1,25
 332 861 332 861 314 629 c 1,26,-1
 311 564 l 2,27,28
 305 368 305 368 381 257 c 128,-1,29
 457 146 457 146 602 142 c 0,30,31
 791 137 791 137 915.5 278.5 c 128,-1,32
 1040 420 1040 420 1081 676 c 0,33,34
 1101 802 1101 802 1104 894 c 0,19,20
EndSplineSet
Substitution2: "'ss06' Style Set 6 lookup 15 subtable" O.ss06
Substitution2: "'c2sc' Capitals to Small Capitals lookup 0 subtable" O.c2sc
Position2: "'cpsp' Capital Spacing lookup 0 subtable" dx=36 dy=0 dh=72 dv=0
EndChar

StartChar: P
Encoding: 80 80 52
Width: 1263
GlyphClass: 2
Flags: W
LayerCount: 2
Back
Fore
SplineSet
346 570 m 1,0,-1
 247 0 l 1,1,-1
 59 0 l 1,2,-1
 312 1456 l 1,3,-1
 798 1455 l 2,4,5
 1023 1455 1023 1455 1145 1335.5 c 128,-1,6
 1267 1216 1267 1216 1250 1018 c 0,7,8
 1232 809 1232 809 1083.5 689 c 128,-1,9
 935 569 935 569 692 569 c 2,10,-1
 346 570 l 1,0,-1
373 727 m 1,11,-1
 697 726 l 2,12,13
 850 726 850 726 948 803 c 128,-1,14
 1046 880 1046 880 1063 1017 c 0,15,16
 1079 1140 1079 1140 1012 1216.5 c 128,-1,17
 945 1293 945 1293 817 1297 c 2,18,-1
 472 1298 l 1,19,-1
 373 727 l 1,11,-1
EndSplineSet
Substitution2: "'c2sc' Capitals to Small Capitals lookup 0 subtable" P.c2sc
Position2: "'cpsp' Capital Spacing lookup 0 subtable" dx=36 dy=0 dh=72 dv=0
EndChar

StartChar: Q
Encoding: 81 81 53
Width: 1376
GlyphClass: 2
Flags: W
LayerCount: 2
Back
Fore
SplineSet
907 76 m 1,0,-1
 1124 -133 l 1,1,-1
 985 -246 l 1,2,-1
 731 -3 l 1,3,4
 657 -19 657 -19 583 -19 c 0,5,6
 446 -18 446 -18 342 47.5 c 128,-1,7
 238 113 238 113 180.5 236.5 c 128,-1,8
 123 360 123 360 117 516 c 0,9,10
 111 642 111 642 143.5 816.5 c 128,-1,11
 176 991 176 991 255 1131.5 c 128,-1,12
 334 1272 334 1272 446 1358 c 0,13,14
 606 1480 606 1480 812 1476 c 0,15,16
 953 1473 953 1473 1057 1408 c 128,-1,17
 1161 1343 1161 1343 1218 1219.5 c 128,-1,18
 1275 1096 1275 1096 1281 940 c 0,19,20
 1284 856 1284 856 1274 773 c 2,21,-1
 1262 688 l 2,22,23
 1200 257 1200 257 907 76 c 1,0,-1
1095 894 m 0,24,25
 1102 1094 1102 1094 1026 1201 c 128,-1,26
 950 1308 950 1308 804 1312 c 0,27,28
 670 1316 670 1316 564.5 1240 c 128,-1,29
 459 1164 459 1164 391.5 1012.5 c 128,-1,30
 324 861 324 861 306 629 c 1,31,-1
 303 564 l 2,32,33
 299 449 299 449 330 349 c 128,-1,34
 361 249 361 249 428.5 197 c 128,-1,35
 496 145 496 145 594 142 c 0,36,37
 778 135 778 135 903.5 275 c 128,-1,38
 1029 415 1029 415 1071 670 c 0,39,40
 1092 797 1092 797 1095 894 c 0,24,25
EndSplineSet
Substitution2: "'ss06' Style Set 6 lookup 15 subtable" Q.ss06
Substitution2: "'c2sc' Capitals to Small Capitals lookup 0 subtable" Q.c2sc
Position2: "'cpsp' Capital Spacing lookup 0 subtable" dx=36 dy=0 dh=72 dv=0
EndChar

StartChar: R
Encoding: 82 82 54
Width: 1233
GlyphClass: 2
Flags: W
LayerCount: 2
Back
Fore
SplineSet
685 589 m 1,0,-1
 349 589 l 1,1,-1
 247 0 l 1,2,-1
 58 0 l 1,3,-1
 311 1456 l 1,4,-1
 749 1455 l 2,5,6
 978 1454 978 1454 1098 1339 c 128,-1,7
 1218 1224 1218 1224 1199 1026 c 0,8,9
 1188 889 1188 889 1099.5 785 c 128,-1,10
 1011 681 1011 681 864 628 c 1,11,-1
 1090 13 l 1,12,-1
 1089 0 l 1,13,-1
 889 0 l 1,14,-1
 685 589 l 1,0,-1
376 746 m 1,15,-1
 652 745 l 2,16,17
 796 745 796 745 895 821.5 c 128,-1,18
 994 898 994 898 1011 1026 c 0,19,20
 1026 1151 1026 1151 961 1222 c 128,-1,21
 896 1293 896 1293 763 1297 c 2,22,-1
 472 1298 l 1,23,-1
 376 746 l 1,15,-1
EndSplineSet
Substitution2: "'ss03' Style Set 3 lookup 12 subtable" R.ss03
Substitution2: "'c2sc' Capitals to Small Capitals lookup 0 subtable" R.c2sc
Position2: "'cpsp' Capital Spacing lookup 0 subtable" dx=36 dy=0 dh=72 dv=0
EndChar

StartChar: S
Encoding: 83 83 55
Width: 1189
GlyphClass: 2
Flags: W
LayerCount: 2
Back
Fore
SplineSet
877 375 m 0,0,1
 899 535 899 535 711 609 c 1,2,-1
 538 672 l 1,3,-1
 480 697 l 1,4,5
 188 830 188 830 207 1071 c 0,6,7
 217 1192 217 1192 290 1285 c 128,-1,8
 363 1378 363 1378 483.5 1428.5 c 128,-1,9
 604 1479 604 1479 740 1476 c 0,10,11
 872 1473 872 1473 975.5 1417 c 128,-1,12
 1079 1361 1079 1361 1133 1260.5 c 128,-1,13
 1187 1160 1187 1160 1181 1034 c 1,14,-1
 992 1035 l 1,15,16
 1002 1169 1002 1169 932 1242.5 c 128,-1,17
 862 1316 862 1316 732 1318 c 0,18,19
 595 1320 595 1320 503 1254 c 128,-1,20
 411 1188 411 1188 397 1074 c 0,21,22
 377 925 377 925 580 848 c 1,23,-1
 729 795 l 1,24,-1
 804 763 l 1,25,26
 1086 633 1086 633 1065 377 c 0,27,28
 1054 254 1054 254 982 164.5 c 128,-1,29
 910 75 910 75 786.5 26 c 128,-1,30
 663 -23 663 -23 521 -20 c 0,31,32
 384 -19 384 -19 270.5 38.5 c 128,-1,33
 157 96 157 96 98 196 c 128,-1,34
 39 296 39 296 46 423 c 1,35,-1
 234 422 l 1,36,37
 225 292 225 292 304.5 215.5 c 128,-1,38
 384 139 384 139 529 137 c 128,-1,39
 674 135 674 135 768 200 c 128,-1,40
 862 265 862 265 877 375 c 0,0,1
EndSplineSet
Substitution2: "'c2sc' Capitals to Small Capitals lookup 0 subtable" S.c2sc
Position2: "'cpsp' Capital Spacing lookup 0 subtable" dx=36 dy=0 dh=72 dv=0
EndChar

StartChar: T
Encoding: 84 84 56
Width: 1195
GlyphClass: 2
Flags: W
LayerCount: 2
Back
Fore
SplineSet
1261 1298 m 1,0,-1
 808 1298 l 1,1,-1
 583 0 l 1,2,-1
 396 0 l 1,3,-1
 621 1298 l 1,4,-1
 168 1298 l 1,5,-1
 196 1456 l 1,6,-1
 1289 1456 l 1,7,-1
 1261 1298 l 1,0,-1
EndSplineSet
Substitution2: "'c2sc' Capitals to Small Capitals lookup 0 subtable" T.c2sc
Position2: "'cpsp' Capital Spacing lookup 0 subtable" dx=36 dy=0 dh=72 dv=0
EndChar

StartChar: U
Encoding: 85 85 57
Width: 1298
GlyphClass: 2
Flags: W
LayerCount: 2
Back
Fore
SplineSet
1312 1456 m 1,0,-1
 1144 471 l 1,1,2
 1110 244 1110 244 948 109.5 c 128,-1,3
 786 -25 786 -25 557 -21 c 0,4,5
 414 -18 414 -18 308.5 43.5 c 128,-1,6
 203 105 203 105 153 216.5 c 128,-1,7
 103 328 103 328 120 470 c 1,8,-1
 288 1456 l 1,9,-1
 473 1456 l 1,10,-1
 306 469 l 1,11,12
 289 316 289 316 358 228.5 c 128,-1,13
 427 141 427 141 567 137 c 0,14,15
 719 131 719 131 823.5 219.5 c 128,-1,16
 928 308 928 308 955 468 c 2,17,-1
 1123 1456 l 1,18,-1
 1312 1456 l 1,0,-1
EndSplineSet
Substitution2: "'c2sc' Capitals to Small Capitals lookup 0 subtable" U.c2sc
Position2: "'cpsp' Capital Spacing lookup 0 subtable" dx=36 dy=0 dh=72 dv=0
EndChar

StartChar: V
Encoding: 86 86 58
Width: 1274
GlyphClass: 2
Flags: W
LayerCount: 2
Back
Fore
SplineSet
574 257 m 1,0,-1
 1165 1456 l 1,1,-1
 1377 1456 l 1,2,-1
 625 0 l 1,3,-1
 459 0 l 1,4,-1
 164 1456 l 1,5,-1
 361 1456 l 1,6,-1
 574 257 l 1,0,-1
EndSplineSet
Substitution2: "'c2sc' Capitals to Small Capitals lookup 0 subtable" V.c2sc
Position2: "'cpsp' Capital Spacing lookup 0 subtable" dx=36 dy=0 dh=72 dv=0
EndChar

StartChar: W
Encoding: 87 87 59
Width: 1772
GlyphClass: 2
Flags: W
LayerCount: 2
Back
Fore
SplineSet
446 449 m 1,0,-1
 442 273 l 1,1,-1
 510 445 l 1,2,-1
 945 1456 l 1,3,-1
 1104 1456 l 1,4,-1
 1219 432 l 1,5,-1
 1229 266 l 1,6,-1
 1292 467 l 1,7,-1
 1664 1456 l 1,8,-1
 1857 1456 l 1,9,-1
 1287 0 l 1,10,-1
 1116 0 l 1,11,-1
 990 1069 l 1,12,-1
 986 1169 l 1,13,-1
 944 1053 l 1,14,-1
 480 0 l 1,15,-1
 309 0 l 1,16,-1
 195 1456 l 1,17,-1
 378 1456 l 1,18,-1
 446 449 l 1,0,-1
EndSplineSet
Substitution2: "'c2sc' Capitals to Small Capitals lookup 0 subtable" W.c2sc
Position2: "'cpsp' Capital Spacing lookup 0 subtable" dx=36 dy=0 dh=72 dv=0
EndChar

StartChar: X
Encoding: 88 88 60
Width: 1255
GlyphClass: 2
Flags: W
LayerCount: 2
Back
Fore
SplineSet
666 899 m 1,0,-1
 1091 1456 l 1,1,-1
 1323 1456 l 1,2,-1
 756 725 l 1,3,-1
 1095 0 l 1,4,-1
 884 0 l 1,5,-1
 626 567 l 1,6,-1
 188 0 l 1,7,-1
 -44 0 l 1,8,-1
 535 743 l 1,9,-1
 205 1456 l 1,10,-1
 413 1456 l 1,11,-1
 666 899 l 1,0,-1
EndSplineSet
Substitution2: "'c2sc' Capitals to Small Capitals lookup 0 subtable" X.c2sc
Position2: "'cpsp' Capital Spacing lookup 0 subtable" dx=36 dy=0 dh=72 dv=0
EndChar

StartChar: Y
Encoding: 89 89 61
Width: 1203
GlyphClass: 2
Flags: W
LayerCount: 2
Back
Fore
SplineSet
611 726 m 1,0,-1
 1106 1456 l 1,1,-1
 1330 1456 l 1,2,-1
 677 533 l 1,3,-1
 584 0 l 1,4,-1
 397 0 l 1,5,-1
 493 554 l 1,6,-1
 168 1456 l 1,7,-1
 372 1456 l 1,8,-1
 611 726 l 1,0,-1
EndSplineSet
Substitution2: "'c2sc' Capitals to Small Capitals lookup 0 subtable" Y.c2sc
Position2: "'cpsp' Capital Spacing lookup 0 subtable" dx=36 dy=0 dh=72 dv=0
EndChar

StartChar: Z
Encoding: 90 90 62
Width: 1199
GlyphClass: 2
Flags: W
LayerCount: 2
Back
Fore
SplineSet
234 157 m 1,0,-1
 1036 157 l 1,1,-1
 1008 0 l 1,2,-1
 -21 0 l 1,3,-1
 6 154 l 1,4,-1
 972 1298 l 1,5,-1
 216 1298 l 1,6,-1
 244 1456 l 1,7,-1
 1230 1456 l 1,8,-1
 1204 1305 l 1,9,-1
 234 157 l 1,0,-1
EndSplineSet
Substitution2: "'c2sc' Capitals to Small Capitals lookup 0 subtable" Z.c2sc
Position2: "'cpsp' Capital Spacing lookup 0 subtable" dx=36 dy=0 dh=72 dv=0
EndChar

StartChar: bracketleft
Encoding: 91 91 63
Width: 537
Flags: W
LayerCount: 2
Back
Fore
SplineSet
650 1512 m 1,0,-1
 465 1512 l 1,1,-1
 204 -160 l 1,2,-1
 390 -160 l 1,3,-1
 366 -312 l 1,4,-1
 -1 -312 l 1,5,-1
 307 1664 l 1,6,-1
 675 1664 l 1,7,-1
 650 1512 l 1,0,-1
EndSplineSet
EndChar

StartChar: backslash
Encoding: 92 92 64
Width: 825
Flags: W
LayerCount: 2
Back
Fore
SplineSet
191 1456 m 1,0,-1
 355 1456 l 1,1,-1
 670 -125 l 1,2,-1
 507 -125 l 1,3,-1
 191 1456 l 1,0,-1
EndSplineSet
EndChar

StartChar: bracketright
Encoding: 93 93 65
Width: 537
Flags: W
LayerCount: 2
Back
Fore
SplineSet
175 1664 m 1,0,-1
 543 1664 l 1,1,-1
 234 -312 l 1,2,-1
 -134 -312 l 1,3,-1
 -110 -160 l 1,4,-1
 77 -160 l 1,5,-1
 338 1512 l 1,6,-1
 150 1512 l 1,7,-1
 175 1664 l 1,0,-1
EndSplineSet
EndChar

StartChar: asciicircum
Encoding: 94 94 66
Width: 840
Flags: W
LayerCount: 2
Back
Fore
SplineSet
524 1209 m 1,0,-1
 256 729 l 1,1,-1
 79 729 l 1,2,-1
 496 1456 l 1,3,-1
 620 1456 l 1,4,-1
 783 729 l 1,5,-1
 625 729 l 1,6,-1
 524 1209 l 1,0,-1
EndSplineSet
EndChar

StartChar: underscore
Encoding: 95 95 67
Width: 906
Flags: W
LayerCount: 2
Back
Fore
SplineSet
763 -151 m 1,0,-1
 -127 -151 l 1,1,-1
 -100 0 l 1,2,-1
 790 0 l 1,3,-1
 763 -151 l 1,0,-1
EndSplineSet
EndChar

StartChar: grave
Encoding: 96 96 68
Width: 624
Flags: W
LayerCount: 2
Back
Fore
SplineSet
555 1240 m 1,0,-1
 412 1240 l 1,1,-1
 207 1534 l 1,2,-1
 412 1534 l 1,3,-1
 555 1240 l 1,0,-1
EndSplineSet
EndChar

StartChar: a
Encoding: 97 97 69
Width: 1091
GlyphClass: 2
Flags: W
LayerCount: 2
Back
Fore
SplineSet
693 0 m 1,0,1
 686 29 686 29 686 57 c 2,2,-1
 689 114 l 1,3,4
 540 -24 540 -24 373 -20 c 0,5,6
 230 -18 230 -18 140.5 70.5 c 128,-1,7
 51 159 51 159 59 292 c 0,8,9
 69 464 69 464 209.5 560.5 c 128,-1,10
 350 657 350 657 579 657 c 2,11,-1
 768 656 l 1,12,-1
 780 742 l 2,13,14
 790 839 790 839 742.5 895.5 c 128,-1,15
 695 952 695 952 600 954 c 0,16,17
 507 956 507 956 435.5 908.5 c 128,-1,18
 364 861 364 861 348 783 c 1,19,-1
 166 782 l 1,20,21
 175 877 175 877 240 950.5 c 128,-1,22
 305 1024 305 1024 407 1064.5 c 128,-1,23
 509 1105 509 1105 618 1103 c 0,24,25
 787 1099 787 1099 881 1000.5 c 128,-1,26
 975 902 975 902 960 739 c 1,27,-1
 872 203 l 1,28,-1
 867 126 l 2,29,30
 865 71 865 71 879 17 c 1,31,-1
 877 0 l 1,32,-1
 693 0 l 1,0,1
409 140 m 0,33,34
 496 138 496 138 573.5 181.5 c 128,-1,35
 651 225 651 225 707 302 c 1,36,-1
 746 525 l 1,37,-1
 609 526 l 2,38,39
 438 526 438 526 347 472 c 128,-1,40
 256 418 256 418 244 319 c 0,41,42
 235 243 235 243 279.5 192.5 c 128,-1,43
 324 142 324 142 409 140 c 0,33,34
EndSplineSet
Substitution2: "'smcp' Lowercase to Small Capitals lookup 1 subtable" A.c2sc
EndChar

StartChar: b
Encoding: 98 98 70
Width: 1125
GlyphClass: 2
Flags: W
LayerCount: 2
Back
Fore
SplineSet
1013 536 m 1,0,1
 993 370 993 370 922 237 c 128,-1,2
 851 104 851 104 750 40 c 128,-1,3
 649 -24 649 -24 526 -21 c 0,4,5
 330 -17 330 -17 235 126 c 1,6,-1
 198 0 l 1,7,-1
 31 0 l 1,8,-1
 298 1536 l 1,9,-1
 479 1536 l 1,10,-1
 370 962 l 1,11,12
 500 1106 500 1106 686 1102 c 0,13,14
 842 1098 842 1098 929 987 c 128,-1,15
 1016 876 1016 876 1021 681 c 0,16,17
 1022 617 1022 617 1015 557 c 2,18,-1
 1013 536 l 1,0,1
841 641 m 0,19,20
 844 787 844 787 792 864.5 c 128,-1,21
 740 942 740 942 633 946 c 0,22,23
 464 950 464 950 347 776 c 1,24,-1
 266 305 l 1,25,26
 326 140 326 140 491 136 c 0,27,28
 597 132 597 132 676.5 199 c 128,-1,29
 756 266 756 266 797 386.5 c 128,-1,30
 838 507 838 507 841 641 c 0,19,20
EndSplineSet
Substitution2: "'ss06' Style Set 6 lookup 15 subtable" b.ss06
Substitution2: "'smcp' Lowercase to Small Capitals lookup 1 subtable" B.c2sc
EndChar

StartChar: c
Encoding: 99 99 71
Width: 1050
GlyphClass: 2
Flags: W
LayerCount: 2
Back
Fore
SplineSet
488 130 m 0,0,1
 585 128 585 128 663 186.5 c 128,-1,2
 741 245 741 245 765 340 c 1,3,-1
 936 341 l 1,4,5
 921 239 921 239 854.5 155 c 128,-1,6
 788 71 788 71 687 24 c 128,-1,7
 586 -23 586 -23 480 -20 c 0,8,9
 345 -18 345 -18 251.5 50.5 c 128,-1,10
 158 119 158 119 114 241.5 c 128,-1,11
 70 364 70 364 84 517 c 2,12,-1
 89 567 l 2,13,14
 108 723 108 723 180 846 c 128,-1,15
 252 969 252 969 368 1037.5 c 128,-1,16
 484 1106 484 1106 624 1102 c 0,17,18
 794 1098 794 1098 896 988 c 128,-1,19
 998 878 998 878 998 709 c 1,20,-1
 829 710 l 1,21,22
 827 816 827 816 770 881.5 c 128,-1,23
 713 947 713 947 616 951 c 0,24,25
 475 954 475 954 381.5 846 c 128,-1,26
 288 738 288 738 265 544 c 2,27,-1
 262 518 l 2,28,29
 256 454 256 454 260 386 c 0,30,31
 267 269 267 269 326 201 c 128,-1,32
 385 133 385 133 488 130 c 0,0,1
EndSplineSet
Substitution2: "'ss06' Style Set 6 lookup 15 subtable" c.ss06
Substitution2: "'smcp' Lowercase to Small Capitals lookup 1 subtable" C.c2sc
EndChar

StartChar: d
Encoding: 100 100 72
Width: 1130
GlyphClass: 2
Flags: W
LayerCount: 2
Back
Fore
SplineSet
83 543 m 0,0,1
 103 708 103 708 174 841 c 128,-1,2
 245 974 245 974 349 1040 c 128,-1,3
 453 1106 453 1106 578 1103 c 0,4,5
 759 1099 759 1099 856 971 c 1,6,-1
 960 1536 l 1,7,-1
 1141 1536 l 1,8,-1
 875 0 l 1,9,-1
 710 0 l 1,10,-1
 729 116 l 1,11,12
 601 -24 601 -24 413 -20 c 0,13,14
 263 -16 263 -16 174 97.5 c 128,-1,15
 85 211 85 211 78 402 c 0,16,17
 75 461 75 461 83 543 c 0,0,1
257 439 m 0,18,19
 254 296 254 296 308 217 c 128,-1,20
 362 138 362 138 466 136 c 0,21,22
 623 129 623 129 745 294 c 1,23,-1
 831 794 l 1,24,25
 771 942 771 942 613 946 c 0,26,27
 506 949 506 949 424.5 881.5 c 128,-1,28
 343 814 343 814 300.5 692.5 c 128,-1,29
 258 571 258 571 257 439 c 0,18,19
EndSplineSet
Substitution2: "'ss06' Style Set 6 lookup 15 subtable" d.ss06
Substitution2: "'smcp' Lowercase to Small Capitals lookup 1 subtable" D.c2sc
EndChar

StartChar: e
Encoding: 101 101 73
Width: 1062
GlyphClass: 2
Flags: W
LayerCount: 2
Back
Fore
SplineSet
499 -20 m 0,0,1
 297 -16 297 -16 183 129 c 128,-1,2
 69 274 69 274 87 500 c 1,3,-1
 92 543 l 2,4,5
 109 704 109 704 187.5 837 c 128,-1,6
 266 970 266 970 379 1037.5 c 128,-1,7
 492 1105 492 1105 623 1102 c 0,8,9
 790 1098 790 1098 885 991 c 128,-1,10
 980 884 980 884 989 701 c 0,11,12
 992 636 992 636 985 571 c 2,13,-1
 974 488 l 1,14,-1
 267 488 l 1,15,16
 249 341 249 341 315.5 238 c 128,-1,17
 382 135 382 135 514 131 c 0,18,19
 674 127 674 127 810 275 c 1,20,-1
 914 187 l 1,21,22
 846 89 846 89 738.5 33.5 c 128,-1,23
 631 -22 631 -22 499 -20 c 0,0,1
614 951 m 0,24,25
 502 954 502 954 418.5 875 c 128,-1,26
 335 796 335 796 286 640 c 1,27,-1
 812 639 l 1,28,-1
 816 655 l 1,29,30
 832 781 832 781 775.5 864.5 c 128,-1,31
 719 948 719 948 614 951 c 0,24,25
EndSplineSet
Substitution2: "'ss07' Style Set 7 lookup 16 subtable" e.ss07
Substitution2: "'smcp' Lowercase to Small Capitals lookup 1 subtable" E.c2sc
EndChar

StartChar: f
Encoding: 102 102 74
Width: 700
GlyphClass: 2
Flags: W
LayerCount: 2
Back
Fore
SplineSet
119 0 m 1,0,-1
 283 939 l 1,1,-1
 116 939 l 1,2,-1
 141 1082 l 1,3,-1
 307 1082 l 1,4,-1
 325 1210 l 2,5,6
 351 1373 351 1373 451 1465 c 0,7,8
 556 1561 556 1561 719 1559 c 0,9,10
 770 1559 770 1559 848 1542 c 1,11,-1
 826 1391 l 1,12,13
 778 1401 778 1401 729 1403 c 0,14,15
 635 1403 635 1403 576.5 1344.5 c 128,-1,16
 518 1286 518 1286 504 1189 c 2,17,-1
 488 1082 l 1,18,-1
 712 1082 l 1,19,-1
 687 939 l 1,20,-1
 463 939 l 1,21,-1
 300 0 l 1,22,-1
 119 0 l 1,0,-1
EndSplineSet
Substitution2: "'smcp' Lowercase to Small Capitals lookup 1 subtable" F.c2sc
EndChar

StartChar: g
Encoding: 103 103 75
Width: 1125
GlyphClass: 2
Flags: W
LayerCount: 2
Back
Fore
SplineSet
84 543 m 0,0,1
 108 720 108 720 179.5 850.5 c 128,-1,2
 251 981 251 981 353.5 1043.5 c 128,-1,3
 456 1106 456 1106 578 1103 c 0,4,5
 766 1099 766 1099 862 961 c 1,6,-1
 898 1082 l 1,7,-1
 1064 1082 l 1,8,-1
 884 23 l 1,9,10
 855 -184 855 -184 716 -308.5 c 128,-1,11
 577 -433 577 -433 373 -427 c 0,12,13
 263 -425 263 -425 162.5 -375 c 128,-1,14
 62 -325 62 -325 4 -238 c 1,15,-1
 107 -127 l 1,16,17
 205 -272 205 -272 366 -276 c 0,18,19
 495 -280 495 -280 584.5 -204 c 128,-1,20
 674 -128 674 -128 703 12 c 2,21,-1
 723 108 l 1,22,23
 591 -24 591 -24 414 -20 c 0,24,25
 313 -17 313 -17 238.5 34.5 c 128,-1,26
 164 86 164 86 123 183.5 c 128,-1,27
 82 281 82 281 78 401 c 0,28,29
 76 460 76 460 84 543 c 0,0,1
259 440 m 2,30,31
 256 297 256 297 308.5 218.5 c 128,-1,32
 361 140 361 140 467 136 c 0,33,34
 629 132 629 132 746 295 c 1,35,-1
 831 792 l 1,36,37
 771 940 771 940 614 946 c 0,38,39
 467 950 467 950 372.5 826 c 128,-1,40
 278 702 278 702 261 491 c 1,41,-1
 259 440 l 2,30,31
EndSplineSet
Substitution2: "'ss07' Style Set 7 lookup 16 subtable" g.ss07
Substitution2: "'ss06' Style Set 6 lookup 15 subtable" g.ss06
Substitution2: "'ss01' Style Set 1 lookup 10 subtable" g.ss01
Substitution2: "'smcp' Lowercase to Small Capitals lookup 1 subtable" G.c2sc
EndChar

StartChar: h
Encoding: 104 104 76
Width: 1104
GlyphClass: 2
Flags: W
LayerCount: 2
Back
Fore
SplineSet
369 950 m 1,0,1
 511 1105 511 1105 696 1101 c 0,2,3
 848 1099 848 1099 921.5 996.5 c 128,-1,4
 995 894 995 894 976 709 c 1,5,-1
 858 0 l 1,6,-1
 677 0 l 1,7,-1
 796 712 l 2,8,9
 802 761 802 761 797 803 c 0,10,11
 780 943 780 943 632 946 c 0,12,13
 466 950 466 950 346 772 c 1,14,-1
 212 0 l 1,15,-1
 31 0 l 1,16,-1
 298 1536 l 1,17,-1
 479 1536 l 1,18,-1
 369 950 l 1,0,1
EndSplineSet
Substitution2: "'smcp' Lowercase to Small Capitals lookup 1 subtable" H.c2sc
EndChar

StartChar: i
Encoding: 105 105 77
Width: 492
GlyphClass: 2
Flags: W
LayerCount: 2
Back
Fore
SplineSet
227 0 m 1,0,-1
 47 0 l 1,1,-1
 235 1082 l 1,2,-1
 415 1082 l 1,3,-1
 227 0 l 1,0,-1
376 1477 m 0,4,5
 422 1479 422 1479 452.5 1449.5 c 128,-1,6
 483 1420 483 1420 483 1372 c 0,7,8
 482 1325 482 1325 452.5 1295 c 128,-1,9
 423 1265 423 1265 376 1263 c 128,-1,10
 329 1261 329 1261 299 1290 c 128,-1,11
 269 1319 269 1319 270 1366 c 128,-1,12
 271 1413 271 1413 300 1444 c 128,-1,13
 329 1475 329 1475 376 1477 c 0,4,5
EndSplineSet
Substitution2: "Single Substitution lookup 26 subtable" glyph576
Substitution2: "'smcp' Lowercase to Small Capitals lookup 1 subtable" I.c2sc
EndChar

StartChar: j
Encoding: 106 106 78
Width: 484
GlyphClass: 2
Flags: W
LayerCount: 2
Back
Fore
SplineSet
406 1082 m 1,0,-1
 201 -129 l 1,1,2
 181 -282 181 -282 98.5 -362 c 128,-1,3
 16 -442 16 -442 -117 -440 c 0,4,5
 -170 -438 -170 -438 -236 -420 c 1,6,-1
 -220 -272 l 1,7,8
 -183 -281 -183 -281 -137 -283 c 0,9,10
 -8 -283 -8 -283 18 -129 c 2,11,-1
 225 1082 l 1,12,-1
 406 1082 l 1,0,-1
256 1366 m 0,13,14
 257 1413 257 1413 285.5 1444 c 128,-1,15
 314 1475 314 1475 362 1477 c 0,16,17
 408 1479 408 1479 438.5 1448.5 c 128,-1,18
 469 1418 469 1418 469 1372 c 0,19,20
 468 1325 468 1325 438 1295 c 128,-1,21
 408 1265 408 1265 361 1263 c 0,22,23
 316 1261 316 1261 286 1291 c 128,-1,24
 256 1321 256 1321 256 1366 c 0,13,14
EndSplineSet
Substitution2: "Single Substitution lookup 26 subtable" glyph574
Substitution2: "'smcp' Lowercase to Small Capitals lookup 1 subtable" J.c2sc
EndChar

StartChar: k
Encoding: 107 107 79
Width: 1017
GlyphClass: 2
Flags: W
LayerCount: 2
Back
Fore
SplineSet
419 499 m 1,0,-1
 277 372 l 1,1,-1
 213 0 l 1,2,-1
 32 0 l 1,3,-1
 299 1536 l 1,4,-1
 480 1536 l 1,5,-1
 320 618 l 1,6,-1
 431 730 l 1,7,-1
 815 1082 l 1,8,-1
 1050 1082 l 1,9,-1
 553 621 l 1,10,-1
 895 0 l 1,11,-1
 697 0 l 1,12,-1
 419 499 l 1,0,-1
EndSplineSet
Substitution2: "'ss05' Style Set 5 lookup 14 subtable" k.ss05
Substitution2: "'ss04' Style Set 4 lookup 13 subtable" k.ss04
Substitution2: "'smcp' Lowercase to Small Capitals lookup 1 subtable" K.c2sc
EndChar

StartChar: l
Encoding: 108 108 80
Width: 492
GlyphClass: 2
Flags: W
LayerCount: 2
Back
Fore
SplineSet
227 0 m 1,0,-1
 47 0 l 1,1,-1
 313 1536 l 1,2,-1
 494 1536 l 1,3,-1
 227 0 l 1,0,-1
EndSplineSet
Substitution2: "'smcp' Lowercase to Small Capitals lookup 1 subtable" L.c2sc
EndChar

StartChar: m
Encoding: 109 109 81
Width: 1751
GlyphClass: 2
Flags: W
LayerCount: 2
Back
Fore
SplineSet
388 1083 m 1,0,-1
 365 962 l 1,1,2
 501 1106 501 1106 694 1102 c 0,3,4
 797 1100 797 1100 868.5 1055 c 128,-1,5
 940 1010 940 1010 967 928 c 1,6,7
 1119 1106 1119 1106 1326 1102 c 0,8,9
 1488 1098 1488 1098 1565 993 c 128,-1,10
 1642 888 1642 888 1622 711 c 1,11,-1
 1503 0 l 1,12,-1
 1323 0 l 1,13,-1
 1441 713 l 2,14,15
 1447 765 1447 765 1441 808 c 0,16,17
 1422 944 1422 944 1263 947 c 0,18,19
 1164 949 1164 949 1083.5 885.5 c 128,-1,20
 1003 822 1003 822 980 719 c 1,21,-1
 857 0 l 1,22,-1
 675 0 l 1,23,-1
 795 712 l 1,24,25
 808 823 808 823 761.5 883 c 128,-1,26
 715 943 715 943 617 945 c 0,27,28
 448 949 448 949 348 791 c 1,29,-1
 211 0 l 1,30,-1
 30 0 l 1,31,-1
 218 1082 l 1,32,-1
 388 1083 l 1,0,-1
EndSplineSet
Substitution2: "'smcp' Lowercase to Small Capitals lookup 1 subtable" M.c2sc
EndChar

StartChar: n
Encoding: 110 110 82
Width: 1106
GlyphClass: 2
Flags: W
LayerCount: 2
Back
Fore
SplineSet
390 1083 m 1,0,-1
 364 946 l 1,1,2
 510 1106 510 1106 696 1102 c 0,3,4
 849 1098 849 1098 922 996 c 128,-1,5
 995 894 995 894 976 709 c 1,6,-1
 858 0 l 1,7,-1
 677 0 l 1,8,-1
 796 712 l 2,9,10
 802 761 802 761 797 803 c 0,11,12
 780 943 780 943 632 946 c 0,13,14
 469 949 469 949 346 772 c 1,15,-1
 212 0 l 1,16,-1
 31 0 l 1,17,-1
 219 1082 l 1,18,-1
 390 1083 l 1,0,-1
EndSplineSet
Substitution2: "'smcp' Lowercase to Small Capitals lookup 1 subtable" N.c2sc
EndChar

StartChar: o
Encoding: 111 111 83
Width: 1143
GlyphClass: 2
Flags: W
LayerCount: 2
Back
Fore
SplineSet
632 1102 m 0,0,1
 768 1100 768 1100 865 1028 c 128,-1,2
 962 956 962 956 1008.5 829.5 c 128,-1,3
 1055 703 1055 703 1040 553 c 2,4,-1
 1038 531 l 1,5,6
 1019 373 1019 373 944 245.5 c 128,-1,7
 869 118 869 118 750 47 c 128,-1,8
 631 -24 631 -24 489 -20 c 0,9,10
 354 -18 354 -18 256.5 54 c 128,-1,11
 159 126 159 126 114 250 c 128,-1,12
 69 374 69 374 82 523 c 0,13,14
 97 691 97 691 173 825 c 128,-1,15
 249 959 249 959 368.5 1032.5 c 128,-1,16
 488 1106 488 1106 632 1102 c 0,0,1
264 522 m 2,17,18
 257 459 257 459 264 391 c 0,19,20
 274 273 274 273 334.5 203 c 128,-1,21
 395 133 395 133 496 130 c 0,22,23
 586 127 586 127 662 174.5 c 128,-1,24
 738 222 738 222 790 318 c 128,-1,25
 842 414 842 414 857 531 c 0,26,27
 865 623 865 623 860 686 c 0,28,29
 848 807 848 807 787 877 c 128,-1,30
 726 947 726 947 625 951 c 0,31,32
 485 954 485 954 387 841 c 128,-1,33
 289 728 289 728 266 545 c 1,34,-1
 264 522 l 2,17,18
EndSplineSet
Substitution2: "'ss06' Style Set 6 lookup 15 subtable" o.ss06
Substitution2: "'smcp' Lowercase to Small Capitals lookup 1 subtable" O.c2sc
EndChar

StartChar: p
Encoding: 112 112 84
Width: 1125
GlyphClass: 2
Flags: W
LayerCount: 2
Back
Fore
SplineSet
1011 536 m 2,0,1
 991 371 991 371 922 239 c 128,-1,2
 853 107 853 107 751 41.5 c 128,-1,3
 649 -24 649 -24 525 -21 c 0,4,5
 337 -17 337 -17 237 106 c 1,6,-1
 140 -416 l 1,7,-1
 -41 -416 l 1,8,-1
 219 1082 l 1,9,-1
 383 1083 l 1,10,-1
 363 962 l 1,11,12
 497 1106 497 1106 684 1102 c 0,13,14
 840 1098 840 1098 927 987 c 128,-1,15
 1014 876 1014 876 1019 681 c 0,16,17
 1020 617 1020 617 1014 557 c 2,18,-1
 1011 536 l 2,0,1
833 557 m 1,19,-1
 838 641 l 1,20,21
 838 787 838 787 782.5 864.5 c 128,-1,22
 727 942 727 942 622 946 c 0,23,24
 465 950 465 950 351 797 c 1,25,-1
 260 278 l 1,26,27
 321 134 321 134 479 130 c 0,28,29
 614 127 614 127 708.5 235.5 c 128,-1,30
 803 344 803 344 833 557 c 1,19,-1
EndSplineSet
Substitution2: "'ss06' Style Set 6 lookup 15 subtable" p.ss06
Substitution2: "'smcp' Lowercase to Small Capitals lookup 1 subtable" P.c2sc
EndChar

StartChar: q
Encoding: 113 113 85
Width: 1139
GlyphClass: 2
Flags: W
LayerCount: 2
Back
Fore
SplineSet
585 1103 m 0,0,1
 768 1099 768 1099 864 972 c 1,2,-1
 897 1082 l 1,3,-1
 1064 1082 l 1,4,-1
 804 -416 l 1,5,-1
 624 -416 l 1,6,-1
 722 100 l 1,7,8
 592 -24 592 -24 420 -20 c 0,9,10
 268 -18 268 -18 177 95 c 128,-1,11
 86 208 86 208 79 400 c 0,12,13
 73 524 73 524 108 661.5 c 128,-1,14
 143 799 143 799 212.5 901.5 c 128,-1,15
 282 1004 282 1004 377 1055 c 128,-1,16
 472 1106 472 1106 585 1103 c 0,0,1
265 522 m 1,17,-1
 260 438 l 1,18,19
 257 293 257 293 312.5 212.5 c 128,-1,20
 368 132 368 132 472 130 c 0,21,22
 625 126 625 126 743 276 c 1,23,-1
 837 808 l 1,24,25
 771 947 771 947 621 951 c 0,26,27
 484 954 484 954 390 846 c 128,-1,28
 296 738 296 738 265 522 c 1,17,-1
EndSplineSet
Substitution2: "'ss06' Style Set 6 lookup 15 subtable" q.ss06
Substitution2: "'smcp' Lowercase to Small Capitals lookup 1 subtable" Q.c2sc
EndChar

StartChar: r
Encoding: 114 114 86
Width: 682
GlyphClass: 2
Flags: W
LayerCount: 2
Back
Fore
SplineSet
704 917 m 1,0,-1
 619 926 l 1,1,2
 445 926 445 926 345 769 c 1,3,-1
 212 0 l 1,4,-1
 31 0 l 1,5,-1
 219 1082 l 1,6,-1
 394 1083 l 1,7,-1
 367 957 l 1,8,9
 482 1108 482 1108 638 1104 c 0,10,11
 671 1104 671 1104 724 1089 c 1,12,-1
 704 917 l 1,0,-1
EndSplineSet
Substitution2: "'smcp' Lowercase to Small Capitals lookup 1 subtable" R.c2sc
EndChar

StartChar: s
Encoding: 115 115 87
Width: 1034
GlyphClass: 2
Flags: W
LayerCount: 2
Back
Fore
SplineSet
701 293 m 0,0,1
 716 405 716 405 578 451 c 1,2,-1
 390 506 l 1,3,4
 152 588 152 588 160 778 c 0,5,6
 167 921 167 921 290.5 1012.5 c 128,-1,7
 414 1104 414 1104 581 1102 c 0,8,9
 745 1100 745 1100 847.5 1006.5 c 128,-1,10
 950 913 950 913 946 763 c 1,11,-1
 766 764 l 1,12,13
 768 845 768 845 715 896 c 128,-1,14
 662 947 662 947 574 949 c 0,15,16
 480 951 480 951 412 903 c 0,17,18
 349 858 349 858 339 785 c 0,19,20
 326 691 326 691 454 648 c 1,21,-1
 545 623 l 2,22,23
 731 575 731 575 809 498 c 128,-1,24
 887 421 887 421 881 307 c 0,25,26
 875 206 875 206 815 131 c 128,-1,27
 755 56 755 56 655 16.5 c 128,-1,28
 555 -23 555 -23 442 -20 c 0,29,30
 270 -18 270 -18 158 80.5 c 128,-1,31
 46 179 46 179 50 334 c 1,32,-1
 231 333 l 1,33,34
 231 242 231 242 289 187 c 128,-1,35
 347 132 347 132 448 132 c 0,36,37
 547 130 547 130 619 173.5 c 128,-1,38
 691 217 691 217 701 293 c 0,0,1
EndSplineSet
Substitution2: "'smcp' Lowercase to Small Capitals lookup 1 subtable" S.c2sc
EndChar

StartChar: t
Encoding: 116 116 88
Width: 659
GlyphClass: 2
Flags: W
LayerCount: 2
Back
Fore
SplineSet
509 1344 m 1,0,-1
 463 1082 l 1,1,-1
 660 1082 l 1,2,-1
 635 939 l 1,3,-1
 439 939 l 1,4,-1
 326 266 l 2,5,6
 323 240 323 240 325 218 c 0,7,8
 332 140 332 140 410 140 c 0,9,10
 443 140 443 140 498 150 c 1,11,-1
 484 -1 l 1,12,13
 419 -19 419 -19 352 -19 c 0,14,15
 244 -17 244 -17 190 60.5 c 128,-1,16
 136 138 136 138 148 269 c 1,17,-1
 258 939 l 1,18,-1
 67 939 l 1,19,-1
 92 1082 l 1,20,-1
 283 1082 l 1,21,-1
 329 1344 l 1,22,-1
 509 1344 l 1,0,-1
EndSplineSet
Substitution2: "'smcp' Lowercase to Small Capitals lookup 1 subtable" T.c2sc
EndChar

StartChar: u
Encoding: 117 117 89
Width: 1105
GlyphClass: 2
Flags: W
LayerCount: 2
Back
Fore
SplineSet
718 107 m 1,0,1
 591 -24 591 -24 395 -20 c 0,2,3
 240 -16 240 -16 165.5 91 c 128,-1,4
 91 198 91 198 110 383 c 1,5,-1
 226 1082 l 1,6,-1
 407 1082 l 1,7,-1
 290 380 l 2,8,9
 285 336 285 336 288 294 c 0,10,11
 293 222 293 222 331 181 c 128,-1,12
 369 140 369 140 437 137 c 0,13,14
 631 131 631 131 737 294 c 1,15,-1
 873 1082 l 1,16,-1
 1054 1082 l 1,17,-1
 866 0 l 1,18,-1
 695 0 l 1,19,-1
 718 107 l 1,0,1
EndSplineSet
Substitution2: "'smcp' Lowercase to Small Capitals lookup 1 subtable" U.c2sc
EndChar

StartChar: v
Encoding: 118 118 90
Width: 972
GlyphClass: 2
Flags: W
LayerCount: 2
Back
Fore
SplineSet
424 253 m 1,0,-1
 814 1082 l 1,1,-1
 1005 1082 l 1,2,-1
 460 0 l 1,3,-1
 322 0 l 1,4,-1
 110 1082 l 1,5,-1
 288 1082 l 1,6,-1
 424 253 l 1,0,-1
EndSplineSet
Substitution2: "'smcp' Lowercase to Small Capitals lookup 1 subtable" V.c2sc
EndChar

StartChar: w
Encoding: 119 119 91
Width: 1503
GlyphClass: 2
Flags: W
LayerCount: 2
Back
Fore
SplineSet
1002 256 m 1,0,-1
 1347 1082 l 1,1,-1
 1534 1082 l 1,2,-1
 1041 0 l 1,3,-1
 894 0 l 1,4,-1
 782 818 l 1,5,-1
 392 0 l 1,6,-1
 245 0 l 1,7,-1
 128 1082 l 1,8,-1
 301 1082 l 1,9,-1
 367 276 l 1,10,-1
 751 1082 l 1,11,-1
 897 1082 l 1,12,-1
 1002 256 l 1,0,-1
EndSplineSet
Substitution2: "'smcp' Lowercase to Small Capitals lookup 1 subtable" W.c2sc
EndChar

StartChar: x
Encoding: 120 120 92
Width: 995
GlyphClass: 2
Flags: W
LayerCount: 2
Back
Fore
SplineSet
496 688 m 1,0,-1
 790 1082 l 1,1,-1
 1012 1082 l 1,2,-1
 578 538 l 1,3,-1
 842 0 l 1,4,-1
 645 0 l 1,5,-1
 466 404 l 1,6,-1
 161 0 l 1,7,-1
 -60 0 l 1,8,-1
 387 556 l 1,9,-1
 131 1082 l 1,10,-1
 329 1082 l 1,11,-1
 496 688 l 1,0,-1
EndSplineSet
Substitution2: "'smcp' Lowercase to Small Capitals lookup 1 subtable" X.c2sc
EndChar

StartChar: y
Encoding: 121 121 93
Width: 950
GlyphClass: 2
Flags: W
LayerCount: 2
Back
Fore
SplineSet
419 273 m 1,0,-1
 804 1082 l 1,1,-1
 1004 1082 l 1,2,-1
 362 -180 l 2,3,4
 228 -443 228 -443 18 -440 c 0,5,6
 -19 -439 -19 -439 -91 -422 c 1,7,-1
 -75 -272 l 1,8,-1
 -28 -277 l 1,9,10
 58 -281 58 -281 120.5 -238.5 c 128,-1,11
 183 -196 183 -196 231 -101 c 2,12,-1
 296 23 l 1,13,-1
 109 1082 l 1,14,-1
 298 1082 l 1,15,-1
 419 273 l 1,0,-1
EndSplineSet
Substitution2: "'smcp' Lowercase to Small Capitals lookup 1 subtable" Y.c2sc
EndChar

StartChar: z
Encoding: 122 122 94
Width: 995
GlyphClass: 2
Flags: W
LayerCount: 2
Back
Fore
SplineSet
234 151 m 1,0,-1
 842 151 l 1,1,-1
 815 0 l 1,2,-1
 -19 0 l 1,3,-1
 6 145 l 1,4,-1
 715 929 l 1,5,-1
 150 929 l 1,6,-1
 178 1082 l 1,7,-1
 974 1082 l 1,8,-1
 950 942 l 1,9,-1
 234 151 l 1,0,-1
EndSplineSet
Substitution2: "'smcp' Lowercase to Small Capitals lookup 1 subtable" Z.c2sc
EndChar

StartChar: braceleft
Encoding: 123 123 95
Width: 682
Flags: W
LayerCount: 2
Back
Fore
SplineSet
478 -365 m 1,0,1
 320 -312 320 -312 246 -192.5 c 128,-1,2
 172 -73 172 -73 191 99 c 1,3,-1
 219 306 l 2,4,5
 225 355 225 355 220 397 c 0,6,7
 203 533 203 533 56 541 c 1,8,-1
 72 686 l 1,9,10
 289 696 289 696 321 931 c 2,11,-1
 352 1159 l 1,12,13
 411 1498 411 1498 762 1599 c 1,14,-1
 789 1482 l 1,15,16
 577 1412 577 1412 532 1145 c 1,17,-1
 498 905 l 1,18,19
 465 705 465 705 287 611 c 1,20,21
 390 534 390 534 400 392 c 0,22,23
 403 348 403 348 399 305 c 2,24,-1
 368 62 l 1,25,-1
 366 -9 l 1,26,-1
 368 -40 l 1,27,28
 385 -199 385 -199 519 -252 c 1,29,-1
 478 -365 l 1,0,1
EndSplineSet
EndChar

StartChar: bar
Encoding: 124 124 96
Width: 494
Flags: W
LayerCount: 2
Back
Fore
SplineSet
179 -270 m 1,0,-1
 33 -270 l 1,1,-1
 303 1456 l 1,2,-1
 449 1456 l 1,3,-1
 179 -270 l 1,0,-1
EndSplineSet
EndChar

StartChar: braceright
Encoding: 125 125 97
Width: 682
Flags: W
LayerCount: 2
Back
Fore
SplineSet
-116 -251 m 1,0,1
 101 -180 101 -180 144 93 c 1,2,-1
 175 319 l 2,3,4
 206 527 206 527 401 620 c 1,5,6
 288 689 288 689 275 836 c 0,7,8
 271 878 271 878 276 923 c 2,9,-1
 307 1169 l 1,10,-1
 309 1240 l 1,11,12
 306 1424 306 1424 157 1482 c 1,13,-1
 202 1595 l 1,14,15
 358 1542 358 1542 430 1422.5 c 128,-1,16
 502 1303 502 1303 483 1132 c 2,17,-1
 456 924 l 2,18,19
 450 874 450 874 455 833 c 0,20,21
 471 698 471 698 618 690 c 1,22,-1
 603 545 l 1,23,24
 385 535 385 535 353 297 c 2,25,-1
 325 90 l 2,26,27
 274 -264 274 -264 -88 -368 c 1,28,-1
 -116 -251 l 1,0,1
EndSplineSet
EndChar

StartChar: asciitilde
Encoding: 126 126 98
Width: 1361
Flags: W
LayerCount: 2
Back
Fore
SplineSet
1245 778 m 1,0,1
 1231 615 1231 615 1133.5 506.5 c 128,-1,2
 1036 398 1036 398 896 400 c 0,3,4
 770 403 770 403 647 515 c 1,5,-1
 587 573 l 2,6,7
 515 640 515 640 449 640 c 0,8,9
 313 643 313 643 269 476 c 1,10,-1
 261 439 l 1,11,-1
 105 436 l 1,12,13
 121 598 121 598 218.5 702.5 c 128,-1,14
 316 807 316 807 457 803 c 0,15,16
 576 800 576 800 684 707 c 1,17,-1
 773 624 l 2,18,19
 841 563 841 563 904 563 c 0,20,21
 979 563 979 563 1031.5 618 c 128,-1,22
 1084 673 1084 673 1102 775 c 1,23,-1
 1245 778 l 1,0,1
EndSplineSet
EndChar

StartChar: exclamdown
Encoding: 161 161 99
Width: 494
Flags: W
LayerCount: 2
Back
Fore
SplineSet
179 684 m 1,0,-1
 344 684 l 1,1,-1
 175 -360 l 1,2,-1
 -15 -360 l 1,3,-1
 179 684 l 1,0,-1
416 999 m 0,4,5
 416 952 416 952 387 921 c 128,-1,6
 358 890 358 890 310 888 c 128,-1,7
 262 886 262 886 232.5 917 c 128,-1,8
 203 948 203 948 203 993 c 0,9,10
 204 1041 204 1041 233.5 1070.5 c 128,-1,11
 263 1100 263 1100 310 1102 c 0,12,13
 356 1103 356 1103 386.5 1074 c 128,-1,14
 417 1045 417 1045 416 999 c 0,4,5
EndSplineSet
EndChar

StartChar: cent
Encoding: 162 162 100
Width: 1096
Flags: W
LayerCount: 2
Back
Fore
SplineSet
489 130 m 0,0,1
 586 128 586 128 664.5 185.5 c 128,-1,2
 743 243 743 243 770 340 c 1,3,-1
 942 341 l 1,4,5
 921 207 921 207 816.5 112.5 c 128,-1,6
 712 18 712 18 552 -12 c 1,7,-1
 506 -245 l 1,8,-1
 325 -245 l 1,9,-1
 372 -9 l 1,10,11
 253 21 253 21 180.5 115 c 128,-1,12
 108 209 108 209 94 350 c 0,13,14
 82 461 82 461 104 594.5 c 128,-1,15
 126 728 126 728 186.5 833 c 128,-1,16
 247 938 247 938 340 1004.5 c 128,-1,17
 433 1071 433 1071 552 1092 c 1,18,-1
 597 1318 l 1,19,-1
 778 1318 l 1,20,-1
 733 1093 l 1,21,22
 864 1061 864 1061 937.5 959.5 c 128,-1,23
 1011 858 1011 858 1011 709 c 1,24,-1
 841 709 l 1,25,26
 841 815 841 815 785 881 c 128,-1,27
 729 947 729 947 632 951 c 0,28,29
 480 957 480 957 381 829 c 128,-1,30
 282 701 282 701 268 473 c 1,31,-1
 267 431 l 2,32,33
 264 289 264 289 322 210.5 c 128,-1,34
 380 132 380 132 489 130 c 0,0,1
EndSplineSet
EndChar

StartChar: sterling
Encoding: 163 163 101
Width: 1164
Flags: W
LayerCount: 2
Back
Fore
SplineSet
440 622 m 1,0,-1
 412 410 l 2,1,2
 392 257 392 257 304 154 c 1,3,-1
 1019 157 l 1,4,-1
 990 0 l 1,5,-1
 -13 0 l 1,6,-1
 16 156 l 1,7,-1
 83 154 l 1,8,9
 196 195 196 195 225 416 c 2,10,-1
 252 622 l 1,11,-1
 92 622 l 1,12,-1
 119 779 l 1,13,-1
 275 779 l 1,14,-1
 306 1032 l 2,15,16
 331 1236 331 1236 470 1359 c 128,-1,17
 609 1482 609 1482 801 1476 c 0,18,19
 969 1472 969 1472 1065 1367.5 c 128,-1,20
 1161 1263 1161 1263 1153 1086 c 1,21,-1
 966 1087 l 1,22,23
 973 1193 973 1193 924 1254 c 128,-1,24
 875 1315 875 1315 774 1319 c 0,25,26
 664 1323 664 1323 587 1241 c 128,-1,27
 510 1159 510 1159 494 1030 c 2,28,-1
 462 779 l 1,29,-1
 772 779 l 1,30,-1
 745 622 l 1,31,-1
 440 622 l 1,0,-1
EndSplineSet
Substitution2: "'c2sc' Capitals to Small Capitals lookup 0 subtable" sterling.c2sc
Position2: "'cpsp' Capital Spacing lookup 0 subtable" dx=36 dy=0 dh=72 dv=0
EndChar

StartChar: currency
Encoding: 164 164 102
Width: 1426
Flags: W
LayerCount: 2
Back
Fore
SplineSet
996 110 m 1,0,1
 809 -24 809 -24 619 -20 c 0,2,3
 420 -16 420 -16 284 110 c 1,4,-1
 127 -26 l 1,5,-1
 18 118 l 1,6,-1
 177 252 l 1,7,8
 147 337 147 337 137 424 c 0,9,10
 118 574 118 574 162.5 718.5 c 128,-1,11
 207 863 207 863 311 980 c 1,12,-1
 194 1137 l 1,13,-1
 335 1264 l 1,14,-1
 449 1116 l 1,15,16
 628 1238 628 1238 810 1234 c 0,17,18
 998 1232 998 1232 1135 1113 c 1,19,-1
 1310 1265 l 1,20,-1
 1421 1119 l 1,21,-1
 1248 972 l 1,22,23
 1280 885 1280 885 1292 796 c 0,24,25
 1310 652 1310 652 1269.5 511 c 128,-1,26
 1229 370 1229 370 1130 250 c 1,27,-1
 1245 100 l 1,28,-1
 1102 -27 l 1,29,-1
 996 110 l 1,0,1
304 599 m 0,30,31
 289 485 289 485 326 381 c 128,-1,32
 363 277 363 277 442.5 215.5 c 128,-1,33
 522 154 522 154 630 150 c 0,34,35
 747 146 747 146 854.5 209 c 128,-1,36
 962 272 962 272 1034.5 383 c 128,-1,37
 1107 494 1107 494 1123 617 c 0,38,39
 1137 732 1137 732 1100.5 835 c 128,-1,40
 1064 938 1064 938 985 998.5 c 128,-1,41
 906 1059 906 1059 798 1063 c 0,42,43
 680 1067 680 1067 572 1004 c 128,-1,44
 464 941 464 941 392 831 c 128,-1,45
 320 721 320 721 304 599 c 0,30,31
EndSplineSet
EndChar

StartChar: yen
Encoding: 165 165 103
Width: 1213
Flags: W
LayerCount: 2
Back
Fore
SplineSet
622 783 m 1,0,-1
 1091 1456 l 1,1,-1
 1316 1456 l 1,2,-1
 786 736 l 1,3,-1
 1083 736 l 1,4,-1
 1061 611 l 1,5,-1
 689 611 l 1,6,-1
 660 446 l 1,7,-1
 1033 446 l 1,8,-1
 1011 322 l 1,9,-1
 639 322 l 1,10,-1
 582 0 l 1,11,-1
 394 0 l 1,12,-1
 450 322 l 1,13,-1
 83 322 l 1,14,-1
 105 446 l 1,15,-1
 471 446 l 1,16,-1
 500 611 l 1,17,-1
 133 611 l 1,18,-1
 155 736 l 1,19,-1
 465 736 l 1,20,-1
 184 1456 l 1,21,-1
 387 1456 l 1,22,-1
 622 783 l 1,0,-1
EndSplineSet
Substitution2: "'c2sc' Capitals to Small Capitals lookup 0 subtable" yen.c2sc
Position2: "'cpsp' Capital Spacing lookup 0 subtable" dx=36 dy=0 dh=72 dv=0
EndChar

StartChar: brokenbar
Encoding: 166 166 104
Width: 486
Flags: W
LayerCount: 2
Back
Fore
SplineSet
-9 -270 m 1,0,-1
 129 521 l 1,1,-1
 311 521 l 1,2,-1
 173 -270 l 1,3,-1
 -9 -270 l 1,0,-1
341 698 m 1,4,-1
 159 698 l 1,5,-1
 291 1456 l 1,6,-1
 473 1456 l 1,7,-1
 341 698 l 1,4,-1
EndSplineSet
EndChar

StartChar: section
Encoding: 167 167 105
Width: 1228
Flags: W
LayerCount: 2
Back
Fore
SplineSet
1087 439 m 0,0,1
 1069 248 1069 248 858 152 c 1,2,3
 961 49 961 49 948 -120 c 0,4,5
 934 -294 934 -294 790 -396 c 128,-1,6
 646 -498 646 -498 424 -496 c 0,7,8
 207 -492 207 -492 86 -377 c 128,-1,9
 -35 -262 -35 -262 -24 -63 c 1,10,-1
 157 -62 l 1,11,12
 151 -147 151 -147 182.5 -210 c 128,-1,13
 214 -273 214 -273 279 -307.5 c 128,-1,14
 344 -342 344 -342 432 -343 c 0,15,16
 515 -345 515 -345 589 -318 c 128,-1,17
 663 -291 663 -291 709 -241.5 c 128,-1,18
 755 -192 755 -192 764 -123 c 0,19,20
 776 -46 776 -46 722.5 9.5 c 128,-1,21
 669 65 669 65 530.5 109.5 c 128,-1,22
 392 154 392 154 312 192 c 0,23,24
 70 307 70 307 90 543 c 0,25,26
 104 727 104 727 314 830 c 1,27,28
 215 936 215 936 228 1102 c 0,29,30
 236 1210 236 1210 303 1296.5 c 128,-1,31
 370 1383 370 1383 489 1430 c 0,32,33
 612 1478 612 1478 753 1476 c 0,34,35
 960 1472 960 1472 1072.5 1357.5 c 128,-1,36
 1185 1243 1185 1243 1173 1045 c 1,37,-1
 993 1045 l 1,38,39
 1001 1171 1001 1171 935 1246 c 128,-1,40
 869 1321 869 1321 745 1325 c 0,41,42
 610 1327 610 1327 518.5 1268.5 c 128,-1,43
 427 1210 427 1210 412 1105 c 0,44,45
 401 1024 401 1024 449 969.5 c 128,-1,46
 497 915 497 915 632.5 873 c 128,-1,47
 768 831 768 831 839 800 c 0,48,49
 1108 684 1108 684 1087 439 c 0,0,1
616 691 m 1,50,-1
 462 743 l 1,51,52
 295 696 295 696 273 545 c 0,53,54
 259 445 259 445 334 384 c 0,55,56
 384 343 384 343 513 302.5 c 128,-1,57
 642 262 642 262 707 237 c 1,58,59
 881 289 881 289 903 436 c 0,60,61
 914 509 914 509 866.5 565 c 128,-1,62
 819 621 819 621 700 663 c 2,63,-1
 616 691 l 1,50,-1
EndSplineSet
EndChar

StartChar: dieresis
Encoding: 168 168 106
Width: 840
Flags: W
LayerCount: 2
Back
Fore
SplineSet
219 1369 m 0,0,1
 220 1415 220 1415 249 1445.5 c 128,-1,2
 278 1476 278 1476 325 1478 c 0,3,4
 372 1479 372 1479 402.5 1449.5 c 128,-1,5
 433 1420 433 1420 432 1373 c 0,6,7
 432 1327 432 1327 402 1297 c 128,-1,8
 372 1267 372 1267 325 1265 c 0,9,10
 278 1264 278 1264 248.5 1293 c 128,-1,11
 219 1322 219 1322 219 1369 c 0,0,1
636 1367 m 0,12,13
 637 1413 637 1413 666 1444 c 128,-1,14
 695 1475 695 1475 742 1477 c 0,15,16
 790 1478 790 1478 820 1448.5 c 128,-1,17
 850 1419 850 1419 849 1371 c 0,18,19
 849 1324 849 1324 819 1294.5 c 128,-1,20
 789 1265 789 1265 742 1263 c 0,21,22
 696 1262 696 1262 665.5 1291 c 128,-1,23
 635 1320 635 1320 636 1367 c 0,12,13
EndSplineSet
EndChar

StartChar: copyright
Encoding: 169 169 107
Width: 1571
Flags: W
LayerCount: 2
Back
Fore
SplineSet
1093 597 m 1,0,1
 1079 446 1079 446 986 362.5 c 128,-1,2
 893 279 893 279 744 283 c 0,3,4
 599 287 599 287 519 395 c 128,-1,5
 439 503 439 503 453 670 c 2,6,-1
 463 768 l 2,7,8
 483 957 483 957 586.5 1066.5 c 128,-1,9
 690 1176 690 1176 847 1174 c 0,10,11
 989 1170 989 1170 1066.5 1088.5 c 128,-1,12
 1144 1007 1144 1007 1138 859 c 1,13,-1
 995 860 l 1,14,15
 1001 945 1001 945 966.5 994 c 128,-1,16
 932 1043 932 1043 842 1045 c 0,17,18
 747 1047 747 1047 683.5 974.5 c 128,-1,19
 620 902 620 902 605.5 774.5 c 128,-1,20
 591 647 591 647 592 617 c 2,21,-1
 594 582 l 2,22,23
 601 505 601 505 640.5 460 c 128,-1,24
 680 415 680 415 748 412 c 0,25,26
 918 405 918 405 953 596 c 1,27,-1
 1093 597 l 1,0,1
230 570 m 0,28,29
 252 363 252 363 382 231.5 c 128,-1,30
 512 100 512 100 702 98 c 0,31,32
 889 94 889 94 1055.5 205.5 c 128,-1,33
 1222 317 1222 317 1313.5 507.5 c 128,-1,34
 1405 698 1405 698 1385 888 c 0,35,36
 1363 1093 1363 1093 1235 1222 c 128,-1,37
 1107 1351 1107 1351 914 1356 c 0,38,39
 725 1360 725 1360 558.5 1248 c 128,-1,40
 392 1136 392 1136 301 948 c 128,-1,41
 210 760 210 760 230 570 c 0,28,29
119 722 m 0,42,43
 141 921 141 921 255 1099 c 128,-1,44
 369 1277 369 1277 544 1378.5 c 128,-1,45
 719 1480 719 1480 913 1476 c 0,46,47
 1091 1474 1091 1474 1233 1376 c 128,-1,48
 1375 1278 1375 1278 1446 1104.5 c 128,-1,49
 1517 931 1517 931 1496 735 c 0,50,51
 1473 532 1473 532 1359 355 c 128,-1,52
 1245 178 1245 178 1073 78 c 128,-1,53
 901 -22 901 -22 713 -21 c 2,54,-1
 703 -21 l 1,55,56
 520 -17 520 -17 380 81 c 128,-1,57
 240 179 240 179 169 352.5 c 128,-1,58
 98 526 98 526 119 722 c 0,42,43
EndSplineSet
EndChar

StartChar: ordfeminine
Encoding: 170 170 108
Width: 898
Flags: W
LayerCount: 2
Back
Fore
SplineSet
630 703 m 1,0,-1
 626 777 l 1,1,2
 534 691 534 691 420 691 c 0,3,4
 315 691 315 691 255 752.5 c 128,-1,5
 195 814 195 814 199 911 c 0,6,7
 204 1026 204 1026 297 1088 c 128,-1,8
 390 1150 390 1150 557 1150 c 2,9,-1
 668 1149 l 1,10,-1
 677 1203 l 2,11,12
 680 1230 680 1230 678 1254 c 0,13,14
 671 1333 671 1333 586 1336 c 0,15,16
 530 1337 530 1337 486.5 1312.5 c 128,-1,17
 443 1288 443 1288 428 1232 c 1,18,-1
 272 1243 l 1,19,20
 283 1352 283 1352 371 1415.5 c 128,-1,21
 459 1479 459 1479 590 1477 c 0,22,23
 713 1473 713 1473 779.5 1398.5 c 128,-1,24
 846 1324 846 1324 836 1200 c 1,25,-1
 782 853 l 1,26,-1
 778 795 l 2,27,28
 777 750 777 750 785 704 c 1,29,-1
 630 703 l 1,0,-1
460 826 m 0,30,31
 535 826 535 826 626 894 c 1,32,-1
 654 1037 l 1,33,-1
 561 1037 l 2,34,35
 473 1034 473 1034 421 1002 c 128,-1,36
 369 970 369 970 361 915 c 0,37,38
 356 872 356 872 383 849 c 128,-1,39
 410 826 410 826 460 826 c 0,30,31
EndSplineSet
EndChar

StartChar: logicalnot
Encoding: 172 172 110
Width: 1110
Flags: W
LayerCount: 2
Back
Fore
SplineSet
891 375 m 1,0,-1
 709 375 l 1,1,-1
 756 639 l 1,2,-1
 129 639 l 1,3,-1
 158 800 l 1,4,-1
 965 800 l 1,5,-1
 891 375 l 1,0,-1
EndSplineSet
EndChar

StartChar: registered
Encoding: 174 174 111
Width: 1572
Flags: W
LayerCount: 2
Back
Fore
SplineSet
118 722 m 0,0,1
 140 921 140 921 254 1099 c 128,-1,2
 368 1277 368 1277 543 1378.5 c 128,-1,3
 718 1480 718 1480 912 1476 c 0,4,5
 1087 1474 1087 1474 1228.5 1378.5 c 128,-1,6
 1370 1283 1370 1283 1443.5 1109.5 c 128,-1,7
 1517 936 1517 936 1495 735 c 0,8,9
 1472 531 1472 531 1357 353.5 c 128,-1,10
 1242 176 1242 176 1068.5 75 c 128,-1,11
 895 -26 895 -26 703 -22 c 0,12,13
 524 -18 524 -18 384 77.5 c 128,-1,14
 244 173 244 173 170.5 348 c 128,-1,15
 97 523 97 523 118 722 c 0,0,1
229 569 m 0,16,17
 241 438 241 438 305.5 328 c 128,-1,18
 370 218 370 218 472.5 159 c 128,-1,19
 575 100 575 100 701 97 c 0,20,21
 888 93 888 93 1053 203 c 128,-1,22
 1218 313 1218 313 1311 503 c 128,-1,23
 1404 693 1404 693 1385 888 c 0,24,25
 1371 1021 1371 1021 1306.5 1129 c 128,-1,26
 1242 1237 1242 1237 1140.5 1295 c 128,-1,27
 1039 1353 1039 1353 913 1356 c 0,28,29
 728 1360 728 1360 563 1253 c 128,-1,30
 398 1146 398 1146 303.5 955.5 c 128,-1,31
 209 765 209 765 229 569 c 0,16,17
654 654 m 1,32,-1
 601 316 l 1,33,-1
 463 316 l 1,34,-1
 596 1165 l 1,35,-1
 853 1164 l 1,36,37
 992 1159 992 1159 1066.5 1094.5 c 128,-1,38
 1141 1030 1141 1030 1134 916 c 0,39,40
 1131 858 1131 858 1097 810 c 128,-1,41
 1063 762 1063 762 982 716 c 1,42,43
 1059 672 1059 672 1068 575 c 1,44,-1
 1067 514 l 1,45,46
 1056 427 1056 427 1058 396 c 2,47,-1
 1061 332 l 1,48,-1
 1059 315 l 1,49,-1
 921 315 l 1,50,51
 915 352 915 352 917 388 c 2,52,-1
 924 460 l 1,53,-1
 930 514 l 2,54,55
 937 580 937 580 913 614.5 c 128,-1,56
 889 649 889 649 821 653 c 2,57,-1
 654 654 l 1,32,-1
673 782 m 1,58,-1
 816 781 l 2,59,60
 888 783 888 783 938.5 817.5 c 128,-1,61
 989 852 989 852 998 910 c 0,62,63
 1008 973 1008 973 975.5 1004 c 128,-1,64
 943 1035 943 1035 854 1038 c 2,65,-1
 714 1038 l 1,66,-1
 673 782 l 1,58,-1
EndSplineSet
EndChar

StartChar: macron
Encoding: 175 175 112
Width: 920
Flags: W
LayerCount: 2
Back
Fore
SplineSet
921 1313 m 1,0,-1
 227 1313 l 1,1,-1
 250 1456 l 1,2,-1
 944 1456 l 1,3,-1
 921 1313 l 1,0,-1
EndSplineSet
EndChar

StartChar: degree
Encoding: 176 176 113
Width: 752
Flags: W
LayerCount: 2
Back
Fore
SplineSet
236 1207 m 0,0,1
 240 1318 240 1318 320.5 1398.5 c 128,-1,2
 401 1479 401 1479 504 1477 c 0,3,4
 601 1475 601 1475 664.5 1400.5 c 128,-1,5
 728 1326 728 1326 726 1225 c 0,6,7
 722 1113 722 1113 642.5 1035 c 128,-1,8
 563 957 563 957 461 959 c 0,9,10
 363 961 363 961 297.5 1033.5 c 128,-1,11
 232 1106 232 1106 236 1207 c 0,0,1
357 1209 m 0,12,13
 351 1160 351 1160 381.5 1123.5 c 128,-1,14
 412 1087 412 1087 461 1087 c 0,15,16
 515 1087 515 1087 557.5 1127 c 128,-1,17
 600 1167 600 1167 606 1223 c 0,18,19
 612 1271 612 1271 584 1310.5 c 128,-1,20
 556 1350 556 1350 504 1350 c 0,21,22
 450 1350 450 1350 406.5 1307.5 c 128,-1,23
 363 1265 363 1265 357 1209 c 0,12,13
EndSplineSet
EndChar

StartChar: plusminus
Encoding: 177 177 114
Width: 1071
Flags: W
LayerCount: 2
Back
Fore
SplineSet
670 854 m 1,0,-1
 1023 854 l 1,1,-1
 999 703 l 1,2,-1
 647 703 l 1,3,-1
 582 289 l 1,4,-1
 418 289 l 1,5,-1
 483 703 l 1,6,-1
 109 703 l 1,7,-1
 134 854 l 1,8,-1
 507 854 l 1,9,-1
 572 1267 l 1,10,-1
 735 1267 l 1,11,-1
 670 854 l 1,0,-1
848 0 m 1,12,-1
 37 0 l 1,13,-1
 61 152 l 1,14,-1
 872 152 l 1,15,-1
 848 0 l 1,12,-1
EndSplineSet
EndChar

StartChar: uni00B2
Encoding: 178 178 115
Width: 738
Flags: W
LayerCount: 2
Back
Fore
SplineSet
674 667 m 1,0,-1
 92 667 l 1,1,-1
 112 783 l 1,2,-1
 467 1081 l 2,3,4
 566 1165 566 1165 578 1239 c 0,5,6
 585 1287 585 1287 558.5 1314 c 128,-1,7
 532 1341 532 1341 484 1342 c 0,8,9
 418 1343 418 1343 378 1305.5 c 128,-1,10
 338 1268 338 1268 324 1206 c 1,11,-1
 170 1205 l 1,12,13
 181 1322 181 1322 268 1396.5 c 128,-1,14
 355 1471 355 1471 483 1469 c 0,15,16
 603 1467 603 1467 672.5 1404 c 128,-1,17
 742 1341 742 1341 737 1239 c 0,18,19
 729 1116 729 1116 578 991 c 2,20,-1
 514 940 l 1,21,-1
 318 795 l 1,22,-1
 697 795 l 1,23,-1
 674 667 l 1,0,-1
EndSplineSet
EndChar

StartChar: uni00B3
Encoding: 179 179 116
Width: 738
Flags: W
LayerCount: 2
Back
Fore
SplineSet
343 1125 m 1,0,-1
 421 1124 l 2,1,2
 487 1126 487 1126 533.5 1156.5 c 128,-1,3
 580 1187 580 1187 587 1241 c 0,4,5
 593 1290 593 1290 562 1314.5 c 128,-1,6
 531 1339 531 1339 481 1339 c 0,7,8
 369 1339 369 1339 340 1246 c 1,9,-1
 184 1246 l 1,10,11
 195 1347 195 1347 274.5 1407.5 c 128,-1,12
 354 1468 354 1468 479 1468 c 0,13,14
 605 1465 605 1465 676 1406 c 128,-1,15
 747 1347 747 1347 742 1250 c 0,16,17
 735 1131 735 1131 583 1065 c 1,18,19
 701 1022 701 1022 697 893 c 0,20,21
 692 782 692 782 601.5 717.5 c 128,-1,22
 511 653 511 653 378 655 c 0,23,24
 259 657 259 657 184.5 719 c 128,-1,25
 110 781 110 781 110 889 c 1,26,-1
 261 889 l 1,27,28
 261 839 261 839 294 811.5 c 128,-1,29
 327 784 327 784 385 784 c 0,30,31
 449 784 449 784 494.5 816 c 128,-1,32
 540 848 540 848 547 901 c 0,33,34
 560 1003 560 1003 419 1008 c 2,35,-1
 332 1009 l 1,36,-1
 343 1125 l 1,0,-1
EndSplineSet
EndChar

StartChar: acute
Encoding: 180 180 117
Width: 633
Flags: W
LayerCount: 2
Back
Fore
SplineSet
447 1534 m 1,0,-1
 677 1534 l 1,1,-1
 371 1240 l 1,2,-1
 213 1240 l 1,3,-1
 447 1534 l 1,0,-1
EndSplineSet
EndChar

StartChar: mu
Encoding: 181 181 118
Width: 1135
Flags: W
LayerCount: 2
Back
Fore
SplineSet
414 1082 m 1,0,-1
 311 458 l 2,1,2
 301 374 301 374 304 316 c 0,3,4
 314 133 314 133 460 130 c 0,5,6
 643 124 643 124 740 281 c 1,7,-1
 879 1082 l 1,8,-1
 1061 1082 l 1,9,-1
 873 0 l 1,10,-1
 711 0 l 1,11,-1
 730 115 l 1,12,13
 619 -23 619 -23 457 -21 c 0,14,15
 322 -21 322 -21 242 54 c 1,16,-1
 153 -416 l 1,17,-1
 -27 -416 l 1,18,-1
 233 1082 l 1,19,-1
 414 1082 l 1,0,-1
EndSplineSet
EndChar

StartChar: paragraph
Encoding: 182 182 119
Width: 981
Flags: W
LayerCount: 2
Back
Fore
SplineSet
532 0 m 1,0,-1
 623 520 l 1,1,-1
 559 521 l 2,2,3
 348 524 348 524 235.5 651.5 c 128,-1,4
 123 779 123 779 143 980 c 0,5,6
 157 1122 157 1122 231 1231 c 128,-1,7
 305 1340 305 1340 425 1398.5 c 128,-1,8
 545 1457 545 1457 689 1457 c 2,9,-1
 966 1456 l 1,10,-1
 714 0 l 1,11,-1
 532 0 l 1,0,-1
EndSplineSet
EndChar

StartChar: periodcentered
Encoding: 183 183 120
Width: 528
Flags: W
LayerCount: 2
Back
Fore
SplineSet
165 726 m 0,0,1
 166 775 166 775 196.5 807.5 c 128,-1,2
 227 840 227 840 277 842 c 0,3,4
 325 844 325 844 357 813 c 128,-1,5
 389 782 389 782 389 732 c 0,6,7
 388 683 388 683 356 651.5 c 128,-1,8
 324 620 324 620 275 618 c 0,9,10
 230 616 230 616 197.5 645.5 c 128,-1,11
 165 675 165 675 165 726 c 0,0,1
EndSplineSet
EndChar

StartChar: cedilla
Encoding: 184 184 121
Width: 502
GlyphClass: 4
Flags: W
LayerCount: 2
Back
Fore
SplineSet
167 0 m 1,0,-1
 146 -55 l 1,1,2
 275 -84 275 -84 271 -218 c 0,3,4
 268 -320 268 -320 181 -377 c 128,-1,5
 94 -434 94 -434 -56 -437 c 1,6,-1
 -52 -329 l 1,7,8
 114 -323 114 -323 130 -222 c 0,9,10
 142 -151 142 -151 38 -139 c 2,11,-1
 -8 -133 l 1,12,-1
 38 0 l 1,13,-1
 167 0 l 1,0,-1
EndSplineSet
EndChar

StartChar: uni00B9
Encoding: 185 185 122
Width: 738
Flags: W
LayerCount: 2
Back
Fore
SplineSet
493 674 m 1,0,-1
 339 674 l 1,1,-1
 443 1271 l 1,2,-1
 223 1215 l 1,3,-1
 247 1350 l 1,4,-1
 603 1463 l 1,5,-1
 624 1463 l 1,6,-1
 493 674 l 1,0,-1
EndSplineSet
EndChar

StartChar: ordmasculine
Encoding: 186 186 123
Width: 913
Flags: W
LayerCount: 2
Back
Fore
SplineSet
589 1477 m 0,0,1
 730 1473 730 1473 810.5 1374.5 c 128,-1,2
 891 1276 891 1276 878 1123 c 2,3,-1
 871 1052 l 2,4,5
 854 886 854 886 749.5 785.5 c 128,-1,6
 645 685 645 685 495 689 c 0,7,8
 353 693 353 693 272.5 793 c 128,-1,9
 192 893 192 893 205 1043 c 2,10,-1
 212 1113 l 2,11,12
 229 1281 229 1281 334.5 1381 c 128,-1,13
 440 1481 440 1481 589 1477 c 0,0,1
365 1041 m 2,14,15
 355 945 355 945 391 887.5 c 128,-1,16
 427 830 427 830 504 828 c 0,17,18
 583 825 583 825 639 882 c 128,-1,19
 695 939 695 939 710 1043 c 2,20,-1
 719 1124 l 2,21,22
 727 1226 727 1226 690 1280.5 c 128,-1,23
 653 1335 653 1335 581 1337 c 0,24,25
 499 1339 499 1339 443 1281 c 128,-1,26
 387 1223 387 1223 373 1123 c 1,27,-1
 365 1041 l 2,14,15
EndSplineSet
EndChar

StartChar: questiondown
Encoding: 191 191 128
Width: 950
Flags: W
LayerCount: 2
Back
Fore
SplineSet
584 681 m 1,0,1
 572 572 572 572 530.5 491.5 c 128,-1,2
 489 411 489 411 384 311 c 2,3,-1
 287 220 l 2,4,5
 168 105 168 105 155 -10 c 0,6,7
 142 -108 142 -108 189 -166 c 128,-1,8
 236 -224 236 -224 329 -226 c 0,9,10
 427 -228 427 -228 493.5 -171.5 c 128,-1,11
 560 -115 560 -115 578 -21 c 1,12,-1
 758 -20 l 1,13,14
 739 -187 739 -187 617 -288.5 c 128,-1,15
 495 -390 495 -390 318 -386 c 0,16,17
 145 -382 145 -382 50 -281 c 128,-1,18
 -45 -180 -45 -180 -30 -14 c 0,19,20
 -15 169 -15 169 176 344 c 1,21,-1
 292 446 l 2,22,23
 383 531 383 531 408 680 c 1,24,-1
 584 681 l 1,0,1
654 1000 m 0,25,26
 654 953 654 953 624.5 922 c 128,-1,27
 595 891 595 891 548 889 c 0,28,29
 500 887 500 887 470.5 918 c 128,-1,30
 441 949 441 949 441 994 c 0,31,32
 442 1041 442 1041 472 1070.5 c 128,-1,33
 502 1100 502 1100 548 1102 c 0,34,35
 594 1103 594 1103 624.5 1074.5 c 128,-1,36
 655 1046 655 1046 654 1000 c 0,25,26
EndSplineSet
EndChar

StartChar: AE
Encoding: 198 198 129
Width: 1867
GlyphClass: 2
Flags: W
LayerCount: 2
Back
Fore
SplineSet
1719 0 m 1,0,-1
 862 0 l 1,1,-1
 909 353 l 1,2,-1
 369 353 l 1,3,-1
 108 0 l 1,4,-1
 -124 0 l 1,5,-1
 982 1456 l 1,6,-1
 1912 1456 l 1,7,-1
 1885 1304 l 1,8,-1
 1215 1304 l 1,9,-1
 1152 833 l 1,10,-1
 1726 833 l 1,11,-1
 1699 682 l 1,12,-1
 1132 682 l 1,13,-1
 1061 151 l 1,14,-1
 1746 151 l 1,15,-1
 1719 0 l 1,0,-1
496 527 m 1,16,-1
 932 527 l 1,17,-1
 1028 1249 l 1,18,-1
 496 527 l 1,16,-1
EndSplineSet
EndChar

StartChar: multiply
Encoding: 215 215 130
Width: 1069
Flags: W
LayerCount: 2
Back
Fore
SplineSet
40 338 m 1,0,-1
 419 673 l 1,1,-1
 158 1009 l 1,2,-1
 286 1123 l 1,3,-1
 548 789 l 1,4,-1
 925 1123 l 1,5,-1
 1026 992 l 1,6,-1
 650 656 l 1,7,-1
 912 320 l 1,8,-1
 784 206 l 1,9,-1
 521 542 l 1,10,-1
 142 206 l 1,11,-1
 40 338 l 1,0,-1
EndSplineSet
EndChar

StartChar: Oslash
Encoding: 216 216 131
Width: 1376
GlyphClass: 2
Flags: W
LayerCount: 2
Back
Fore
SplineSet
590 -21 m 0,0,1
 424 -17 424 -17 307 63 c 1,2,-1
 183 -92 l 1,3,-1
 32 -92 l 1,4,-1
 221 140 l 1,5,6
 115 311 115 311 120 541 c 0,7,8
 121 638 121 638 145.5 788 c 128,-1,9
 170 938 170 938 229.5 1067.5 c 128,-1,10
 289 1197 289 1197 378 1289.5 c 128,-1,11
 467 1382 467 1382 580 1430.5 c 128,-1,12
 693 1479 693 1479 820 1476 c 0,13,14
 1026 1472 1026 1472 1155 1350 c 1,15,-1
 1286 1515 l 1,16,-1
 1436 1515 l 1,17,-1
 1228 1259 l 1,18,19
 1277 1143 1277 1143 1287 1021 c 0,20,21
 1301 852 1301 852 1258 630 c 128,-1,22
 1215 408 1215 408 1102 248.5 c 128,-1,23
 989 89 989 89 830 23 c 0,24,25
 718 -24 718 -24 590 -21 c 0,0,1
302 487 m 0,26,27
 304 379 304 379 335 296 c 1,28,-1
 1045 1204 l 1,29,30
 968 1308 968 1308 812 1313 c 0,31,32
 630 1318 630 1318 504 1180 c 128,-1,33
 378 1042 378 1042 334 798 c 0,34,35
 300 606 300 606 302 487 c 0,26,27
1109 933 m 0,36,37
 1113 1011 1113 1011 1102 1089 c 1,38,-1
 411 203 l 1,39,40
 485 145 485 145 599 141 c 0,41,42
 790 136 790 136 916.5 283 c 128,-1,43
 1043 430 1043 430 1083 700 c 0,44,45
 1105 847 1105 847 1109 933 c 0,36,37
EndSplineSet
EndChar

StartChar: Thorn
Encoding: 222 222 132
Width: 1184
Flags: W
LayerCount: 2
Back
Fore
SplineSet
491 1456 m 1,0,-1
 440 1163 l 1,1,-1
 678 1162 l 2,2,3
 886 1161 886 1161 1004 1047.5 c 128,-1,4
 1122 934 1122 934 1107 746 c 0,5,6
 1096 616 1096 616 1025.5 517.5 c 128,-1,7
 955 419 955 419 836 365.5 c 128,-1,8
 717 312 717 312 572 312 c 2,9,-1
 293 313 l 1,10,-1
 238 0 l 1,11,-1
 56 0 l 1,12,-1
 309 1456 l 1,13,-1
 491 1456 l 1,0,-1
414 1011 m 1,14,-1
 319 465 l 1,15,-1
 576 464 l 2,16,17
 715 464 715 464 812 540.5 c 128,-1,18
 909 617 909 617 926 744 c 0,19,20
 940 864 940 864 875.5 935 c 128,-1,21
 811 1006 811 1006 693 1010 c 2,22,-1
 414 1011 l 1,14,-1
EndSplineSet
EndChar

StartChar: germandbls
Encoding: 223 223 133
Width: 1191
Flags: W
LayerCount: 2
Back
Fore
SplineSet
211 0 m 1,0,-1
 30 0 l 1,1,-1
 220 1111 l 1,2,3
 238 1245 238 1245 297 1348 c 128,-1,4
 356 1451 356 1451 449 1504 c 128,-1,5
 542 1557 542 1557 663 1555 c 0,6,7
 822 1551 822 1551 909 1462 c 128,-1,8
 996 1373 996 1373 983 1225 c 0,9,10
 974 1130 974 1130 893 1008 c 128,-1,11
 812 886 812 886 800 810 c 0,12,13
 791 755 791 755 818 701 c 128,-1,14
 845 647 845 647 918 573 c 128,-1,15
 991 499 991 499 1020 442.5 c 128,-1,16
 1049 386 1049 386 1046 326 c 0,17,18
 1036 162 1036 162 920 68.5 c 128,-1,19
 804 -25 804 -25 631 -21 c 0,20,21
 453 -19 453 -19 339 54 c 1,22,-1
 398 207 l 1,23,24
 504 132 504 132 617 130 c 0,25,26
 718 130 718 130 787.5 179.5 c 128,-1,27
 857 229 857 229 868 315 c 0,28,29
 875 372 875 372 847.5 425.5 c 128,-1,30
 820 479 820 479 746.5 554 c 128,-1,31
 673 629 673 629 642.5 688.5 c 128,-1,32
 612 748 612 748 618 811 c 0,33,34
 623 870 623 870 651 918.5 c 128,-1,35
 679 967 679 967 711.5 1012.5 c 128,-1,36
 744 1058 744 1058 772.5 1105.5 c 128,-1,37
 801 1153 801 1153 809 1211 c 0,38,39
 819 1293 819 1293 781 1347 c 128,-1,40
 743 1401 743 1401 662 1405 c 0,41,42
 557 1408 557 1408 489 1332.5 c 128,-1,43
 421 1257 421 1257 400 1112 c 2,44,-1
 211 0 l 1,0,-1
EndSplineSet
Substitution2: "'c2sc' Capitals to Small Capitals lookup 0 subtable" germandbls.c2sc
EndChar

StartChar: ae
Encoding: 230 230 134
Width: 1687
GlyphClass: 2
Flags: W
LayerCount: 2
Back
Fore
SplineSet
1136 -20 m 0,0,1
 1015 -18 1015 -18 922.5 28.5 c 128,-1,2
 830 75 830 75 779 160 c 1,3,4
 610 -24 610 -24 334 -20 c 0,5,6
 188 -18 188 -18 103.5 68.5 c 128,-1,7
 19 155 19 155 29 296 c 0,8,9
 39 456 39 456 166 546 c 128,-1,10
 293 636 293 636 510 636 c 2,11,-1
 736 635 l 1,12,-1
 748 721 l 2,13,14
 760 825 760 825 717 885.5 c 128,-1,15
 674 946 674 946 584 950 c 0,16,17
 480 952 480 952 408 898.5 c 128,-1,18
 336 845 336 845 321 759 c 1,19,-1
 142 778 l 1,20,21
 158 929 158 929 284 1017 c 128,-1,22
 410 1105 410 1105 596 1103 c 0,23,24
 705 1101 705 1101 786.5 1057.5 c 128,-1,25
 868 1014 868 1014 902 937 c 1,26,27
 1064 1106 1064 1106 1258 1102 c 0,28,29
 1385 1100 1385 1100 1472 1037 c 128,-1,30
 1559 974 1559 974 1596 863.5 c 128,-1,31
 1633 753 1633 753 1616 615 c 1,32,-1
 1598 497 l 1,33,-1
 896 497 l 1,34,35
 887 429 887 429 896 365 c 0,36,37
 909 258 909 258 973.5 195.5 c 128,-1,38
 1038 133 1038 133 1142 132 c 0,39,40
 1232 130 1232 130 1310.5 160 c 128,-1,41
 1389 190 1389 190 1463 237 c 1,42,-1
 1516 100 l 1,43,44
 1378 -20 1378 -20 1136 -20 c 0,0,1
375 129 m 0,45,46
 445 127 445 127 524.5 163.5 c 128,-1,47
 604 200 604 200 670 257 c 1,48,-1
 713 495 l 1,49,-1
 510 496 l 2,50,51
 390 496 390 496 307 439.5 c 128,-1,52
 224 383 224 383 212 292 c 0,53,54
 203 218 203 218 248 174.5 c 128,-1,55
 293 131 293 131 375 129 c 0,45,46
1248 952 m 0,56,57
 1138 955 1138 955 1053 876.5 c 128,-1,58
 968 798 968 798 915 640 c 1,59,-1
 1437 640 l 1,60,-1
 1443 672 l 2,61,62
 1452 727 1452 727 1445 777 c 0,63,64
 1434 857 1434 857 1383 903 c 128,-1,65
 1332 949 1332 949 1248 952 c 0,56,57
EndSplineSet
EndChar

StartChar: eth
Encoding: 240 240 135
Width: 1174
Flags: W
LayerCount: 2
Back
Fore
SplineSet
926 1299 m 1,0,1
 1103 1004 1103 1004 1053 633 c 2,2,-1
 1040 542 l 2,3,4
 1016 375 1016 375 937.5 242 c 128,-1,5
 859 109 859 109 746.5 42.5 c 128,-1,6
 634 -24 634 -24 504 -21 c 0,7,8
 316 -17 316 -17 204 120.5 c 128,-1,9
 92 258 92 258 111 459 c 0,10,11
 125 603 125 603 194 724.5 c 128,-1,12
 263 846 263 846 374 914 c 128,-1,13
 485 982 485 982 617 978 c 0,14,15
 771 974 771 974 882 863 c 1,16,17
 878 1045 878 1045 772 1198 c 1,18,-1
 533 1050 l 1,19,-1
 474 1158 l 1,20,-1
 681 1284 l 1,21,22
 579 1370 579 1370 401 1422 c 1,23,-1
 471 1579 l 1,24,25
 691 1523 691 1523 841 1387 c 1,26,-1
 1050 1517 l 1,27,-1
 1108 1408 l 1,28,-1
 926 1299 l 1,0,1
877 695 m 1,29,30
 821 821 821 821 651 826 c 0,31,32
 507 830 507 830 409 728.5 c 128,-1,33
 311 627 311 627 292 458 c 0,34,35
 277 319 277 319 341 225.5 c 128,-1,36
 405 132 405 132 517 129 c 0,37,38
 644 124 644 124 735 233.5 c 128,-1,39
 826 343 826 343 857 535 c 1,40,-1
 877 695 l 1,29,30
EndSplineSet
Substitution2: "'smcp' Lowercase to Small Capitals lookup 1 subtable" Eth.c2sc
EndChar

StartChar: divide
Encoding: 247 247 136
Width: 1144
Flags: W
LayerCount: 2
Back
Fore
SplineSet
1038 600 m 1,0,-1
 68 600 l 1,1,-1
 101 784 l 1,2,-1
 1070 784 l 1,3,-1
 1038 600 l 1,0,-1
534 1095 m 0,4,5
 534 1144 534 1144 564.5 1176.5 c 128,-1,6
 595 1209 595 1209 645 1211 c 0,7,8
 693 1213 693 1213 725 1182 c 128,-1,9
 757 1151 757 1151 757 1101 c 0,10,11
 756 1052 756 1052 724.5 1021 c 128,-1,12
 693 990 693 990 644 988 c 128,-1,13
 595 986 595 986 564 1016 c 128,-1,14
 533 1046 533 1046 534 1095 c 0,4,5
392 278 m 0,15,16
 393 327 393 327 423.5 359.5 c 128,-1,17
 454 392 454 392 504 394 c 0,18,19
 552 396 552 396 584 365 c 128,-1,20
 616 334 616 334 616 284 c 0,21,22
 615 235 615 235 583 204 c 128,-1,23
 551 173 551 173 502 171 c 128,-1,24
 453 169 453 169 422.5 199.5 c 128,-1,25
 392 230 392 230 392 278 c 0,15,16
EndSplineSet
EndChar

StartChar: oslash
Encoding: 248 248 137
Width: 1135
GlyphClass: 2
Flags: W
LayerCount: 2
Back
Fore
SplineSet
638 1104 m 0,0,1
 741 1102 741 1102 832 1059 c 1,2,-1
 934 1208 l 1,3,-1
 1066 1207 l 1,4,-1
 922 1000 l 1,5,6
 1032 870 1032 870 1039 672 c 0,7,8
 1041 617 1041 617 1033 531 c 0,9,10
 1014 375 1014 375 934.5 243.5 c 128,-1,11
 855 112 855 112 735 44 c 128,-1,12
 615 -24 615 -24 473 -22 c 0,13,14
 384 -20 384 -20 291 15 c 1,15,-1
 189 -134 l 1,16,-1
 57 -133 l 1,17,-1
 198 72 l 1,18,19
 80 196 80 196 73 401 c 0,20,21
 71 462 71 462 77 522 c 2,22,-1
 79 538 l 2,23,24
 115 801 115 801 270 954.5 c 128,-1,25
 425 1108 425 1108 638 1104 c 0,0,1
249 447 m 0,26,27
 239 315 239 315 290 224 c 1,28,-1
 749 922 l 1,29,30
 694 951 694 951 630 953 c 0,31,32
 473 957 473 957 368.5 819.5 c 128,-1,33
 264 682 264 682 249 447 c 0,26,27
863 701 m 0,34,35
 860 775 860 775 829 844 c 1,36,-1
 373 152 l 1,37,38
 423 129 423 129 480 127 c 0,39,40
 620 124 620 124 720.5 234 c 128,-1,41
 821 344 821 344 852 531 c 0,42,43
 865 626 865 626 863 701 c 0,34,35
EndSplineSet
EndChar

StartChar: thorn
Encoding: 254 254 138
Width: 1155
Flags: W
LayerCount: 2
Back
Fore
SplineSet
1020 536 m 0,0,1
 1000 370 1000 370 930 237 c 128,-1,2
 860 104 860 104 758.5 39.5 c 128,-1,3
 657 -25 657 -25 533 -22 c 0,4,5
 347 -18 347 -18 246 106 c 1,6,-1
 149 -416 l 1,7,-1
 -32 -416 l 1,8,-1
 307 1536 l 1,9,-1
 487 1536 l 1,10,-1
 381 969 l 1,11,12
 512 1106 512 1106 693 1102 c 0,13,14
 851 1098 851 1098 937.5 984 c 128,-1,15
 1024 870 1024 870 1027 681 c 0,16,17
 1028 620 1028 620 1020 536 c 0,0,1
842 558 m 1,18,-1
 847 642 l 1,19,20
 847 787 847 787 791 865 c 128,-1,21
 735 943 735 943 631 945 c 0,22,23
 471 949 471 949 359 797 c 1,24,-1
 269 278 l 1,25,26
 330 135 330 135 487 130 c 0,27,28
 624 127 624 127 718.5 236.5 c 128,-1,29
 813 346 813 346 842 558 c 1,18,-1
EndSplineSet
EndChar

StartChar: Hbar
Encoding: 294 294 139
Width: 1401
GlyphClass: 2
Flags: W
LayerCount: 2
Back
Fore
SplineSet
1342 1166 m 1,0,-1
 1473 1166 l 1,1,-1
 1448 1024 l 1,2,-1
 1318 1024 l 1,3,-1
 1140 0 l 1,4,-1
 952 0 l 1,5,-1
 1069 673 l 1,6,-1
 359 673 l 1,7,-1
 242 0 l 1,8,-1
 53 0 l 1,9,-1
 231 1024 l 1,10,-1
 101 1024 l 1,11,-1
 126 1166 l 1,12,-1
 256 1166 l 1,13,-1
 306 1456 l 1,14,-1
 495 1456 l 1,15,-1
 444 1166 l 1,16,-1
 1154 1166 l 1,17,-1
 1205 1456 l 1,18,-1
 1393 1456 l 1,19,-1
 1342 1166 l 1,0,-1
386 830 m 1,20,-1
 1095 830 l 1,21,-1
 1130 1024 l 1,22,-1
 420 1024 l 1,23,-1
 386 830 l 1,20,-1
EndSplineSet
EndChar

StartChar: dotlessi
Encoding: 305 305 140
Width: 501
GlyphClass: 2
Flags: W
LayerCount: 2
Back
Fore
SplineSet
227 0 m 1,0,-1
 46 0 l 1,1,-1
 234 1082 l 1,2,-1
 415 1082 l 1,3,-1
 227 0 l 1,0,-1
EndSplineSet
Substitution2: "'smcp' Lowercase to Small Capitals lookup 1 subtable" Idotaccent.c2sc
EndChar

StartChar: kgreenlandic
Encoding: 312 312 141
Width: 1115
GlyphClass: 2
Flags: W
LayerCount: 2
Back
Fore
SplineSet
417 461 m 1,0,-1
 307 461 l 1,1,-1
 227 0 l 1,2,-1
 45 0 l 1,3,-1
 233 1082 l 1,4,-1
 415 1082 l 1,5,-1
 334 624 l 1,6,-1
 414 624 l 1,7,-1
 879 1082 l 1,8,-1
 1111 1082 l 1,9,-1
 572 548 l 1,10,-1
 944 0 l 1,11,-1
 732 0 l 1,12,-1
 417 461 l 1,0,-1
EndSplineSet
EndChar

StartChar: Lslash
Encoding: 321 321 142
Width: 1080
GlyphClass: 2
Flags: W
LayerCount: 2
Back
Fore
SplineSet
394 847 m 1,0,-1
 664 930 l 1,1,-1
 640 798 l 1,2,-1
 371 715 l 1,3,-1
 274 157 l 1,4,-1
 944 157 l 1,5,-1
 916 0 l 1,6,-1
 58 0 l 1,7,-1
 172 653 l 1,8,-1
 34 612 l 1,9,-1
 58 744 l 1,10,-1
 195 785 l 1,11,-1
 311 1456 l 1,12,-1
 500 1456 l 1,13,-1
 394 847 l 1,0,-1
EndSplineSet
EndChar

StartChar: lslash
Encoding: 322 322 143
Width: 546
GlyphClass: 2
Flags: W
LayerCount: 2
Back
Fore
SplineSet
401 874 m 1,0,-1
 566 934 l 1,1,-1
 542 803 l 1,2,-1
 379 742 l 1,3,-1
 250 0 l 1,4,-1
 68 0 l 1,5,-1
 185 670 l 1,6,-1
 35 616 l 1,7,-1
 58 747 l 1,8,-1
 207 802 l 1,9,-1
 335 1536 l 1,10,-1
 516 1536 l 1,11,-1
 401 874 l 1,0,-1
EndSplineSet
EndChar

StartChar: Eng
Encoding: 330 330 144
Width: 1386
GlyphClass: 2
Flags: W
LayerCount: 2
Back
Fore
SplineSet
1377 1456 m 1,0,-1
 1114 -83 l 1,1,2
 1089 -255 1089 -255 992.5 -349 c 128,-1,3
 896 -443 896 -443 745 -439 c 0,4,5
 692 -439 692 -439 625 -419 c 1,6,-1
 655 -266 l 1,7,8
 711 -283 711 -283 752 -283 c 0,9,10
 884 -283 884 -283 921 -94 c 2,11,-1
 938 0 l 1,12,-1
 438 1138 l 1,13,-1
 240 0 l 1,14,-1
 53 0 l 1,15,-1
 305 1456 l 1,16,-1
 486 1456 l 1,17,-1
 990 320 l 1,18,-1
 1187 1456 l 1,19,-1
 1377 1456 l 1,0,-1
EndSplineSet
EndChar

StartChar: eng
Encoding: 331 331 145
Width: 1135
GlyphClass: 2
Flags: W
LayerCount: 2
Back
Fore
SplineSet
385 1083 m 1,0,-1
 363 928 l 1,1,2
 503 1106 503 1106 694 1102 c 0,3,4
 857 1098 857 1098 933.5 984.5 c 128,-1,5
 1010 871 1010 871 989 682 c 1,6,-1
 864 -89 l 1,7,8
 842 -255 842 -255 746.5 -348 c 128,-1,9
 651 -441 651 -441 501 -439 c 0,10,11
 448 -439 448 -439 381 -419 c 1,12,-1
 412 -263 l 1,13,14
 465 -279 465 -279 511 -279 c 0,15,16
 651 -279 651 -279 683 -82 c 2,17,-1
 807 679 l 2,18,19
 813 733 813 733 810 781 c 0,20,21
 796 941 796 941 632 946 c 0,22,23
 473 950 473 950 360 813 c 1,24,-1
 218 0 l 1,25,-1
 36 0 l 1,26,-1
 224 1082 l 1,27,-1
 385 1083 l 1,0,-1
EndSplineSet
EndChar

StartChar: OE
Encoding: 338 338 146
Width: 1904
GlyphClass: 2
Flags: W
LayerCount: 2
Back
Fore
SplineSet
1650 0 m 1,0,-1
 838 0 l 1,1,-1
 621 -18 l 1,2,-1
 552 -19 l 1,3,4
 400 -15 400 -15 290.5 64 c 128,-1,5
 181 143 181 143 132.5 280 c 128,-1,6
 84 417 84 417 105 576 c 2,7,-1
 152 875 l 2,8,9
 195 1149 195 1149 367.5 1314 c 128,-1,10
 540 1479 540 1479 783 1477 c 1,11,-1
 857 1475 l 1,12,-1
 1068 1456 l 1,13,-1
 1893 1456 l 1,14,-1
 1865 1298 l 1,15,-1
 1164 1298 l 1,16,-1
 1083 830 l 1,17,-1
 1695 830 l 1,18,-1
 1667 673 l 1,19,-1
 1056 673 l 1,20,-1
 966 157 l 1,21,-1
 1678 157 l 1,22,-1
 1650 0 l 1,0,-1
558 133 m 0,23,24
 634 130 634 130 772 143 c 1,25,-1
 981 1311 l 1,26,27
 873 1328 873 1328 778 1328 c 0,28,29
 603 1330 603 1330 485 1208.5 c 128,-1,30
 367 1087 367 1087 334 875 c 2,31,-1
 287 575 l 2,32,33
 277 497 277 497 284 419 c 0,34,35
 294 288 294 288 365 212.5 c 128,-1,36
 436 137 436 137 558 133 c 0,23,24
EndSplineSet
Substitution2: "'c2sc' Capitals to Small Capitals lookup 0 subtable" OE.c2sc
Position2: "'cpsp' Capital Spacing lookup 0 subtable" dx=36 dy=0 dh=72 dv=0
EndChar

StartChar: oe
Encoding: 339 339 147
Width: 1814
GlyphClass: 2
Flags: W
LayerCount: 2
Back
Fore
SplineSet
638 1102 m 0,0,1
 759 1100 759 1100 854 1042 c 128,-1,2
 949 984 949 984 992 885 c 1,3,4
 1170 1106 1170 1106 1387 1103 c 0,5,6
 1512 1101 1512 1101 1600 1038 c 128,-1,7
 1688 975 1688 975 1725 865 c 128,-1,8
 1762 755 1762 755 1745 619 c 1,9,-1
 1726 497 l 1,10,-1
 1034 497 l 1,11,12
 1026 436 1026 436 1032 372 c 0,13,14
 1042 264 1042 264 1100.5 199.5 c 128,-1,15
 1159 135 1159 135 1255 132 c 0,16,17
 1427 126 1427 126 1571 237 c 1,18,-1
 1632 110 l 1,19,20
 1564 45 1564 45 1464 12 c 128,-1,21
 1364 -21 1364 -21 1249 -19 c 0,22,23
 1125 -17 1125 -17 1030.5 39.5 c 128,-1,24
 936 96 936 96 892 191 c 1,25,26
 721 -26 721 -26 477 -20 c 0,27,28
 344 -18 344 -18 250 53 c 128,-1,29
 156 124 156 124 113.5 248.5 c 128,-1,30
 71 373 71 373 87 522 c 2,31,-1
 89 538 l 2,32,33
 125 799 125 799 275.5 953 c 128,-1,34
 426 1107 426 1107 638 1102 c 0,0,1
269 522 m 2,35,36
 262 460 262 460 266 392 c 0,37,38
 271 275 271 275 328.5 203.5 c 128,-1,39
 386 132 386 132 487 129 c 0,40,41
 623 124 623 124 720.5 234 c 128,-1,42
 818 344 818 344 844 531 c 1,43,-1
 846 553 l 1,44,-1
 851 640 l 1,45,46
 851 783 851 783 793.5 865 c 128,-1,47
 736 947 736 947 627 951 c 0,48,49
 487 956 487 956 390.5 840.5 c 128,-1,50
 294 725 294 725 271 544 c 1,51,-1
 269 522 l 2,35,36
1377 951 m 0,52,53
 1276 954 1276 954 1193.5 877 c 128,-1,54
 1111 800 1111 800 1056 649 c 1,55,-1
 1566 648 l 1,56,-1
 1571 676 l 2,57,58
 1579 729 1579 729 1572 778 c 0,59,60
 1559 857 1559 857 1507.5 902.5 c 128,-1,61
 1456 948 1456 948 1377 951 c 0,52,53
EndSplineSet
Substitution2: "'smcp' Lowercase to Small Capitals lookup 1 subtable" OE.c2sc
EndChar

StartChar: longs
Encoding: 383 383 148
Width: 503
GlyphClass: 2
Flags: W
LayerCount: 2
Back
Fore
SplineSet
51 0 m 1,0,-1
 254 1195 l 1,1,2
 276 1366 276 1366 375 1464 c 128,-1,3
 474 1562 474 1562 632 1560 c 0,4,5
 679 1560 679 1560 778 1538 c 1,6,-1
 745 1395 l 1,7,8
 701 1407 701 1407 657 1409 c 0,9,10
 570 1409 570 1409 511.5 1353.5 c 128,-1,11
 453 1298 453 1298 436 1196 c 2,12,-1
 231 0 l 1,13,-1
 51 0 l 1,0,-1
EndSplineSet
EndChar

StartChar: uni018F
Encoding: 399 399 149
Width: 1383
GlyphClass: 2
Flags: W
LayerCount: 2
Back
Fore
SplineSet
591 -20 m 0,0,1
 417 -18 417 -18 298.5 66 c 128,-1,2
 180 150 180 150 130.5 301.5 c 128,-1,3
 81 453 81 453 107 643 c 1,4,-1
 127 767 l 1,5,-1
 1103 764 l 1,6,-1
 1106 776 l 2,7,8
 1127 875 1127 875 1118 971 c 0,9,10
 1103 1127 1103 1127 1008.5 1219.5 c 128,-1,11
 914 1312 914 1312 762 1315 c 0,12,13
 596 1318 596 1318 394 1232 c 1,14,-1
 359 1377 l 1,15,16
 427 1424 427 1424 533 1451 c 128,-1,17
 639 1478 639 1478 768 1475 c 0,18,19
 952 1473 952 1473 1080.5 1383.5 c 128,-1,20
 1209 1294 1209 1294 1265.5 1133 c 128,-1,21
 1322 972 1322 972 1296 774 c 2,22,-1
 1282 675 l 2,23,24
 1251 475 1251 475 1148 311 c 128,-1,25
 1045 147 1045 147 900.5 62 c 128,-1,26
 756 -23 756 -23 591 -20 c 0,0,1
599 137 m 0,27,28
 764 132 764 132 889.5 254.5 c 128,-1,29
 1015 377 1015 377 1086 619 c 1,30,-1
 294 618 l 1,31,-1
 287 583 l 2,32,33
 272 494 272 494 282 414 c 0,34,35
 298 285 298 285 380 212.5 c 128,-1,36
 462 140 462 140 599 137 c 0,27,28
EndSplineSet
EndChar

StartChar: florin
Encoding: 402 402 150
Width: 686
Flags: W
LayerCount: 2
Back
Fore
SplineSet
643 939 m 1,0,-1
 447 939 l 1,1,-1
 290 -89 l 1,2,3
 270 -256 270 -256 176.5 -349 c 128,-1,4
 83 -442 83 -442 -68 -440 c 0,5,6
 -121 -438 -121 -438 -183 -419 c 1,7,-1
 -155 -273 l 1,8,9
 -102 -289 -102 -289 -60 -289 c 0,10,11
 76 -289 76 -289 108 -83 c 2,12,-1
 265 939 l 1,13,-1
 99 939 l 1,14,-1
 121 1082 l 1,15,-1
 287 1082 l 1,16,-1
 301 1195 l 2,17,18
 322 1370 322 1370 421 1466 c 128,-1,19
 520 1562 520 1562 672 1560 c 0,20,21
 723 1560 723 1560 815 1539 c 1,22,-1
 786 1390 l 1,23,24
 731 1402 731 1402 691 1402 c 0,25,26
 511 1402 511 1402 482 1181 c 2,27,-1
 469 1082 l 1,28,-1
 666 1082 l 1,29,-1
 643 939 l 1,0,-1
EndSplineSet
EndChar

StartChar: Ohorn
Encoding: 416 416 151
Width: 1374
GlyphClass: 2
Flags: W
LayerCount: 2
Back
Fore
SplineSet
576 -20 m 0,0,1
 437 -17 437 -17 333 48.5 c 128,-1,2
 229 114 229 114 171.5 236.5 c 128,-1,3
 114 359 114 359 108 515 c 0,4,5
 103 624 103 624 130 791 c 0,6,7
 164 998 164 998 262.5 1158.5 c 128,-1,8
 361 1319 361 1319 499.5 1399 c 128,-1,9
 638 1479 638 1479 805 1476 c 0,10,11
 1034 1472 1034 1472 1168 1319 c 1,12,13
 1268 1329 1268 1329 1325.5 1395.5 c 128,-1,14
 1383 1462 1383 1462 1402 1590 c 1,15,-1
 1563 1591 l 1,16,17
 1528 1261 1528 1261 1244 1195 c 1,18,19
 1270 1090 1270 1090 1275 985 c 0,20,21
 1281 833 1281 833 1242.5 633.5 c 128,-1,22
 1204 434 1204 434 1111.5 285.5 c 128,-1,23
 1019 137 1019 137 883 57 c 128,-1,24
 747 -23 747 -23 576 -20 c 0,0,1
1087 895 m 0,25,26
 1093 1091 1093 1091 1018.5 1199 c 128,-1,27
 944 1307 944 1307 795 1311 c 0,28,29
 605 1316 605 1316 478 1168.5 c 128,-1,30
 351 1021 351 1021 313 763 c 0,31,32
 294 636 294 636 293 564 c 0,33,34
 287 373 287 373 362 259.5 c 128,-1,35
 437 146 437 146 585 142 c 0,36,37
 781 137 781 137 907 288.5 c 128,-1,38
 1033 440 1033 440 1067 694 c 0,39,40
 1085 825 1085 825 1087 895 c 0,25,26
EndSplineSet
EndChar

StartChar: ohorn
Encoding: 417 417 152
Width: 1145
GlyphClass: 2
Flags: W
LayerCount: 2
Back
Fore
SplineSet
642 1103 m 0,0,1
 838 1099 838 1099 959 962 c 1,2,3
 1034 976 1034 976 1075 1025.5 c 128,-1,4
 1116 1075 1116 1075 1135 1200 c 1,5,-1
 1279 1200 l 1,6,7
 1263 1052 1263 1052 1202.5 970 c 128,-1,8
 1142 888 1142 888 1024 856 c 1,9,10
 1042 781 1042 781 1046 706 c 0,11,12
 1056 507 1056 507 985 335.5 c 128,-1,13
 914 164 914 164 780 69.5 c 128,-1,14
 646 -25 646 -25 481 -21 c 0,15,16
 345 -17 345 -17 249.5 54 c 128,-1,17
 154 125 154 125 110 249 c 128,-1,18
 66 373 66 373 82 522 c 1,19,-1
 85 543 l 2,20,21
 119 797 119 797 273 952 c 128,-1,22
 427 1107 427 1107 642 1103 c 0,0,1
259 435 m 0,23,24
 259 295 259 295 319 214.5 c 128,-1,25
 379 134 379 134 489 130 c 0,26,27
 630 125 630 125 730.5 238.5 c 128,-1,28
 831 352 831 352 858 553 c 0,29,30
 865 616 865 616 861 685 c 0,31,32
 852 806 852 806 793 876.5 c 128,-1,33
 734 947 734 947 632 951 c 0,34,35
 522 955 522 955 435 883.5 c 128,-1,36
 348 812 348 812 302.5 688 c 128,-1,37
 257 564 257 564 259 435 c 0,23,24
EndSplineSet
EndChar

StartChar: Uhorn
Encoding: 431 431 153
Width: 1391
GlyphClass: 2
Flags: W
LayerCount: 2
Back
Fore
SplineSet
1318 1456 m 1,0,-1
 1288 1239 l 1,1,2
 1399 1253 1399 1253 1458.5 1323 c 128,-1,3
 1518 1393 1518 1393 1537 1537 c 1,4,-1
 1690 1538 l 1,5,6
 1667 1332 1667 1332 1562 1225 c 128,-1,7
 1457 1118 1457 1118 1265 1107 c 1,8,-1
 1153 470 l 2,9,10
 1131 322 1131 322 1051.5 209.5 c 128,-1,11
 972 97 972 97 844.5 36.5 c 128,-1,12
 717 -24 717 -24 565 -21 c 0,13,14
 347 -17 347 -17 225 118.5 c 128,-1,15
 103 254 103 254 129 470 c 1,16,-1
 297 1456 l 1,17,-1
 482 1456 l 1,18,-1
 315 469 l 1,19,20
 298 314 298 314 367.5 227 c 128,-1,21
 437 140 437 140 577 136 c 0,22,23
 726 132 726 132 830 217 c 128,-1,24
 934 302 934 302 962 459 c 2,25,-1
 1133 1456 l 1,26,-1
 1318 1456 l 1,0,-1
EndSplineSet
EndChar

StartChar: uhorn
Encoding: 432 432 154
Width: 1239
GlyphClass: 2
Flags: W
LayerCount: 2
Back
Fore
SplineSet
1358 1169 m 1,0,1
 1344 1001 1344 1001 1263 922 c 128,-1,2
 1182 843 1182 843 1017 837 c 1,3,-1
 867 0 l 1,4,-1
 696 0 l 1,5,-1
 719 107 l 1,6,7
 594 -24 594 -24 397 -20 c 0,8,9
 241 -16 241 -16 165.5 92 c 128,-1,10
 90 200 90 200 111 383 c 1,11,-1
 227 1082 l 1,12,-1
 408 1082 l 1,13,-1
 291 380 l 2,14,15
 286 336 286 336 289 294 c 0,16,17
 294 222 294 222 332 181 c 128,-1,18
 370 140 370 140 438 137 c 0,19,20
 631 129 631 129 738 294 c 1,21,-1
 874 1082 l 1,22,-1
 1054 1082 l 1,23,-1
 1030 948 l 1,24,25
 1121 955 1121 955 1164.5 997 c 128,-1,26
 1208 1039 1208 1039 1228 1168 c 1,27,-1
 1358 1169 l 1,0,1
EndSplineSet
EndChar

StartChar: uni0237
Encoding: 567 567 155
Width: 510
GlyphClass: 2
Flags: W
LayerCount: 2
Back
Fore
SplineSet
431 1082 m 1,0,-1
 233 -88 l 1,1,2
 211 -254 211 -254 116 -348 c 128,-1,3
 21 -442 21 -442 -131 -440 c 0,4,5
 -185 -438 -185 -438 -247 -419 c 1,6,-1
 -217 -273 l 1,7,8
 -164 -289 -164 -289 -122 -289 c 0,9,10
 16 -289 16 -289 52 -78 c 2,11,-1
 250 1082 l 1,12,-1
 431 1082 l 1,0,-1
EndSplineSet
EndChar

StartChar: uni0259
Encoding: 601 601 156
Width: 1057
GlyphClass: 2
Flags: W
LayerCount: 2
Back
Fore
SplineSet
583 1102 m 1,0,1
 717 1100 717 1100 811 1030 c 128,-1,2
 905 960 905 960 948 837 c 128,-1,3
 991 714 991 714 976 565 c 2,4,-1
 972 529 l 2,5,6
 955 379 955 379 880.5 250.5 c 128,-1,7
 806 122 806 122 691.5 49.5 c 128,-1,8
 577 -23 577 -23 447 -19 c 0,9,10
 254 -13 254 -13 158 119 c 128,-1,11
 62 251 62 251 88 463 c 1,12,-1
 106 584 l 1,13,-1
 797 584 l 1,14,15
 805 645 805 645 799 709 c 0,16,17
 789 818 789 818 731 882.5 c 128,-1,18
 673 947 673 947 577 950 c 0,19,20
 408 956 408 956 261 845 c 1,21,-1
 200 971 l 1,22,23
 323 1090 323 1090 534 1101 c 1,24,-1
 583 1102 l 1,0,1
456 131 m 0,25,26
 556 128 556 128 638.5 205 c 128,-1,27
 721 282 721 282 776 433 c 1,28,-1
 267 434 l 1,29,-1
 261 406 l 2,30,31
 253 353 253 353 261 304 c 0,32,33
 272 226 272 226 324.5 179 c 128,-1,34
 377 132 377 132 456 131 c 0,25,26
EndSplineSet
EndChar

StartChar: circumflex
Encoding: 710 710 157
Width: 945
Flags: W
LayerCount: 2
Back
Fore
SplineSet
868 1264 m 1,0,-1
 868 1250 l 1,1,-1
 721 1252 l 1,2,-1
 608 1421 l 1,3,-1
 432 1253 l 1,4,-1
 279 1250 l 1,5,-1
 279 1266 l 1,6,-1
 557 1536 l 1,7,-1
 663 1536 l 1,8,-1
 868 1264 l 1,0,-1
EndSplineSet
EndChar

StartChar: caron
Encoding: 711 711 158
Width: 892
Flags: W
LayerCount: 2
Back
Fore
SplineSet
559 1366 m 1,0,-1
 736 1534 l 1,1,-1
 895 1537 l 1,2,-1
 896 1524 l 1,3,-1
 610 1251 l 1,4,-1
 500 1251 l 1,5,-1
 294 1523 l 1,6,-1
 294 1537 l 1,7,-1
 444 1535 l 1,8,-1
 559 1366 l 1,0,-1
EndSplineSet
EndChar

StartChar: breve
Encoding: 728 728 160
Width: 858
Flags: W
LayerCount: 2
Back
Fore
SplineSet
844 1495 m 1,0,1
 832 1370 832 1370 746.5 1296.5 c 128,-1,2
 661 1223 661 1223 533 1227 c 0,3,4
 410 1229 410 1229 336.5 1302 c 128,-1,5
 263 1375 263 1375 265 1496 c 1,6,-1
 412 1495 l 1,7,8
 405 1349 405 1349 534 1345 c 0,9,10
 605 1344 605 1344 646 1386.5 c 128,-1,11
 687 1429 687 1429 699 1494 c 1,12,-1
 844 1495 l 1,0,1
EndSplineSet
EndChar

StartChar: dotaccent
Encoding: 729 729 161
Width: 492
Flags: W
LayerCount: 2
Back
Fore
SplineSet
270 1364 m 0,0,1
 270 1411 270 1411 299 1442 c 128,-1,2
 328 1473 328 1473 376 1475 c 0,3,4
 422 1477 422 1477 452.5 1447.5 c 128,-1,5
 483 1418 483 1418 483 1370 c 0,6,7
 482 1323 482 1323 452.5 1293 c 128,-1,8
 423 1263 423 1263 376 1261 c 0,9,10
 332 1259 332 1259 301 1287.5 c 128,-1,11
 270 1316 270 1316 270 1364 c 0,0,1
EndSplineSet
EndChar

StartChar: ring
Encoding: 730 730 162
Width: 674
Flags: W
LayerCount: 2
Back
Fore
SplineSet
259 1400 m 0,0,1
 261 1491 261 1491 325.5 1554 c 128,-1,2
 390 1617 390 1617 479 1617 c 0,3,4
 561 1617 561 1617 618.5 1559 c 128,-1,5
 676 1501 676 1501 676 1416 c 0,6,7
 674 1327 674 1327 609.5 1265 c 128,-1,8
 545 1203 545 1203 456 1203 c 0,9,10
 372 1203 372 1203 314.5 1260 c 128,-1,11
 257 1317 257 1317 259 1400 c 0,0,1
355 1402 m 0,12,13
 351 1356 351 1356 378 1324.5 c 128,-1,14
 405 1293 405 1293 448 1293 c 0,15,16
 494 1293 494 1293 533.5 1328.5 c 128,-1,17
 573 1364 573 1364 579 1414 c 0,18,19
 585 1460 585 1460 557 1493 c 128,-1,20
 529 1526 529 1526 487 1526 c 0,21,22
 441 1526 441 1526 401 1489.5 c 128,-1,23
 361 1453 361 1453 355 1402 c 0,12,13
EndSplineSet
EndChar

StartChar: ogonek
Encoding: 731 731 163
Width: 547
GlyphClass: 4
Flags: W
LayerCount: 2
Back
Fore
SplineSet
278 -3 m 1,0,-1
 213 -50 l 2,1,2
 91 -140 91 -140 82 -229 c 0,3,4
 75 -292 75 -292 140 -294 c 0,5,6
 172 -295 172 -295 239 -269 c 1,7,-1
 243 -390 l 1,8,9
 175 -433 175 -433 92 -433 c 0,10,11
 14 -433 14 -433 -33.5 -382.5 c 128,-1,12
 -81 -332 -81 -332 -79 -250 c 0,13,14
 -76 -73 -76 -73 202 57 c 1,15,-1
 278 -3 l 1,0,-1
EndSplineSet
EndChar

StartChar: tilde
Encoding: 732 732 164
Width: 947
Flags: W
LayerCount: 2
Back
Fore
SplineSet
942 1501 m 1,0,1
 930 1390 930 1390 869 1323 c 128,-1,2
 808 1256 808 1256 715 1256 c 0,3,4
 678 1256 678 1256 647.5 1271.5 c 128,-1,5
 617 1287 617 1287 587 1306 c 128,-1,6
 557 1325 557 1325 526 1340 c 128,-1,7
 495 1355 495 1355 459 1354 c 0,8,9
 374 1351 374 1351 343 1242 c 1,10,-1
 221 1249 l 1,11,12
 233 1359 233 1359 295.5 1429 c 128,-1,13
 358 1499 358 1499 451 1497 c 0,14,15
 478 1497 478 1497 501.5 1488.5 c 128,-1,16
 525 1480 525 1480 578 1447.5 c 128,-1,17
 631 1415 631 1415 655.5 1406 c 128,-1,18
 680 1397 680 1397 707 1398 c 0,19,20
 793 1398 793 1398 825 1511 c 1,21,-1
 942 1501 l 1,0,1
EndSplineSet
EndChar

StartChar: hungarumlaut
Encoding: 733 733 165
Width: 751
Flags: W
LayerCount: 2
Back
Fore
SplineSet
742 1535 m 1,0,-1
 958 1535 l 1,1,-1
 644 1232 l 1,2,-1
 465 1232 l 1,3,-1
 742 1535 l 1,0,-1
413 1535 m 1,4,-1
 618 1535 l 1,5,-1
 353 1232 l 1,6,-1
 194 1232 l 1,7,-1
 413 1535 l 1,4,-1
EndSplineSet
EndChar

StartChar: uni02F3
Encoding: 755 755 166
Width: 594
Flags: W
LayerCount: 2
Back
Fore
SplineSet
-23 -249 m 0,0,1
 -23 -176 -23 -176 29 -125 c 128,-1,2
 81 -74 81 -74 151 -74 c 0,3,4
 219 -74 219 -74 264 -121.5 c 128,-1,5
 309 -169 309 -169 309 -236 c 0,6,7
 309 -307 309 -307 259.5 -356.5 c 128,-1,8
 210 -406 210 -406 140 -406 c 0,9,10
 71 -406 71 -406 24 -361.5 c 128,-1,11
 -23 -317 -23 -317 -23 -249 c 0,0,1
61 -247 m 0,12,13
 57 -278 57 -278 77 -301.5 c 128,-1,14
 97 -325 97 -325 129 -325 c 0,15,16
 160 -325 160 -325 189.5 -300.5 c 128,-1,17
 219 -276 219 -276 226 -237 c 0,18,19
 230 -204 230 -204 211 -180 c 128,-1,20
 192 -156 192 -156 162 -156 c 0,21,22
 125 -156 125 -156 96 -184.5 c 128,-1,23
 67 -213 67 -213 61 -247 c 0,12,13
EndSplineSet
EndChar

StartChar: gravecomb
Encoding: 768 768 167
Width: 10
GlyphClass: 4
Flags: W
LayerCount: 2
Back
Fore
SplineSet
-321 1240 m 1,0,-1
 -463 1240 l 1,1,-1
 -662 1534 l 1,2,-1
 -458 1534 l 1,3,-1
 -321 1240 l 1,0,-1
EndSplineSet
EndChar

StartChar: acutecomb
Encoding: 769 769 168
Width: 10
GlyphClass: 4
Flags: W
LayerCount: 2
Back
Fore
SplineSet
-295 1534 m 1,0,-1
 -62 1533 l 1,1,-1
 -374 1240 l 1,2,-1
 -533 1240 l 1,3,-1
 -295 1534 l 1,0,-1
EndSplineSet
EndChar

StartChar: hookabovecomb
Encoding: 777 777 170
Width: 10
GlyphClass: 4
Flags: W
LayerCount: 2
Back
Fore
SplineSet
-523 1241 m 1,0,-1
 -501 1394 l 1,1,-1
 -460 1398 l 2,2,3
 -353 1408 -353 1408 -343 1474 c 0,4,5
 -332 1545 -332 1545 -487 1545 c 1,6,-1
 -472 1651 l 1,7,8
 -342 1648 -342 1648 -272 1600 c 128,-1,9
 -202 1552 -202 1552 -205 1471 c 0,10,11
 -212 1341 -212 1341 -374 1312 c 1,12,-1
 -386 1240 l 1,13,-1
 -523 1241 l 1,0,-1
EndSplineSet
EndChar

StartChar: uni030F
Encoding: 783 783 171
Width: 10
GlyphClass: 4
Flags: W
LayerCount: 2
Back
Fore
SplineSet
-374 1252 m 1,0,-1
 -554 1252 l 1,1,-1
 -805 1518 l 1,2,-1
 -571 1518 l 1,3,-1
 -374 1252 l 1,0,-1
-122 1252 m 1,4,-1
 -281 1252 l 1,5,-1
 -474 1518 l 1,6,-1
 -260 1518 l 1,7,-1
 -122 1252 l 1,4,-1
EndSplineSet
EndChar

StartChar: dotbelowcomb
Encoding: 803 803 172
Width: 490
GlyphClass: 4
Flags: W
LayerCount: 2
Back
Fore
SplineSet
-837 -248 m 0,0,1
 -836 -201 -836 -201 -807 -170 c 128,-1,2
 -778 -139 -778 -139 -731 -137 c 0,3,4
 -685 -135 -685 -135 -654.5 -164.5 c 128,-1,5
 -624 -194 -624 -194 -624 -242 c 0,6,7
 -625 -289 -625 -289 -654.5 -319 c 128,-1,8
 -684 -349 -684 -349 -731 -351 c 0,9,10
 -775 -353 -775 -353 -806 -324.5 c 128,-1,11
 -837 -296 -837 -296 -837 -248 c 0,0,1
EndSplineSet
EndChar

StartChar: tonos
Encoding: 900 900 173
Width: 519
Flags: W
LayerCount: 2
Back
Fore
SplineSet
401 1599 m 1,0,-1
 577 1599 l 1,1,-1
 405 1262 l 1,2,-1
 289 1262 l 1,3,-1
 401 1599 l 1,0,-1
EndSplineSet
EndChar

StartChar: dieresistonos
Encoding: 901 901 174
Width: 1014
Flags: W
LayerCount: 2
Back
Fore
SplineSet
650 1672 m 1,0,-1
 840 1672 l 1,1,-1
 695 1408 l 1,2,-1
 557 1408 l 1,3,-1
 650 1672 l 1,0,-1
243 1368 m 0,4,5
 244 1415 244 1415 273 1445.5 c 128,-1,6
 302 1476 302 1476 349 1478 c 128,-1,7
 396 1480 396 1480 426 1450 c 128,-1,8
 456 1420 456 1420 456 1374 c 0,9,10
 456 1327 456 1327 426 1297 c 128,-1,11
 396 1267 396 1267 349 1265 c 0,12,13
 305 1263 305 1263 274 1291.5 c 128,-1,14
 243 1320 243 1320 243 1368 c 0,4,5
899 1477 m 0,15,16
 943 1479 943 1479 974.5 1449 c 128,-1,17
 1006 1419 1006 1419 1006 1372 c 0,18,19
 1005 1325 1005 1325 975 1295 c 128,-1,20
 945 1265 945 1265 899 1263 c 0,21,22
 852 1261 852 1261 822 1290 c 128,-1,23
 792 1319 792 1319 793 1366 c 128,-1,24
 794 1413 794 1413 823 1444 c 128,-1,25
 852 1475 852 1475 899 1477 c 0,15,16
EndSplineSet
EndChar

StartChar: Gamma
Encoding: 915 915 176
Width: 1115
GlyphClass: 2
Flags: W
LayerCount: 2
Back
Fore
SplineSet
1161 1298 m 1,0,-1
 481 1298 l 1,1,-1
 256 0 l 1,2,-1
 67 0 l 1,3,-1
 320 1456 l 1,4,-1
 1189 1456 l 1,5,-1
 1161 1298 l 1,0,-1
EndSplineSet
Substitution2: "'c2sc' Capitals to Small Capitals lookup 0 subtable" Gamma.c2sc
Position2: "'cpsp' Capital Spacing lookup 0 subtable" dx=36 dy=0 dh=72 dv=0
EndChar

StartChar: uni0394
Encoding: 916 916 177
AltUni2: 002206.ffffffff.0
Width: 1411
Flags: W
LayerCount: 2
Back
Fore
SplineSet
770 1456 m 1,0,-1
 937 1456 l 1,1,-1
 1246 0 l 1,2,-1
 -79 0 l 1,3,-1
 770 1456 l 1,0,-1
212 157 m 1,4,-1
 1030 157 l 1,5,-1
 818 1219 l 1,6,-1
 212 157 l 1,4,-1
EndSplineSet
Substitution2: "'c2sc' Capitals to Small Capitals lookup 0 subtable" uni0394.c2sc
Position2: "'cpsp' Capital Spacing lookup 0 subtable" dx=36 dy=0 dh=72 dv=0
EndChar

StartChar: Theta
Encoding: 920 920 178
Width: 1361
Flags: W
LayerCount: 2
Back
Fore
SplineSet
943 659 m 1,0,-1
 440 659 l 1,1,-1
 467 811 l 1,2,-1
 970 811 l 1,3,-1
 943 659 l 1,0,-1
578 -20 m 0,4,5
 367 -16 367 -16 243.5 127.5 c 128,-1,6
 120 271 120 271 110 515 c 0,7,8
 105 613 105 613 129 774 c 128,-1,9
 153 935 153 935 219 1075 c 0,10,11
 312 1271 312 1271 464 1375.5 c 128,-1,12
 616 1480 616 1480 806 1476 c 0,13,14
 1018 1472 1018 1472 1141 1329.5 c 128,-1,15
 1264 1187 1264 1187 1273 940 c 0,16,17
 1276 856 1276 856 1266 773 c 2,18,-1
 1254 689 l 2,19,20
 1223 472 1223 472 1126 307 c 128,-1,21
 1029 142 1029 142 888.5 59.5 c 128,-1,22
 748 -23 748 -23 578 -20 c 0,4,5
1088 894 m 0,23,24
 1092 1017 1092 1017 1062 1112.5 c 128,-1,25
 1032 1208 1032 1208 964 1258.5 c 128,-1,26
 896 1309 896 1309 797 1312 c 0,27,28
 604 1317 604 1317 476 1164 c 128,-1,29
 348 1011 348 1011 312 747 c 0,30,31
 296 631 296 631 295 564 c 0,32,33
 289 372 289 372 364 259.5 c 128,-1,34
 439 147 439 147 587 143 c 0,35,36
 773 136 773 136 898.5 277.5 c 128,-1,37
 1024 419 1024 419 1065 676 c 0,38,39
 1085 802 1085 802 1088 894 c 0,23,24
EndSplineSet
Substitution2: "'c2sc' Capitals to Small Capitals lookup 0 subtable" Theta.c2sc
Position2: "'cpsp' Capital Spacing lookup 0 subtable" dx=36 dy=0 dh=72 dv=0
EndChar

StartChar: Lambda
Encoding: 923 923 179
Width: 1312
Flags: W
LayerCount: 2
Back
Fore
SplineSet
748 1159 m 1,0,-1
 149 0 l 1,1,-1
 -60 0 l 1,2,-1
 707 1456 l 1,3,-1
 875 1456 l 1,4,-1
 1137 0 l 1,5,-1
 943 0 l 1,6,-1
 748 1159 l 1,0,-1
EndSplineSet
Substitution2: "'c2sc' Capitals to Small Capitals lookup 0 subtable" Lambda.c2sc
Position2: "'cpsp' Capital Spacing lookup 0 subtable" dx=36 dy=0 dh=72 dv=0
EndChar

StartChar: Xi
Encoding: 926 926 180
Width: 1144
Flags: W
LayerCount: 2
Back
Fore
SplineSet
40 157 m 1,0,-1
 950 157 l 1,1,-1
 922 0 l 1,2,-1
 12 0 l 1,3,-1
 40 157 l 1,0,-1
241 831 m 1,4,-1
 973 831 l 1,5,-1
 946 674 l 1,6,-1
 213 674 l 1,7,-1
 241 831 l 1,4,-1
269 1456 m 1,8,-1
 1158 1456 l 1,9,-1
 1130 1298 l 1,10,-1
 240 1298 l 1,11,-1
 269 1456 l 1,8,-1
EndSplineSet
Substitution2: "'c2sc' Capitals to Small Capitals lookup 0 subtable" Xi.c2sc
Position2: "'cpsp' Capital Spacing lookup 0 subtable" dx=36 dy=0 dh=72 dv=0
EndChar

StartChar: Pi
Encoding: 928 928 181
Width: 1427
Flags: W
LayerCount: 2
Back
Fore
SplineSet
1139 0 m 1,0,-1
 951 0 l 1,1,-1
 1176 1298 l 1,2,-1
 481 1298 l 1,3,-1
 256 0 l 1,4,-1
 68 0 l 1,5,-1
 321 1456 l 1,6,-1
 1392 1456 l 1,7,-1
 1139 0 l 1,0,-1
EndSplineSet
Substitution2: "'c2sc' Capitals to Small Capitals lookup 0 subtable" Pi.c2sc
Position2: "'cpsp' Capital Spacing lookup 0 subtable" dx=36 dy=0 dh=72 dv=0
EndChar

StartChar: Sigma
Encoding: 931 931 182
Width: 1144
Flags: W
LayerCount: 2
Back
Fore
SplineSet
754 720 m 1,0,-1
 231 157 l 1,1,-1
 984 157 l 1,2,-1
 956 0 l 1,3,-1
 -38 0 l 1,4,-1
 -11 152 l 1,5,-1
 557 738 l 1,6,-1
 191 1321 l 1,7,-1
 215 1456 l 1,8,-1
 1161 1456 l 1,9,-1
 1133 1298 l 1,10,-1
 416 1298 l 1,11,-1
 756 744 l 1,12,-1
 754 720 l 1,0,-1
EndSplineSet
Substitution2: "'c2sc' Capitals to Small Capitals lookup 0 subtable" Sigma.c2sc
Position2: "'cpsp' Capital Spacing lookup 0 subtable" dx=36 dy=0 dh=72 dv=0
EndChar

StartChar: Phi
Encoding: 934 934 183
Width: 1433
Flags: W
LayerCount: 2
Back
Fore
SplineSet
571 334 m 1,0,-1
 718 1114 l 1,1,-1
 716 1114 l 1,2,3
 616 1131 616 1131 524 1083.5 c 128,-1,4
 432 1036 432 1036 365.5 932.5 c 128,-1,5
 299 829 299 829 285 714 c 0,6,7
 264 550 264 550 336 447.5 c 128,-1,8
 408 345 408 345 564 334 c 1,9,-1
 571 334 l 1,0,-1
906 1112 m 1,10,-1
 758 333 l 1,11,-1
 761 332 l 1,12,13
 859 319 859 319 950.5 364.5 c 128,-1,14
 1042 410 1042 410 1108 509.5 c 128,-1,15
 1174 609 1174 609 1191 732 c 0,16,17
 1212 900 1212 900 1139 1000.5 c 128,-1,18
 1066 1101 1066 1101 912 1112 c 1,19,-1
 906 1112 l 1,10,-1
554 176 m 1,20,21
 421 175 421 175 308 246 c 128,-1,22
 195 317 195 317 139.5 441.5 c 128,-1,23
 84 566 84 566 99 714 c 0,24,25
 114 869 114 869 199.5 997.5 c 128,-1,26
 285 1126 285 1126 423.5 1199.5 c 128,-1,27
 562 1273 562 1273 720 1271 c 2,28,-1
 733 1271 l 1,29,-1
 772 1456 l 1,30,-1
 958 1455 l 1,31,-1
 917 1271 l 1,32,33
 1055 1271 1055 1271 1168 1200 c 128,-1,34
 1281 1129 1281 1129 1336.5 1004.5 c 128,-1,35
 1392 880 1392 880 1377 732 c 0,36,37
 1361 576 1361 576 1274.5 446 c 128,-1,38
 1188 316 1188 316 1045.5 242.5 c 128,-1,39
 903 169 903 169 750 175 c 1,40,-1
 744 175 l 1,41,-1
 708 0 l 1,42,-1
 518 0 l 1,43,-1
 554 176 l 1,44,-1
 554 176 l 1,20,21
EndSplineSet
Substitution2: "'c2sc' Capitals to Small Capitals lookup 0 subtable" Phi.c2sc
Position2: "'cpsp' Capital Spacing lookup 0 subtable" dx=36 dy=0 dh=72 dv=0
EndChar

StartChar: Psi
Encoding: 936 936 184
Width: 1384
Flags: W
LayerCount: 2
Back
Fore
SplineSet
767 520 m 1,0,1
 923 545 923 545 1025.5 650.5 c 128,-1,2
 1128 756 1128 756 1157 919 c 2,3,-1
 1249 1456 l 1,4,-1
 1437 1456 l 1,5,-1
 1344 907 l 2,6,7
 1301 672 1301 672 1142.5 528.5 c 128,-1,8
 984 385 984 385 745 362 c 1,9,-1
 677 0 l 1,10,-1
 488 0 l 1,11,-1
 557 364 l 1,12,13
 349 394 349 394 241.5 549 c 128,-1,14
 134 704 134 704 161 930 c 1,15,-1
 249 1456 l 1,16,-1
 437 1456 l 1,17,-1
 348 929 l 2,18,19
 339 860 339 860 346 795 c 0,20,21
 356 689 356 689 415.5 618.5 c 128,-1,22
 475 548 475 548 575 524 c 1,23,-1
 741 1456 l 1,24,-1
 930 1456 l 1,25,-1
 767 520 l 1,0,1
EndSplineSet
Substitution2: "'c2sc' Capitals to Small Capitals lookup 0 subtable" Psi.c2sc
Position2: "'cpsp' Capital Spacing lookup 0 subtable" dx=36 dy=0 dh=72 dv=0
EndChar

StartChar: uni03A9
Encoding: 937 937 185
AltUni2: 002126.ffffffff.0
Width: 1331
GlyphClass: 2
Flags: W
LayerCount: 2
Back
Fore
SplineSet
635 161 m 1,0,1
 787 194 787 194 886 334 c 128,-1,2
 985 474 985 474 1023 721 c 2,3,-1
 1040 842 l 1,4,-1
 1048 949 l 1,5,6
 1051 1119 1051 1119 982 1217 c 128,-1,7
 913 1315 913 1315 777 1319 c 0,8,9
 609 1324 609 1324 494 1199.5 c 128,-1,10
 379 1075 379 1075 342.5 855.5 c 128,-1,11
 306 636 306 636 310 510 c 0,12,13
 313 361 313 361 365.5 273.5 c 128,-1,14
 418 186 418 186 513 162 c 1,15,-1
 488 0 l 1,16,-1
 10 0 l 1,17,-1
 38 157 l 1,18,-1
 252 159 l 1,19,20
 91 418 91 418 132 726 c 1,21,-1
 152 858 l 2,22,23
 182 1038 182 1038 272.5 1182.5 c 128,-1,24
 363 1327 363 1327 495 1403 c 128,-1,25
 627 1479 627 1479 785 1476 c 0,26,27
 912 1473 912 1473 1011 1414 c 128,-1,28
 1110 1355 1110 1355 1168 1243.5 c 128,-1,29
 1226 1132 1226 1132 1235 993 c 0,30,31
 1242 889 1242 889 1211.5 711 c 128,-1,32
 1181 533 1181 533 1092 383 c 0,33,34
 1012 248 1012 248 893 154 c 1,35,-1
 1109 157 l 1,36,-1
 1081 0 l 1,37,-1
 610 0 l 1,38,-1
 635 161 l 1,0,1
EndSplineSet
Substitution2: "'c2sc' Capitals to Small Capitals lookup 0 subtable" uni03A9.c2sc
Position2: "'cpsp' Capital Spacing lookup 0 subtable" dx=36 dy=0 dh=72 dv=0
EndChar

StartChar: alpha
Encoding: 945 945 186
Width: 1132
GlyphClass: 2
Flags: W
LayerCount: 2
Back
Fore
SplineSet
1074 1082 m 1,0,-1
 942 293 l 2,1,2
 934 235 934 235 938 206 c 0,3,4
 943 150 943 150 985 148 c 2,5,-1
 1002 148 l 1,6,-1
 1018 151 l 1,7,-1
 1028 12 l 1,8,9
 975 -20 975 -20 914 -19 c 0,10,11
 774 -15 774 -15 758 144 c 1,12,13
 620 -25 620 -25 428 -21 c 0,14,15
 253 -18 253 -18 162.5 124 c 128,-1,16
 72 266 72 266 95 497 c 1,17,-1
 106 572 l 1,18,19
 150 821 150 821 278.5 964.5 c 128,-1,20
 407 1108 407 1108 592 1103 c 0,21,22
 784 1097 784 1097 872 940 c 1,23,-1
 919 1082 l 1,24,-1
 1074 1082 l 1,0,-1
277 493 m 1,25,-1
 272 412 l 1,26,27
 269 280 269 280 323.5 205 c 128,-1,28
 378 130 378 130 480 128 c 0,29,30
 644 125 644 125 761 315 c 1,31,-1
 837 764 l 1,32,33
 781 943 781 943 627 950 c 0,34,35
 487 955 487 955 396 836.5 c 128,-1,36
 305 718 305 718 279 514 c 1,37,-1
 277 493 l 1,25,-1
EndSplineSet
Substitution2: "'ss02' Style Set 2 lookup 11 subtable" alpha.ss02
EndChar

StartChar: beta
Encoding: 946 946 187
Width: 1187
Flags: W
LayerCount: 2
Back
Fore
SplineSet
722 1476 m 0,0,1
 894 1472 894 1472 997 1364.5 c 128,-1,2
 1100 1257 1100 1257 1086 1091 c 0,3,4
 1069 903 1069 903 855 789 c 1,5,6
 949 743 949 743 997 650 c 128,-1,7
 1045 557 1045 557 1036 432 c 0,8,9
 1020 229 1020 229 879 102 c 128,-1,10
 738 -25 738 -25 535 -21 c 0,11,12
 363 -17 363 -17 252 76 c 1,13,-1
 166 -384 l 1,14,-1
 -16 -384 l 1,15,-1
 233 1073 l 2,16,17
 250 1187 250 1187 319.5 1280 c 128,-1,18
 389 1373 389 1373 497 1426 c 128,-1,19
 605 1479 605 1479 722 1476 c 0,0,1
618 856 m 2,20,21
 740 858 740 858 817 922.5 c 128,-1,22
 894 987 894 987 905 1096 c 0,23,24
 915 1193 915 1193 862.5 1257.5 c 128,-1,25
 810 1322 810 1322 712 1326 c 0,26,27
 604 1328 604 1328 519.5 1256.5 c 128,-1,28
 435 1185 435 1185 416 1074 c 2,29,-1
 274 245 l 1,30,31
 315 186 315 186 383 158 c 128,-1,32
 451 130 451 130 524 130 c 0,33,34
 655 128 655 128 748 211.5 c 128,-1,35
 841 295 841 295 857 428 c 0,36,37
 871 541 871 541 819 620.5 c 128,-1,38
 767 700 767 700 670 705 c 1,39,-1
 519 706 l 1,40,-1
 546 857 l 1,41,-1
 618 856 l 2,20,21
EndSplineSet
EndChar

StartChar: gamma
Encoding: 947 947 188
Width: 1005
Flags: W
LayerCount: 2
Back
Fore
SplineSet
446 278 m 1,0,-1
 858 1082 l 1,1,-1
 1050 1082 l 1,2,-1
 498 46 l 1,3,-1
 418 -416 l 1,4,-1
 237 -416 l 1,5,-1
 322 75 l 1,6,-1
 132 1082 l 1,7,-1
 309 1082 l 1,8,-1
 446 278 l 1,0,-1
EndSplineSet
EndChar

StartChar: delta
Encoding: 948 948 189
Width: 1135
Flags: W
LayerCount: 2
Back
Fore
SplineSet
335 1261 m 0,0,1
 342 1403 342 1403 455 1485.5 c 128,-1,2
 568 1568 568 1568 738 1566 c 0,3,4
 860 1564 860 1564 1004 1509 c 1,5,-1
 984 1348 l 1,6,7
 854 1411 854 1411 728 1409 c 0,8,9
 643 1409 643 1409 584.5 1370 c 128,-1,10
 526 1331 526 1331 516 1267 c 0,11,12
 501 1174 501 1174 644 1109 c 2,13,-1
 697 1085 l 1,14,15
 878 1010 878 1010 960.5 868.5 c 128,-1,16
 1043 727 1043 727 1023 533 c 1,17,-1
 1020 512 l 2,18,19
 987 266 987 266 837 120.5 c 128,-1,20
 687 -25 687 -25 477 -20 c 0,21,22
 342 -16 342 -16 247.5 52 c 128,-1,23
 153 120 153 120 110 240 c 128,-1,24
 67 360 67 360 81 506 c 1,25,-1
 84 528 l 2,26,27
 107 707 107 707 215.5 833.5 c 128,-1,28
 324 960 324 960 487 991 c 1,29,-1
 490 1004 l 1,30,31
 414 1041 414 1041 372 1108 c 128,-1,32
 330 1175 330 1175 335 1261 c 0,0,1
265 502 m 0,33,34
 258 440 258 440 263 375 c 0,35,36
 274 235 274 235 361 168 c 0,37,38
 409 131 409 131 486 129 c 0,39,40
 619 124 619 124 715 227 c 128,-1,41
 811 330 811 330 841 532 c 1,42,43
 856 669 856 669 794.5 782 c 128,-1,44
 733 895 733 895 624 910 c 0,45,46
 489 928 489 928 391 812.5 c 128,-1,47
 293 697 293 697 265 502 c 0,33,34
EndSplineSet
EndChar

StartChar: epsilon
Encoding: 949 949 190
Width: 1081
GlyphClass: 2
Flags: W
LayerCount: 2
Back
Fore
SplineSet
517 479 m 2,0,1
 393 479 393 479 318.5 432 c 128,-1,2
 244 385 244 385 234 296 c 0,3,4
 225 222 225 222 287 176 c 128,-1,5
 349 130 349 130 455 127 c 0,6,7
 562 125 562 125 646 178.5 c 128,-1,8
 730 232 730 232 747 319 c 1,9,-1
 928 320 l 1,10,11
 912 162 912 162 778 68.5 c 128,-1,12
 644 -25 644 -25 448 -20 c 0,13,14
 309 -18 309 -18 205 36 c 0,15,16
 41 122 41 122 51 295 c 0,17,18
 61 479 61 479 292 561 c 1,19,20
 226 595 226 595 187.5 653 c 128,-1,21
 149 711 149 711 153 778 c 0,22,23
 159 917 159 917 268 1003.5 c 128,-1,24
 377 1090 377 1090 565 1100 c 1,25,-1
 610 1101 l 1,26,27
 784 1096 784 1096 890.5 1008 c 128,-1,28
 997 920 997 920 994 779 c 1,29,-1
 816 780 l 1,30,31
 818 855 818 855 760.5 901.5 c 128,-1,32
 703 948 703 948 604 951 c 0,33,34
 496 951 496 951 420 905.5 c 128,-1,35
 344 860 344 860 332 779 c 0,36,37
 313 633 313 633 521 627 c 1,38,-1
 733 626 l 1,39,-1
 706 478 l 1,40,-1
 517 479 l 2,0,1
EndSplineSet
EndChar

StartChar: zeta
Encoding: 950 950 191
Width: 1039
Flags: W
LayerCount: 2
Back
Fore
SplineSet
1084 1456 m 1,0,-1
 1061 1327 l 1,1,-1
 596 847 l 1,2,-1
 554 802 l 2,3,4
 356 587 356 587 331 379 c 0,5,6
 321 304 321 304 341.5 251.5 c 128,-1,7
 362 199 362 199 436 172 c 2,8,-1
 641 103 l 2,9,10
 780 53 780 53 770 -79 c 0,11,12
 760 -231 760 -231 562 -384 c 1,13,-1
 470 -295 l 1,14,-1
 504 -259 l 2,15,16
 582 -175 582 -175 592 -107 c 0,17,18
 600 -49 600 -49 505 -17 c 2,19,-1
 394 16 l 2,20,21
 256 59 256 59 193 144.5 c 128,-1,22
 130 230 130 230 146 374 c 0,23,24
 174 642 174 642 496 972 c 1,25,-1
 838 1304 l 1,26,-1
 227 1304 l 1,27,-1
 254 1456 l 1,28,-1
 1084 1456 l 1,0,-1
EndSplineSet
EndChar

StartChar: eta
Encoding: 951 951 192
Width: 1135
GlyphClass: 2
Flags: W
LayerCount: 2
Back
Fore
SplineSet
386 1083 m 1,0,-1
 365 946 l 1,1,2
 507 1106 507 1106 694 1102 c 0,3,4
 860 1098 860 1098 935.5 992.5 c 128,-1,5
 1011 887 1011 887 990 694 c 1,6,-1
 803 -415 l 1,7,-1
 622 -415 l 1,8,-1
 809 691 l 2,9,10
 815 745 815 745 811 792 c 0,11,12
 798 948 798 948 633 951 c 0,13,14
 464 955 464 955 354 786 c 1,15,-1
 218 0 l 1,16,-1
 36 0 l 1,17,-1
 224 1082 l 1,18,-1
 386 1083 l 1,0,-1
EndSplineSet
EndChar

StartChar: theta
Encoding: 952 952 193
Width: 1141
Flags: W
LayerCount: 2
Back
Fore
SplineSet
476 -20 m 0,0,1
 355 -17 355 -17 272.5 46 c 128,-1,2
 190 109 190 109 152.5 227.5 c 128,-1,3
 115 346 115 346 119 497 c 0,4,5
 122 612 122 612 161 851 c 128,-1,6
 200 1090 200 1090 298 1249 c 0,7,8
 442 1482 442 1482 701 1476 c 0,9,10
 883 1472 883 1472 975 1339 c 128,-1,11
 1067 1206 1067 1206 1061 969 c 0,12,13
 1059 894 1059 894 1050 825 c 2,14,-1
 1022 642 l 2,15,16
 971 311 971 311 831.5 142 c 128,-1,17
 692 -27 692 -27 476 -20 c 0,0,1
329 800 m 1,18,-1
 865 800 l 1,19,-1
 874 857 l 2,20,21
 889 971 889 971 887 1045 c 0,22,23
 876 1318 876 1318 692 1325 c 0,24,25
 556 1329 556 1329 468.5 1213 c 128,-1,26
 381 1097 381 1097 340 857 c 1,27,-1
 329 800 l 1,18,-1
847 649 m 1,28,-1
 312 649 l 1,29,30
 290 521 290 521 293 420 c 0,31,32
 296 280 296 280 346 206.5 c 128,-1,33
 396 133 396 133 486 130 c 0,34,35
 730 118 730 118 821 519 c 1,36,-1
 847 649 l 1,28,-1
EndSplineSet
EndChar

StartChar: iota
Encoding: 953 953 194
Width: 653
GlyphClass: 2
Flags: W
LayerCount: 2
Back
Fore
SplineSet
460 1082 m 1,0,-1
 324 273 l 2,1,2
 321 247 321 247 323 225 c 0,3,4
 329 151 329 151 408 148 c 0,5,6
 442 148 442 148 494 158 c 1,7,-1
 482 6 l 1,8,9
 411 -12 411 -12 349 -10 c 0,10,11
 241 -8 241 -8 187 68 c 128,-1,12
 133 144 133 144 145 276 c 1,13,-1
 280 1082 l 1,14,-1
 460 1082 l 1,0,-1
EndSplineSet
EndChar

StartChar: lambda
Encoding: 955 955 195
Width: 1110
Flags: W
LayerCount: 2
Back
Fore
SplineSet
398 1516 m 0,0,1
 580 1516 580 1516 620 1342 c 1,2,-1
 846 233 l 2,3,4
 866 150 866 150 923 147 c 2,5,-1
 942 147 l 1,6,-1
 960 149 l 1,7,-1
 954 -5 l 1,8,9
 924 -14 924 -14 884 -16 c 0,10,11
 804 -16 804 -16 755 27 c 128,-1,12
 706 70 706 70 674 187 c 1,13,-1
 549 777 l 1,14,-1
 136 0 l 1,15,-1
 -73 0 l 1,16,-1
 494 1040 l 1,17,-1
 442 1264 l 2,18,19
 425 1322 425 1322 403.5 1341.5 c 128,-1,20
 382 1361 382 1361 347 1363 c 2,21,-1
 323 1364 l 1,22,-1
 298 1363 l 1,23,-1
 310 1505 l 1,24,25
 358 1516 358 1516 398 1516 c 0,0,1
EndSplineSet
EndChar

StartChar: xi
Encoding: 958 958 196
Width: 984
Flags: W
LayerCount: 2
Back
Fore
SplineSet
997 1288 m 1,0,1
 871 1326 871 1326 782 1326 c 0,2,3
 642 1326 642 1326 552.5 1273.5 c 128,-1,4
 463 1221 463 1221 450 1130 c 0,5,6
 435 1030 435 1030 506.5 974.5 c 128,-1,7
 578 919 578 919 726 918 c 2,8,-1
 865 917 l 1,9,-1
 838 765 l 1,10,-1
 711 766 l 2,11,12
 518 766 518 766 402 678.5 c 128,-1,13
 286 591 286 591 269 436 c 0,14,15
 257 328 257 328 313.5 250 c 128,-1,16
 370 172 370 172 492 138.5 c 128,-1,17
 614 105 614 105 658.5 89 c 128,-1,18
 703 73 703 73 734.5 50.5 c 128,-1,19
 766 28 766 28 783.5 -6.5 c 128,-1,20
 801 -41 801 -41 798 -92 c 0,21,22
 793 -164 793 -164 740.5 -242 c 128,-1,23
 688 -320 688 -320 592 -393 c 1,24,-1
 492 -306 l 1,25,-1
 551 -245 l 2,26,27
 613 -177 613 -177 621 -114 c 0,28,29
 631 -56 631 -56 543 -32 c 0,30,31
 376 13 376 13 308 46 c 0,32,33
 63 162 63 162 86 440 c 0,34,35
 98 583 98 583 191.5 686.5 c 128,-1,36
 285 790 285 790 460 847 c 1,37,38
 367 889 367 889 316 963.5 c 128,-1,39
 265 1038 265 1038 270 1124 c 0,40,41
 281 1305 281 1305 445 1399 c 0,42,43
 588 1480 588 1480 785 1477 c 0,44,45
 916 1475 916 1475 1039 1436 c 1,46,-1
 997 1288 l 1,0,1
EndSplineSet
EndChar

StartChar: pi
Encoding: 960 960 197
Width: 1193
Flags: W
LayerCount: 2
Back
Fore
SplineSet
1161 929 m 1,0,-1
 1010 929 l 1,1,-1
 899 273 l 2,2,3
 896 247 896 247 898 225 c 0,4,5
 905 149 905 149 984 149 c 0,6,7
 1021 147 1021 147 1068 159 c 1,8,-1
 1059 6 l 1,9,10
 993 -12 993 -12 927 -11 c 0,11,12
 818 -9 818 -9 763.5 67 c 128,-1,13
 709 143 709 143 721 276 c 1,14,-1
 829 929 l 1,15,-1
 441 929 l 1,16,-1
 280 0 l 1,17,-1
 99 0 l 1,18,-1
 260 929 l 1,19,-1
 96 929 l 1,20,-1
 123 1082 l 1,21,-1
 1188 1082 l 1,22,-1
 1161 929 l 1,0,-1
EndSplineSet
EndChar

StartChar: rho
Encoding: 961 961 198
Width: 1135
GlyphClass: 2
Flags: W
LayerCount: 2
Back
Fore
SplineSet
134 577 m 2,0,1
 151 689 151 689 194.5 789.5 c 128,-1,2
 238 890 238 890 309 963 c 0,3,4
 447 1107 447 1107 645 1102 c 0,5,6
 760 1099 760 1099 842.5 1045 c 128,-1,7
 925 991 925 991 969 888.5 c 128,-1,8
 1013 786 1013 786 1016 659 c 0,9,10
 1017 599 1017 599 1008 501 c 0,11,12
 989 349 989 349 924.5 227.5 c 128,-1,13
 860 106 860 106 759.5 41.5 c 128,-1,14
 659 -23 659 -23 530 -21 c 0,15,16
 342 -17 342 -17 243 105 c 1,17,-1
 146 -416 l 1,18,-1
 -36 -416 l 1,19,-1
 134 577 l 2,0,1
267 275 m 1,20,21
 332 134 332 134 485 130 c 0,22,23
 622 127 622 127 713.5 229.5 c 128,-1,24
 805 332 805 332 827 502 c 1,25,-1
 836 609 l 1,26,27
 843 772 843 772 793 860 c 128,-1,28
 743 948 743 948 634 952 c 0,29,30
 512 954 512 954 428 848 c 128,-1,31
 344 742 344 742 314 559 c 2,32,-1
 267 275 l 1,20,21
EndSplineSet
EndChar

StartChar: sigma1
Encoding: 962 962 199
Width: 1078
Flags: W
LayerCount: 2
Back
Fore
SplineSet
635 1103 m 0,0,1
 806 1099 806 1099 904.5 991 c 128,-1,2
 1003 883 1003 883 993 708 c 1,3,-1
 823 709 l 1,4,5
 830 818 830 818 778 882.5 c 128,-1,6
 726 947 726 947 625 951 c 0,7,8
 494 956 494 956 399.5 846.5 c 128,-1,9
 305 737 305 737 278 547 c 2,10,-1
 274 518 l 1,11,12
 244 247 244 247 552 148 c 1,13,-1
 638 119 l 1,14,15
 787 63 787 63 777 -73 c 0,16,17
 772 -144 772 -144 718.5 -224 c 128,-1,18
 665 -304 665 -304 572 -375 c 1,19,-1
 480 -285 l 1,20,-1
 521 -242 l 2,21,22
 592 -167 592 -167 601 -96 c 0,23,24
 608 -35 608 -35 530 -12 c 2,25,-1
 484 0 l 2,26,27
 277 57 277 57 177.5 188.5 c 128,-1,28
 78 320 78 320 97 517 c 2,29,-1
 101 560 l 2,30,31
 118 710 118 710 193 838 c 128,-1,32
 268 966 268 966 383.5 1036.5 c 128,-1,33
 499 1107 499 1107 635 1103 c 0,0,1
EndSplineSet
EndChar

StartChar: sigma
Encoding: 963 963 200
Width: 1135
Flags: W
LayerCount: 2
Back
Fore
SplineSet
1170 929 m 1,0,-1
 895 926 l 1,1,2
 1039 757 1039 757 1016 517 c 2,3,-1
 1015 507 l 1,4,5
 985 269 985 269 831 121.5 c 128,-1,6
 677 -26 677 -26 472 -20 c 0,7,8
 362 -19 362 -19 276 32 c 128,-1,9
 190 83 190 83 139 179 c 128,-1,10
 88 275 88 275 79 393 c 0,11,12
 74 459 74 459 81 526 c 2,13,-1
 83 542 l 2,14,15
 115 785 115 785 264 934 c 128,-1,16
 413 1083 413 1083 632 1083 c 2,17,-1
 1197 1082 l 1,18,-1
 1170 929 l 1,0,-1
258 436 m 0,19,20
 258 293 258 293 315.5 213 c 128,-1,21
 373 133 373 133 481 129 c 0,22,23
 620 124 620 124 716.5 235.5 c 128,-1,24
 813 347 813 347 839 532 c 0,25,26
 848 622 848 622 843 682 c 0,27,28
 834 794 834 794 775.5 860.5 c 128,-1,29
 717 927 717 927 618 930 c 0,30,31
 512 933 512 933 429 868 c 128,-1,32
 346 803 346 803 302 686.5 c 128,-1,33
 258 570 258 570 258 436 c 0,19,20
EndSplineSet
EndChar

StartChar: tau
Encoding: 964 964 201
Width: 1046
Flags: W
LayerCount: 2
Back
Fore
SplineSet
1014 932 m 1,0,-1
 654 932 l 1,1,-1
 542 268 l 1,2,-1
 541 223 l 2,3,4
 541 139 541 139 613 139 c 0,5,6
 646 139 646 139 705 162 c 1,7,-1
 735 30 l 1,8,9
 656 -20 656 -20 563 -19 c 0,10,11
 455 -17 455 -17 403.5 58 c 128,-1,12
 352 133 352 133 365 279 c 1,13,-1
 472 932 l 1,14,-1
 135 932 l 1,15,-1
 162 1082 l 1,16,-1
 1040 1082 l 1,17,-1
 1014 932 l 1,0,-1
EndSplineSet
EndChar

StartChar: upsilon
Encoding: 965 965 202
Width: 1093
GlyphClass: 2
Flags: W
LayerCount: 2
Back
Fore
SplineSet
417 1082 m 1,0,-1
 308 423 l 1,1,-1
 303 330 l 1,2,3
 303 237 303 237 340 184 c 128,-1,4
 377 131 377 131 448 129 c 0,5,6
 612 123 612 123 721.5 309.5 c 128,-1,7
 831 496 831 496 824 774 c 2,8,-1
 822 828 l 1,9,10
 812 959 812 959 778 1084 c 1,11,-1
 960 1082 l 1,12,13
 998 957 998 957 1003 827 c 0,14,15
 1018 438 1018 438 861 205.5 c 128,-1,16
 704 -27 704 -27 446 -21 c 0,17,18
 271 -17 271 -17 187 103 c 128,-1,19
 103 223 103 223 126 428 c 1,20,-1
 235 1082 l 1,21,-1
 417 1082 l 1,0,-1
EndSplineSet
EndChar

StartChar: phi
Encoding: 966 966 203
Width: 1410
Flags: W
LayerCount: 2
Back
Fore
SplineSet
514 -15 m 1,0,1
 290 14 290 14 177.5 170.5 c 128,-1,2
 65 327 65 327 94 557 c 0,3,4
 114 725 114 725 196.5 859 c 128,-1,5
 279 993 279 993 421 1083 c 1,6,-1
 507 947 l 1,7,8
 378 841 378 841 316.5 693 c 128,-1,9
 255 545 255 545 274 413 c 0,10,11
 288 305 288 305 355 232.5 c 128,-1,12
 422 160 422 160 531 136 c 1,13,-1
 654 855 l 1,14,15
 667 958 667 958 740 1022 c 128,-1,16
 813 1086 813 1086 923 1084 c 0,17,18
 1049 1082 1049 1082 1146 1008 c 128,-1,19
 1243 934 1243 934 1289.5 810 c 128,-1,20
 1336 686 1336 686 1322 551 c 0,21,22
 1295 306 1295 306 1125 155 c 128,-1,23
 955 4 955 4 695 -17 c 1,24,-1
 610 -478 l 1,25,-1
 429 -478 l 1,26,-1
 514 -15 l 1,0,1
720 133 m 1,27,28
 913 164 913 164 1031.5 302 c 128,-1,29
 1150 440 1150 440 1144 630 c 0,30,31
 1137 772 1137 772 1077 855 c 128,-1,32
 1017 938 1017 938 918 930 c 0,33,34
 858 926 858 926 840 861 c 1,35,-1
 720 133 l 1,27,28
EndSplineSet
EndChar

StartChar: psi
Encoding: 968 968 204
Width: 1401
GlyphClass: 2
Flags: W
LayerCount: 2
Back
Fore
SplineSet
875 1082 m 1,0,-1
 710 133 l 1,1,2
 924 170 924 170 1043.5 331 c 128,-1,3
 1163 492 1163 492 1154 769 c 1,4,-1
 1151 831 l 1,5,6
 1139 961 1139 961 1102 1084 c 1,7,-1
 1283 1082 l 1,8,9
 1322 959 1322 959 1330 830 c 0,10,11
 1359 355 1359 355 1095 137 c 0,12,13
 931 2 931 2 689 -17 c 1,14,-1
 605 -472 l 1,15,-1
 424 -472 l 1,16,-1
 509 -13 l 1,17,18
 287 18 287 18 183 181 c 128,-1,19
 79 344 79 344 112 596 c 1,20,-1
 194 1082 l 1,21,-1
 375 1082 l 1,22,-1
 293 593 l 2,23,24
 283 517 283 517 287 444 c 0,25,26
 292 321 292 321 352.5 241.5 c 128,-1,27
 413 162 413 162 525 137 c 1,28,-1
 694 1082 l 1,29,-1
 875 1082 l 1,0,-1
EndSplineSet
EndChar

StartChar: omega
Encoding: 969 969 205
Width: 1646
GlyphClass: 2
Flags: W
LayerCount: 2
Back
Fore
SplineSet
521 1081 m 1,0,-1
 449 954 l 2,1,2
 374 823 374 823 328.5 692 c 128,-1,3
 283 561 283 561 281 402 c 2,4,-1
 281 392 l 2,5,6
 281 265 281 265 320.5 198.5 c 128,-1,7
 360 132 360 132 434 129 c 0,8,9
 645 116 645 116 705 451 c 1,10,-1
 756 770 l 1,11,-1
 938 770 l 1,12,-1
 891 470 l 2,13,14
 885 423 885 423 884 365 c 0,15,16
 882 258 882 258 923 194.5 c 128,-1,17
 964 131 964 131 1044 129 c 0,18,19
 1225 122 1225 122 1301 418 c 0,20,21
 1353 622 1353 622 1333 828 c 0,22,23
 1320 959 1320 959 1275 1084 c 1,24,-1
 1458 1082 l 1,25,26
 1505 958 1505 958 1515 828 c 0,27,28
 1532 610 1532 610 1476.5 401 c 128,-1,29
 1421 192 1421 192 1309 83.5 c 128,-1,30
 1197 -25 1197 -25 1042 -21 c 0,31,32
 934 -19 934 -19 858 45.5 c 128,-1,33
 782 110 782 110 762 218 c 1,34,35
 637 -28 637 -28 414 -21 c 0,36,37
 311 -18 311 -18 239 38 c 128,-1,38
 167 94 167 94 134.5 199 c 128,-1,39
 102 304 102 304 105 432 c 0,40,41
 110 782 110 782 325 1082 c 1,42,-1
 521 1081 l 1,0,-1
EndSplineSet
EndChar

StartChar: theta1
Encoding: 977 977 206
Width: 1159
Flags: W
LayerCount: 2
Back
Fore
SplineSet
1127 626 m 1,0,1
 1075 608 1075 608 979 595 c 1,2,-1
 948 412 l 2,3,4
 909 202 909 202 779 87 c 0,5,6
 651 -25 651 -25 467 -20 c 0,7,8
 345 -17 345 -17 255 41.5 c 128,-1,9
 165 100 165 100 123 204 c 128,-1,10
 81 308 81 308 96 435 c 1,11,-1
 150 769 l 1,12,-1
 332 771 l 1,13,-1
 278 434 l 2,14,15
 271 378 271 378 278 325 c 0,16,17
 289 239 289 239 341.5 189 c 128,-1,18
 394 139 394 139 479 136 c 0,19,20
 598 133 598 133 673.5 211.5 c 128,-1,21
 749 290 749 290 771 434 c 2,22,-1
 801 603 l 1,23,24
 609 641 609 641 504 779 c 128,-1,25
 399 917 399 917 413 1114 c 1,26,-1
 415 1130 l 1,27,28
 429 1284 429 1284 531 1383.5 c 128,-1,29
 633 1483 633 1483 782 1479 c 0,30,31
 927 1475 927 1475 1002.5 1372 c 128,-1,32
 1078 1269 1078 1269 1060 1105 c 1,33,-1
 1001 751 l 1,34,35
 1079 762 1079 762 1133 776 c 1,36,-1
 1127 626 l 1,0,1
593 1112 m 2,37,38
 583 984 583 984 638 891.5 c 128,-1,39
 693 799 693 799 819 762 c 1,40,-1
 878 1106 l 1,41,-1
 882 1178 l 1,42,43
 878 1319 878 1319 767 1321 c 0,44,45
 695 1323 695 1323 649.5 1270.5 c 128,-1,46
 604 1218 604 1218 594 1129 c 1,47,-1
 593 1112 l 2,37,38
EndSplineSet
EndChar

StartChar: Upsilon1
Encoding: 978 978 207
Width: 1067
GlyphClass: 2
Flags: W
LayerCount: 2
Back
Fore
SplineSet
557 776 m 1,0,-1
 858 1283 l 1,1,2
 912 1385 912 1385 972.5 1429 c 128,-1,3
 1033 1473 1033 1473 1112 1471 c 0,4,5
 1176 1471 1176 1471 1240 1443 c 1,6,-1
 1193 1292 l 1,7,8
 1164 1301 1164 1301 1143 1301 c 0,9,10
 1077 1303 1077 1303 1023 1220 c 2,11,-1
 617 559 l 1,12,-1
 520 0 l 1,13,-1
 334 0 l 1,14,-1
 435 584 l 1,15,-1
 262 1219 l 1,16,17
 236 1292 236 1292 177 1295 c 0,18,19
 162 1296 162 1296 124 1288 c 1,20,-1
 103 1441 l 1,21,22
 157 1466 157 1466 219 1466 c 0,23,24
 294 1464 294 1464 344 1420.5 c 128,-1,25
 394 1377 394 1377 426 1281 c 1,26,-1
 557 776 l 1,0,-1
EndSplineSet
EndChar

StartChar: omega1
Encoding: 982 982 208
Width: 1570
GlyphClass: 2
Flags: W
LayerCount: 2
Back
Fore
SplineSet
1575 929 m 1,0,-1
 1447 929 l 1,1,2
 1454 837 1454 837 1454 747 c 0,3,4
 1454 539 1454 539 1397 350 c 128,-1,5
 1340 161 1340 161 1242.5 68 c 128,-1,6
 1145 -25 1145 -25 1012 -21 c 0,7,8
 901 -19 901 -19 825.5 46.5 c 128,-1,9
 750 112 750 112 732 219 c 1,10,11
 606 -28 606 -28 385 -21 c 0,12,13
 288 -18 288 -18 223 39 c 128,-1,14
 158 96 158 96 130 205.5 c 128,-1,15
 102 315 102 315 108 440 c 0,16,17
 115 589 115 589 149 704.5 c 128,-1,18
 183 820 183 820 247 931 c 1,19,-1
 130 929 l 1,20,-1
 158 1082 l 1,21,-1
 1604 1082 l 1,22,-1
 1575 929 l 1,0,-1
1271 748 m 0,23,24
 1268 838 1268 838 1257 929 c 1,25,-1
 444 930 l 1,26,27
 364 791 364 791 327.5 674 c 128,-1,28
 291 557 291 557 284 403 c 0,29,30
 279 276 279 276 309.5 205 c 128,-1,31
 340 134 340 134 406 129 c 0,32,33
 623 115 623 115 679 475 c 2,34,-1
 717 722 l 1,35,-1
 900 722 l 1,36,-1
 861 470 l 1,37,-1
 855 401 l 1,38,39
 848 269 848 269 889 199.5 c 128,-1,40
 930 130 930 130 1016 128 c 0,41,42
 1185 124 1185 124 1245 458 c 0,43,44
 1274 619 1274 619 1271 748 c 0,23,24
EndSplineSet
EndChar

StartChar: uni0402
Encoding: 1026 1026 209
Width: 1499
Flags: W
LayerCount: 2
Back
Fore
SplineSet
1258 1298 m 1,0,-1
 753 1298 l 1,1,-1
 667 842 l 1,2,3
 830 892 830 892 948 889 c 0,4,5
 1162 887 1162 887 1282 766.5 c 128,-1,6
 1402 646 1402 646 1385 440 c 0,7,8
 1367 228 1367 228 1222 109 c 128,-1,9
 1077 -10 1077 -10 834 -14 c 1,10,-1
 845 138 l 1,11,12
 996 140 996 140 1088.5 219 c 128,-1,13
 1181 298 1181 298 1196 441 c 0,14,15
 1210 575 1210 575 1141.5 647.5 c 128,-1,16
 1073 720 1073 720 940 722 c 0,17,18
 816 725 816 725 649 679 c 1,19,-1
 527 0 l 1,20,-1
 339 0 l 1,21,-1
 564 1298 l 1,22,-1
 161 1298 l 1,23,-1
 189 1456 l 1,24,-1
 1286 1456 l 1,25,-1
 1258 1298 l 1,0,-1
EndSplineSet
Substitution2: "'c2sc' Capitals to Small Capitals lookup 0 subtable" uni0402.c2sc
Position2: "'cpsp' Capital Spacing lookup 0 subtable" dx=36 dy=0 dh=72 dv=0
EndChar

StartChar: uni0404
Encoding: 1028 1028 210
Width: 1349
GlyphClass: 2
Flags: W
LayerCount: 2
Back
Fore
SplineSet
1175 464 m 1,0,1
 1133 238 1133 238 970.5 106 c 128,-1,2
 808 -26 808 -26 581 -20 c 0,3,4
 446 -17 446 -17 345.5 46.5 c 128,-1,5
 245 110 245 110 188.5 229 c 128,-1,6
 132 348 132 348 126 494 c 0,7,8
 120 606 120 606 158.5 826 c 128,-1,9
 197 1046 197 1046 312 1208.5 c 128,-1,10
 427 1371 427 1371 595 1436 c 0,11,12
 704 1479 704 1479 827 1476 c 0,13,14
 1032 1472 1032 1472 1152 1343.5 c 128,-1,15
 1272 1215 1272 1215 1279 987 c 1,16,-1
 1093 987 l 1,17,18
 1086 1155 1086 1155 1017 1235.5 c 128,-1,19
 948 1316 948 1316 819 1319 c 0,20,21
 645 1324 645 1324 522 1198 c 128,-1,22
 399 1072 399 1072 340 813 c 1,23,-1
 900 813 l 1,24,-1
 872 656 l 1,25,-1
 325 661 l 1,26,-1
 323 651 l 2,27,28
 311 599 311 599 308 541 c 0,29,30
 302 431 302 431 334.5 335.5 c 128,-1,31
 367 240 367 240 432 190 c 128,-1,32
 497 140 497 140 589 137 c 0,33,34
 743 132 743 132 842.5 210.5 c 128,-1,35
 942 289 942 289 993 461 c 1,36,-1
 1175 464 l 1,0,1
EndSplineSet
Substitution2: "'c2sc' Capitals to Small Capitals lookup 0 subtable" uni0404.c2sc
Position2: "'cpsp' Capital Spacing lookup 0 subtable" dx=36 dy=0 dh=72 dv=0
EndChar

StartChar: uni0409
Encoding: 1033 1033 211
Width: 2137
Flags: W
LayerCount: 2
Back
Fore
SplineSet
1374 1456 m 1,0,-1
 1275 891 l 1,1,-1
 1603 890 l 1,2,3
 1807 884 1807 884 1920.5 764 c 128,-1,4
 2034 644 2034 644 2017 452 c 0,5,6
 1998 247 1998 247 1849 123.5 c 128,-1,7
 1700 0 1700 0 1472 0 c 2,8,-1
 933 0 l 1,9,-1
 1159 1298 l 1,10,-1
 664 1298 l 1,11,-1
 544 742 l 1,12,-1
 513 589 l 2,13,14
 451 283 451 283 331 143.5 c 128,-1,15
 211 4 211 4 24 0 c 1,16,-1
 -52 0 l 1,17,-1
 -34 156 l 1,18,-1
 4 157 l 2,19,20
 136 163 136 163 220 279 c 128,-1,21
 304 395 304 395 347 655 c 2,22,-1
 368 774 l 1,23,-1
 511 1456 l 1,24,-1
 1374 1456 l 1,0,-1
1248 733 m 1,25,-1
 1148 157 l 1,26,-1
 1478 156 l 2,27,28
 1618 156 1618 156 1715 238.5 c 128,-1,29
 1812 321 1812 321 1830 456 c 0,30,31
 1845 580 1845 580 1781.5 654 c 128,-1,32
 1718 728 1718 728 1599 732 c 2,33,-1
 1248 733 l 1,25,-1
EndSplineSet
Substitution2: "'c2sc' Capitals to Small Capitals lookup 0 subtable" uni0409.c2sc
Position2: "'cpsp' Capital Spacing lookup 0 subtable" dx=36 dy=0 dh=72 dv=0
EndChar

StartChar: uni040A
Encoding: 1034 1034 212
Width: 2156
Flags: W
LayerCount: 2
Back
Fore
SplineSet
399 825 m 1,0,-1
 1094 825 l 1,1,-1
 1204 1456 l 1,2,-1
 1391 1456 l 1,3,-1
 1285 846 l 1,4,-1
 1596 845 l 2,5,6
 1805 844 1805 844 1925.5 733.5 c 128,-1,7
 2046 623 2046 623 2031 436 c 0,8,9
 2014 237 2014 237 1866 118.5 c 128,-1,10
 1718 0 1718 0 1487 0 c 2,11,-1
 951 0 l 1,12,-1
 1067 668 l 1,13,-1
 372 668 l 1,14,-1
 256 0 l 1,15,-1
 67 0 l 1,16,-1
 320 1456 l 1,17,-1
 508 1456 l 1,18,-1
 399 825 l 1,0,-1
1258 689 m 1,19,-1
 1167 166 l 1,20,-1
 1496 165 l 2,21,22
 1635 165 1635 165 1731 238.5 c 128,-1,23
 1827 312 1827 312 1844 439 c 0,24,25
 1859 549 1859 549 1796.5 616.5 c 128,-1,26
 1734 684 1734 684 1609 688 c 2,27,-1
 1258 689 l 1,19,-1
EndSplineSet
Substitution2: "'c2sc' Capitals to Small Capitals lookup 0 subtable" uni040A.c2sc
Position2: "'cpsp' Capital Spacing lookup 0 subtable" dx=36 dy=0 dh=72 dv=0
EndChar

StartChar: uni040B
Encoding: 1035 1035 213
Width: 1626
Flags: W
LayerCount: 2
Back
Fore
SplineSet
1276 1298 m 1,0,-1
 764 1298 l 1,1,-1
 683 865 l 1,2,3
 839 906 839 906 1008 904 c 0,4,5
 1231 900 1231 900 1336.5 782.5 c 128,-1,6
 1442 665 1442 665 1419 455 c 1,7,-1
 1344 0 l 1,8,-1
 1155 0 l 1,9,-1
 1231 456 l 2,10,11
 1239 525 1239 525 1231 579 c 0,12,13
 1219 660 1219 660 1163.5 701.5 c 128,-1,14
 1108 743 1108 743 1001 746 c 0,15,16
 861 749 861 749 666 707 c 1,17,-1
 539 0 l 1,18,-1
 351 0 l 1,19,-1
 577 1298 l 1,20,-1
 180 1298 l 1,21,-1
 208 1456 l 1,22,-1
 1304 1456 l 1,23,-1
 1276 1298 l 1,0,-1
EndSplineSet
Substitution2: "'c2sc' Capitals to Small Capitals lookup 0 subtable" uni040B.c2sc
Position2: "'cpsp' Capital Spacing lookup 0 subtable" dx=36 dy=0 dh=72 dv=0
EndChar

StartChar: uni040F
Encoding: 1039 1039 214
Width: 1426
Flags: W
LayerCount: 2
Back
Fore
SplineSet
319 1456 m 1,0,-1
 507 1456 l 1,1,-1
 282 157 l 1,2,-1
 977 157 l 1,3,-1
 1203 1456 l 1,4,-1
 1390 1456 l 1,5,-1
 1137 0 l 1,6,-1
 703 0 l 1,7,-1
 641 -359 l 1,8,-1
 452 -359 l 1,9,-1
 515 0 l 1,10,-1
 66 0 l 1,11,-1
 319 1456 l 1,0,-1
EndSplineSet
Substitution2: "'c2sc' Capitals to Small Capitals lookup 0 subtable" uni040F.c2sc
Position2: "'cpsp' Capital Spacing lookup 0 subtable" dx=36 dy=0 dh=72 dv=0
EndChar

StartChar: uni0411
Encoding: 1041 1041 215
Width: 1262
Flags: W
LayerCount: 2
Back
Fore
SplineSet
1146 1298 m 1,0,-1
 466 1298 l 1,1,-1
 391 862 l 1,2,-1
 701 861 l 2,3,4
 917 860 917 860 1035 747 c 128,-1,5
 1153 634 1153 634 1136 443 c 0,6,7
 1120 244 1120 244 972 122 c 128,-1,8
 824 0 824 0 591 0 c 2,9,-1
 52 0 l 1,10,-1
 305 1456 l 1,11,-1
 1174 1456 l 1,12,-1
 1146 1298 l 1,0,-1
364 704 m 1,13,-1
 268 157 l 1,14,-1
 598 156 l 2,15,16
 739 156 739 156 835 235 c 128,-1,17
 931 314 931 314 948 445 c 0,18,19
 962 563 962 563 900 631 c 128,-1,20
 838 699 838 699 714 703 c 2,21,-1
 364 704 l 1,13,-1
EndSplineSet
Substitution2: "'c2sc' Capitals to Small Capitals lookup 0 subtable" uni0411.c2sc
Position2: "'cpsp' Capital Spacing lookup 0 subtable" dx=36 dy=0 dh=72 dv=0
EndChar

StartChar: uni0414
Encoding: 1044 1044 216
Width: 1504
Flags: W
LayerCount: 2
Back
Fore
SplineSet
1270 -357 m 1,0,-1
 1083 -357 l 1,1,-1
 1145 0 l 1,2,-1
 133 0 l 1,3,-1
 70 -358 l 1,4,-1
 -117 -358 l 1,5,-1
 -28 157 l 1,6,-1
 79 155 l 1,7,8
 286 324 286 324 387 706 c 2,9,-1
 407 784 l 1,10,-1
 555 1456 l 1,11,-1
 1402 1456 l 1,12,-1
 1176 157 l 1,13,-1
 1361 157 l 1,14,-1
 1270 -357 l 1,0,-1
297 154 m 1,15,-1
 988 157 l 1,16,-1
 1186 1298 l 1,17,-1
 710 1298 l 1,18,-1
 600 797 l 1,19,-1
 571 683 l 1,20,21
 478 340 478 340 297 154 c 1,15,-1
EndSplineSet
Substitution2: "'c2sc' Capitals to Small Capitals lookup 0 subtable" uni0414.c2sc
Position2: "'cpsp' Capital Spacing lookup 0 subtable" dx=36 dy=0 dh=72 dv=0
EndChar

StartChar: uni0416
Encoding: 1046 1046 217
Width: 1813
GlyphClass: 2
Flags: W
LayerCount: 2
Back
Fore
SplineSet
1173 664 m 1,0,-1
 1017 664 l 1,1,-1
 902 0 l 1,2,-1
 714 0 l 1,3,-1
 830 664 l 1,4,-1
 677 664 l 1,5,-1
 162 0 l 1,6,-1
 -84 0 l 1,7,-1
 532 778 l 1,8,-1
 217 1456 l 1,9,-1
 426 1456 l 1,10,-1
 692 824 l 1,11,-1
 857 824 l 1,12,-1
 967 1456 l 1,13,-1
 1154 1456 l 1,14,-1
 1044 824 l 1,15,-1
 1190 824 l 1,16,-1
 1676 1456 l 1,17,-1
 1909 1456 l 1,18,-1
 1342 759 l 1,19,-1
 1680 0 l 1,20,-1
 1460 0 l 1,21,-1
 1173 664 l 1,0,-1
EndSplineSet
Substitution2: "'c2sc' Capitals to Small Capitals lookup 0 subtable" uni0416.c2sc
Position2: "'cpsp' Capital Spacing lookup 0 subtable" dx=36 dy=0 dh=72 dv=0
EndChar

StartChar: uni0417
Encoding: 1047 1047 218
Width: 1189
GlyphClass: 2
Flags: W
LayerCount: 2
Back
Fore
SplineSet
621 820 m 2,0,1
 769 820 769 820 863.5 886.5 c 128,-1,2
 958 953 958 953 972 1073 c 0,3,4
 985 1188 985 1188 910.5 1253 c 128,-1,5
 836 1318 836 1318 708 1320 c 0,6,7
 582 1322 582 1322 488.5 1253.5 c 128,-1,8
 395 1185 395 1185 375 1074 c 1,9,-1
 189 1073 l 1,10,11
 207 1255 207 1255 357 1367 c 128,-1,12
 507 1479 507 1479 717 1477 c 0,13,14
 936 1472 936 1472 1056 1361.5 c 128,-1,15
 1176 1251 1176 1251 1160 1070 c 0,16,17
 1143 858 1143 858 876 742 c 1,18,19
 979 697 979 697 1026.5 611 c 128,-1,20
 1074 525 1074 525 1066 414 c 0,21,22
 1055 282 1055 282 979.5 183.5 c 128,-1,23
 904 85 904 85 772.5 31.5 c 128,-1,24
 641 -22 641 -22 488 -20 c 0,25,26
 280 -16 280 -16 158.5 100 c 128,-1,27
 37 216 37 216 46 405 c 1,28,-1
 232 404 l 1,29,30
 224 287 224 287 298 213.5 c 128,-1,31
 372 140 372 140 496 136 c 0,32,33
 565 134 565 134 632 152 c 128,-1,34
 699 170 699 170 753 207 c 0,35,36
 863 283 863 283 879 410 c 0,37,38
 893 527 893 527 828 592 c 128,-1,39
 763 657 763 657 615 662 c 1,40,-1
 442 663 l 1,41,-1
 470 821 l 1,42,-1
 621 820 l 2,0,1
EndSplineSet
Substitution2: "'c2sc' Capitals to Small Capitals lookup 0 subtable" uni0417.c2sc
Position2: "'cpsp' Capital Spacing lookup 0 subtable" dx=36 dy=0 dh=72 dv=0
EndChar

StartChar: uni0418
Encoding: 1048 1048 219
Width: 1426
GlyphClass: 2
Flags: W
LayerCount: 2
Back
Fore
SplineSet
1196 1456 m 1,0,-1
 1390 1456 l 1,1,-1
 1137 0 l 1,2,-1
 950 0 l 1,3,-1
 1143 1110 l 1,4,-1
 262 0 l 1,5,-1
 67 0 l 1,6,-1
 320 1456 l 1,7,-1
 508 1456 l 1,8,-1
 315 346 l 1,9,-1
 1196 1456 l 1,0,-1
EndSplineSet
Substitution2: "'c2sc' Capitals to Small Capitals lookup 0 subtable" uni0418.c2sc
Position2: "'cpsp' Capital Spacing lookup 0 subtable" dx=36 dy=0 dh=72 dv=0
EndChar

StartChar: uni041B
Encoding: 1051 1051 220
Width: 1416
GlyphClass: 2
Flags: W
LayerCount: 2
Back
Fore
SplineSet
1381 1456 m 1,0,-1
 1129 0 l 1,1,-1
 941 0 l 1,2,-1
 1166 1298 l 1,3,-1
 662 1298 l 1,4,-1
 495 520 l 1,5,6
 430 251 430 251 317 128.5 c 128,-1,7
 204 6 204 6 33 0 c 1,8,-1
 -54 0 l 1,9,-1
 -36 157 l 1,10,-1
 0 158 l 1,11,12
 135 166 135 166 218 280 c 128,-1,13
 301 394 301 394 344 649 c 2,14,-1
 366 774 l 1,15,-1
 509 1456 l 1,16,-1
 1381 1456 l 1,0,-1
EndSplineSet
Substitution2: "'c2sc' Capitals to Small Capitals lookup 0 subtable" uni041B.c2sc
Position2: "'cpsp' Capital Spacing lookup 0 subtable" dx=36 dy=0 dh=72 dv=0
EndChar

StartChar: uni0423
Encoding: 1059 1059 221
Width: 1258
GlyphClass: 2
Flags: W
LayerCount: 2
Back
Fore
SplineSet
646 612 m 1,0,-1
 1118 1456 l 1,1,-1
 1344 1456 l 1,2,-1
 637 242 l 2,3,4
 556 95 556 95 466 34.5 c 128,-1,5
 376 -26 376 -26 254 -24 c 0,6,7
 194 -22 194 -22 147 -13 c 1,8,-1
 169 139 l 1,9,-1
 258 133 l 1,10,11
 357 133 357 133 426 232 c 1,12,-1
 462 288 l 1,13,-1
 520 390 l 1,14,-1
 227 1456 l 1,15,-1
 428 1456 l 1,16,-1
 646 612 l 1,0,-1
EndSplineSet
Substitution2: "'c2sc' Capitals to Small Capitals lookup 0 subtable" uni0423.c2sc
Position2: "'cpsp' Capital Spacing lookup 0 subtable" dx=36 dy=0 dh=72 dv=0
EndChar

StartChar: uni0424
Encoding: 1060 1060 222
Width: 1543
Flags: W
LayerCount: 2
Back
Fore
SplineSet
984 1309 m 1,0,-1
 1004 1308 l 1,1,2
 1156 1305 1156 1305 1273 1229.5 c 128,-1,3
 1390 1154 1390 1154 1446.5 1021.5 c 128,-1,4
 1503 889 1503 889 1487 733 c 0,5,6
 1469 565 1469 565 1376 426.5 c 128,-1,7
 1283 288 1283 288 1136.5 211.5 c 128,-1,8
 990 135 990 135 823 136 c 2,9,-1
 791 136 l 1,10,-1
 752 -60 l 1,11,-1
 570 -60 l 1,12,-1
 610 137 l 1,13,14
 442 137 442 137 324 212 c 128,-1,15
 206 287 206 287 148.5 421 c 128,-1,16
 91 555 91 555 107 715 c 0,17,18
 123 878 123 878 212.5 1014 c 128,-1,19
 302 1150 302 1150 444 1228 c 128,-1,20
 586 1306 586 1306 748 1310 c 1,21,-1
 802 1310 l 1,22,-1
 844 1516 l 1,23,-1
 1020 1516 l 1,24,-1
 984 1309 l 1,0,-1
286 715 m 0,25,26
 263 531 263 531 340.5 416.5 c 128,-1,27
 418 302 418 302 580 290 c 1,28,-1
 626 288 l 1,29,-1
 785 1161 l 1,30,-1
 755 1161 l 2,31,32
 567 1158 567 1158 438.5 1035 c 128,-1,33
 310 912 310 912 286 715 c 0,25,26
968 1159 m 1,34,-1
 810 286 l 1,35,-1
 839 286 l 2,36,37
 1025 289 1025 289 1153.5 411 c 128,-1,38
 1282 533 1282 533 1307 733 c 0,39,40
 1329 924 1329 924 1247 1038 c 128,-1,41
 1165 1152 1165 1152 998 1159 c 1,42,-1
 968 1159 l 1,34,-1
EndSplineSet
Substitution2: "'c2sc' Capitals to Small Capitals lookup 0 subtable" uni0424.c2sc
Position2: "'cpsp' Capital Spacing lookup 0 subtable" dx=36 dy=0 dh=72 dv=0
EndChar

StartChar: uni0426
Encoding: 1062 1062 223
Width: 1462
Flags: W
LayerCount: 2
Back
Fore
SplineSet
318 1456 m 1,0,-1
 506 1456 l 1,1,-1
 281 157 l 1,2,-1
 976 157 l 1,3,-1
 1202 1456 l 1,4,-1
 1389 1456 l 1,5,-1
 1164 161 l 1,6,-1
 1313 161 l 1,7,-1
 1207 -351 l 1,8,-1
 1037 -351 l 1,9,-1
 1099 0 l 1,10,-1
 65 0 l 1,11,-1
 318 1456 l 1,0,-1
EndSplineSet
Substitution2: "'c2sc' Capitals to Small Capitals lookup 0 subtable" uni0426.c2sc
Position2: "'cpsp' Capital Spacing lookup 0 subtable" dx=36 dy=0 dh=72 dv=0
EndChar

StartChar: uni0427
Encoding: 1063 1063 224
Width: 1370
GlyphClass: 2
Flags: W
LayerCount: 2
Back
Fore
SplineSet
1348 1456 m 1,0,-1
 1095 0 l 1,1,-1
 907 0 l 1,2,-1
 1018 604 l 1,3,4
 841 549 841 549 640 551 c 0,5,6
 420 553 420 553 313 670.5 c 128,-1,7
 206 788 206 788 229 1001 c 1,8,-1
 305 1456 l 1,9,-1
 493 1456 l 1,10,-1
 418 1000 l 2,11,12
 410 931 410 931 418 878 c 0,13,14
 442 713 442 713 649 710 c 0,15,16
 810 707 810 707 1034 761 c 1,17,-1
 1159 1456 l 1,18,-1
 1348 1456 l 1,0,-1
EndSplineSet
Substitution2: "'c2sc' Capitals to Small Capitals lookup 0 subtable" uni0427.c2sc
Position2: "'cpsp' Capital Spacing lookup 0 subtable" dx=36 dy=0 dh=72 dv=0
EndChar

StartChar: uni0428
Encoding: 1064 1064 225
Width: 1879
Flags: W
LayerCount: 2
Back
Fore
SplineSet
507 1456 m 1,0,-1
 282 157 l 1,1,-1
 767 157 l 1,2,-1
 992 1456 l 1,3,-1
 1179 1456 l 1,4,-1
 953 157 l 1,5,-1
 1435 157 l 1,6,-1
 1660 1456 l 1,7,-1
 1848 1456 l 1,8,-1
 1595 0 l 1,9,-1
 66 0 l 1,10,-1
 319 1456 l 1,11,-1
 507 1456 l 1,0,-1
EndSplineSet
Substitution2: "'c2sc' Capitals to Small Capitals lookup 0 subtable" uni0428.c2sc
Position2: "'cpsp' Capital Spacing lookup 0 subtable" dx=36 dy=0 dh=72 dv=0
EndChar

StartChar: uni0429
Encoding: 1065 1065 226
Width: 1934
Flags: W
LayerCount: 2
Back
Fore
SplineSet
507 1456 m 1,0,-1
 282 157 l 1,1,-1
 767 157 l 1,2,-1
 992 1456 l 1,3,-1
 1179 1456 l 1,4,-1
 953 157 l 1,5,-1
 1435 157 l 1,6,-1
 1660 1456 l 1,7,-1
 1848 1456 l 1,8,-1
 1622 151 l 1,9,-1
 1765 151 l 1,10,-1
 1660 -351 l 1,11,-1
 1498 -351 l 1,12,-1
 1559 0 l 1,13,-1
 66 0 l 1,14,-1
 319 1456 l 1,15,-1
 507 1456 l 1,0,-1
EndSplineSet
Substitution2: "'c2sc' Capitals to Small Capitals lookup 0 subtable" uni0429.c2sc
Position2: "'cpsp' Capital Spacing lookup 0 subtable" dx=36 dy=0 dh=72 dv=0
EndChar

StartChar: uni042A
Encoding: 1066 1066 227
Width: 1517
Flags: W
LayerCount: 2
Back
Fore
SplineSet
164 1456 m 1,0,-1
 750 1456 l 1,1,-1
 647 862 l 1,2,-1
 957 861 l 2,3,4
 1175 860 1175 860 1291.5 745.5 c 128,-1,5
 1408 631 1408 631 1391 442 c 0,6,7
 1374 241 1374 241 1226.5 120.5 c 128,-1,8
 1079 0 1079 0 847 0 c 2,9,-1
 309 0 l 1,10,-1
 535 1304 l 1,11,-1
 137 1304 l 1,12,-1
 164 1456 l 1,0,-1
620 704 m 1,13,-1
 524 157 l 1,14,-1
 854 156 l 2,15,16
 995 156 995 156 1090.5 235 c 128,-1,17
 1186 314 1186 314 1203 445 c 0,18,19
 1217 563 1217 563 1155 631 c 128,-1,20
 1093 699 1093 699 970 703 c 2,21,-1
 620 704 l 1,13,-1
EndSplineSet
Substitution2: "'c2sc' Capitals to Small Capitals lookup 0 subtable" uni042A.c2sc
Position2: "'cpsp' Capital Spacing lookup 0 subtable" dx=36 dy=0 dh=72 dv=0
EndChar

StartChar: uni042B
Encoding: 1067 1067 228
Width: 1728
GlyphClass: 2
Flags: W
LayerCount: 2
Back
Fore
SplineSet
406 862 m 1,0,-1
 716 861 l 2,1,2
 932 860 932 860 1050 747 c 128,-1,3
 1168 634 1168 634 1151 443 c 0,4,5
 1135 244 1135 244 987 122 c 128,-1,6
 839 0 839 0 606 0 c 2,7,-1
 69 0 l 1,8,-1
 321 1456 l 1,9,-1
 509 1456 l 1,10,-1
 406 862 l 1,0,-1
379 704 m 1,11,-1
 283 157 l 1,12,-1
 613 156 l 2,13,14
 754 156 754 156 850 235 c 128,-1,15
 946 314 946 314 963 445 c 0,16,17
 977 563 977 563 915 631 c 128,-1,18
 853 699 853 699 729 703 c 2,19,-1
 379 704 l 1,11,-1
1433 0 m 1,20,-1
 1246 0 l 1,21,-1
 1499 1456 l 1,22,-1
 1686 1456 l 1,23,-1
 1433 0 l 1,20,-1
EndSplineSet
Substitution2: "'c2sc' Capitals to Small Capitals lookup 0 subtable" uni042B.c2sc
Position2: "'cpsp' Capital Spacing lookup 0 subtable" dx=36 dy=0 dh=72 dv=0
EndChar

StartChar: uni042C
Encoding: 1068 1068 229
Width: 1256
Flags: W
LayerCount: 2
Back
Fore
SplineSet
391 862 m 1,0,-1
 701 861 l 2,1,2
 917 860 917 860 1035 747 c 128,-1,3
 1153 634 1153 634 1136 443 c 0,4,5
 1120 244 1120 244 972 122 c 128,-1,6
 824 0 824 0 591 0 c 2,7,-1
 54 0 l 1,8,-1
 306 1456 l 1,9,-1
 494 1456 l 1,10,-1
 391 862 l 1,0,-1
364 704 m 1,11,-1
 268 157 l 1,12,-1
 598 156 l 2,13,14
 739 156 739 156 835 235 c 128,-1,15
 931 314 931 314 948 445 c 0,16,17
 962 563 962 563 900 631 c 128,-1,18
 838 699 838 699 714 703 c 2,19,-1
 364 704 l 1,11,-1
EndSplineSet
Substitution2: "'c2sc' Capitals to Small Capitals lookup 0 subtable" uni042C.c2sc
Position2: "'cpsp' Capital Spacing lookup 0 subtable" dx=36 dy=0 dh=72 dv=0
EndChar

StartChar: uni042D
Encoding: 1069 1069 230
Width: 1349
GlyphClass: 2
Flags: W
LayerCount: 2
Back
Fore
SplineSet
304 463 m 1,0,1
 311 296 311 296 381.5 218 c 128,-1,2
 452 140 452 140 594 136 c 0,3,4
 766 131 766 131 884 263 c 128,-1,5
 1002 395 1002 395 1057 648 c 1,6,-1
 494 647 l 1,7,-1
 522 805 l 1,8,-1
 1075 805 l 1,9,10
 1084 861 1084 861 1086 920 c 0,11,12
 1089 1105 1089 1105 1012.5 1210 c 128,-1,13
 936 1315 936 1315 791 1319 c 0,14,15
 648 1324 648 1324 549.5 1242 c 128,-1,16
 451 1160 451 1160 402 989 c 1,17,-1
 215 988 l 1,18,19
 261 1218 261 1218 419.5 1350 c 128,-1,20
 578 1482 578 1482 798 1476 c 0,21,22
 938 1473 938 1473 1041 1410.5 c 128,-1,23
 1144 1348 1144 1348 1203.5 1230 c 128,-1,24
 1263 1112 1263 1112 1270 964 c 0,25,26
 1276 850 1276 850 1238.5 633.5 c 128,-1,27
 1201 417 1201 417 1091.5 255 c 128,-1,28
 982 93 982 93 822 25 c 0,29,30
 711 -23 711 -23 586 -20 c 0,31,32
 373 -16 373 -16 248.5 111 c 128,-1,33
 124 238 124 238 116 463 c 1,34,-1
 304 463 l 1,0,1
EndSplineSet
Substitution2: "'c2sc' Capitals to Small Capitals lookup 0 subtable" uni042D.c2sc
Position2: "'cpsp' Capital Spacing lookup 0 subtable" dx=36 dy=0 dh=72 dv=0
EndChar

StartChar: uni042E
Encoding: 1070 1070 231
Width: 1786
GlyphClass: 2
Flags: W
LayerCount: 2
Back
Fore
SplineSet
1042 -20 m 0,0,1
 887 -17 887 -17 776 64 c 128,-1,2
 665 145 665 145 612.5 300 c 128,-1,3
 560 455 560 455 576 637 c 1,4,-1
 370 637 l 1,5,-1
 260 0 l 1,6,-1
 73 0 l 1,7,-1
 326 1456 l 1,8,-1
 513 1456 l 1,9,-1
 397 788 l 1,10,-1
 596 788 l 1,11,12
 629 994 629 994 726 1155 c 128,-1,13
 823 1316 823 1316 963.5 1397.5 c 128,-1,14
 1104 1479 1104 1479 1270 1476 c 0,15,16
 1483 1472 1483 1472 1606 1328.5 c 128,-1,17
 1729 1185 1729 1185 1738 940 c 0,18,19
 1742 835 1742 835 1716.5 673 c 128,-1,20
 1691 511 1691 511 1625.5 372 c 128,-1,21
 1560 233 1560 233 1459 139 c 0,22,23
 1283 -25 1283 -25 1042 -20 c 0,0,1
1553 894 m 0,24,25
 1559 1091 1559 1091 1484 1199.5 c 128,-1,26
 1409 1308 1409 1308 1261 1312 c 0,27,28
 1127 1316 1127 1316 1021.5 1240 c 128,-1,29
 916 1164 916 1164 848.5 1012.5 c 128,-1,30
 781 861 781 861 763 629 c 1,31,-1
 760 564 l 2,32,33
 754 368 754 368 830 257 c 128,-1,34
 906 146 906 146 1051 142 c 0,35,36
 1240 137 1240 137 1364.5 278.5 c 128,-1,37
 1489 420 1489 420 1530 676 c 0,38,39
 1550 802 1550 802 1553 894 c 0,24,25
EndSplineSet
Substitution2: "'c2sc' Capitals to Small Capitals lookup 0 subtable" uni042E.c2sc
Position2: "'cpsp' Capital Spacing lookup 0 subtable" dx=36 dy=0 dh=72 dv=0
EndChar

StartChar: uni042F
Encoding: 1071 1071 232
Width: 1275
GlyphClass: 2
Flags: W
LayerCount: 2
Back
Fore
SplineSet
798 0 m 1,0,-1
 897 567 l 1,1,-1
 578 567 l 1,2,-1
 187 0 l 1,3,-1
 -24 0 l 1,4,-1
 420 624 l 1,5,6
 306 682 306 682 254 782 c 128,-1,7
 202 882 202 882 213 1009 c 0,8,9
 231 1217 231 1217 385 1337 c 128,-1,10
 539 1457 539 1457 775 1457 c 2,11,-1
 1240 1456 l 1,12,-1
 987 0 l 1,13,-1
 798 0 l 1,0,-1
401 1010 m 0,14,15
 385 886 385 886 451.5 807.5 c 128,-1,16
 518 729 518 729 643 725 c 2,17,-1
 924 724 l 1,18,-1
 1024 1298 l 1,19,-1
 770 1299 l 2,20,21
 616 1299 616 1299 517 1222 c 128,-1,22
 418 1145 418 1145 401 1010 c 0,14,15
EndSplineSet
Substitution2: "'c2sc' Capitals to Small Capitals lookup 0 subtable" uni042F.c2sc
Position2: "'cpsp' Capital Spacing lookup 0 subtable" dx=36 dy=0 dh=72 dv=0
EndChar

StartChar: uni0431
Encoding: 1073 1073 233
Width: 1108
Flags: W
LayerCount: 2
Back
Fore
SplineSet
653 1020 m 0,0,1
 775 1018 775 1018 863.5 955 c 128,-1,2
 952 892 952 892 995 780 c 128,-1,3
 1038 668 1038 668 1026 533 c 1,4,-1
 1023 510 l 2,5,6
 993 266 993 266 844.5 120.5 c 128,-1,7
 696 -25 696 -25 487 -20 c 0,8,9
 353 -18 353 -18 256 52.5 c 128,-1,10
 159 123 159 123 114.5 243.5 c 128,-1,11
 70 364 70 364 86 507 c 2,12,-1
 90 537 l 1,13,-1
 95 582 l 2,14,15
 134 917 134 917 281.5 1128 c 128,-1,16
 429 1339 429 1339 671 1388 c 2,17,-1
 784 1409 l 1,18,19
 935 1442 935 1442 960 1553 c 1,20,-1
 1109 1553 l 1,21,22
 1099 1457 1099 1457 1061.5 1397.5 c 128,-1,23
 1024 1338 1024 1338 955 1301.5 c 128,-1,24
 886 1265 886 1265 723 1233 c 128,-1,25
 560 1201 560 1201 455 1109 c 128,-1,26
 350 1017 350 1017 286 850 c 1,27,28
 455 1024 455 1024 653 1020 c 0,0,1
609 869 m 2,29,30
 482 872 482 872 391 786.5 c 128,-1,31
 300 701 300 701 273 552 c 1,32,-1
 266 505 l 1,33,-1
 263 420 l 1,34,35
 266 288 266 288 326.5 209.5 c 128,-1,36
 387 131 387 131 495 129 c 0,37,38
 632 126 632 126 725.5 229 c 128,-1,39
 819 332 819 332 845 532 c 1,40,41
 859 684 859 684 796 774.5 c 128,-1,42
 733 865 733 865 612 869 c 1,43,-1
 609 869 l 2,29,30
EndSplineSet
Substitution2: "'smcp' Lowercase to Small Capitals lookup 1 subtable" uni0411.c2sc
EndChar

StartChar: uni0432
Encoding: 1074 1074 234
Width: 1145
GlyphClass: 2
Flags: W
LayerCount: 2
Back
Fore
SplineSet
48 0 m 1,0,-1
 236 1082 l 1,1,-1
 618 1081 l 2,2,3
 820 1080 820 1080 928.5 1006.5 c 128,-1,4
 1037 933 1037 933 1027 793 c 0,5,6
 1017 638 1017 638 815 552 c 1,7,8
 895 528 895 528 940 463.5 c 128,-1,9
 985 399 985 399 981 315 c 0,10,11
 975 169 975 169 860 85.5 c 128,-1,12
 745 2 745 2 552 0 c 2,13,-1
 48 0 l 1,0,-1
311 475 m 1,14,-1
 254 149 l 1,15,-1
 540 148 l 2,16,17
 652 148 652 148 721.5 193.5 c 128,-1,18
 791 239 791 239 802 320 c 0,19,20
 812 392 812 392 763.5 431.5 c 128,-1,21
 715 471 715 471 618 474 c 2,22,-1
 311 475 l 1,14,-1
336 623 m 1,23,-1
 558 622 l 2,24,25
 689 622 689 622 762 663 c 128,-1,26
 835 704 835 704 846 782 c 0,27,28
 867 924 867 924 631 931 c 1,29,-1
 390 932 l 1,30,-1
 336 623 l 1,23,-1
EndSplineSet
Substitution2: "'smcp' Lowercase to Small Capitals lookup 1 subtable" uni0412.c2sc
EndChar

StartChar: uni0433
Encoding: 1075 1075 235
Width: 843
GlyphClass: 2
Flags: W
LayerCount: 2
Back
Fore
SplineSet
871 929 m 1,0,-1
 388 929 l 1,1,-1
 227 0 l 1,2,-1
 45 0 l 1,3,-1
 233 1082 l 1,4,-1
 899 1082 l 1,5,-1
 871 929 l 1,0,-1
EndSplineSet
Substitution2: "'smcp' Lowercase to Small Capitals lookup 1 subtable" uni0413.c2sc
EndChar

StartChar: uni0434
Encoding: 1076 1076 236
Width: 1209
GlyphClass: 2
Flags: W
LayerCount: 2
Back
Fore
SplineSet
45 148 m 1,0,1
 156 250 156 250 224 376 c 128,-1,2
 292 502 292 502 324 676 c 2,3,-1
 408 1082 l 1,4,-1
 1086 1082 l 1,5,-1
 924 151 l 1,6,-1
 1059 151 l 1,7,-1
 977 -318 l 1,8,-1
 797 -318 l 1,9,-1
 852 0 l 1,10,-1
 121 0 l 1,11,-1
 66 -318 l 1,12,-1
 -115 -318 l 1,13,-1
 -32 151 l 1,14,-1
 45 148 l 1,0,1
260 148 m 1,15,-1
 743 151 l 1,16,-1
 875 911 l 1,17,-1
 554 911 l 1,18,-1
 486 586 l 1,19,20
 418 303 418 303 260 148 c 1,15,-1
EndSplineSet
Substitution2: "'smcp' Lowercase to Small Capitals lookup 1 subtable" uni0414.c2sc
EndChar

StartChar: uni0436
Encoding: 1078 1078 237
Width: 1531
GlyphClass: 2
Flags: W
LayerCount: 2
Back
Fore
SplineSet
956 470 m 1,0,-1
 825 470 l 1,1,-1
 744 0 l 1,2,-1
 563 0 l 1,3,-1
 645 470 l 1,4,-1
 526 470 l 1,5,-1
 150 0 l 1,6,-1
 -91 0 l 1,7,-1
 391 570 l 1,8,-1
 146 1082 l 1,9,-1
 352 1082 l 1,10,-1
 545 634 l 1,11,-1
 673 634 l 1,12,-1
 751 1082 l 1,13,-1
 932 1082 l 1,14,-1
 853 634 l 1,15,-1
 968 634 l 1,16,-1
 1319 1082 l 1,17,-1
 1550 1082 l 1,18,-1
 1110 549 l 1,19,-1
 1384 0 l 1,20,-1
 1169 0 l 1,21,-1
 956 470 l 1,0,-1
EndSplineSet
Substitution2: "'smcp' Lowercase to Small Capitals lookup 1 subtable" uni0416.c2sc
EndChar

StartChar: uni0437
Encoding: 1079 1079 238
Width: 1019
GlyphClass: 2
Flags: W
LayerCount: 2
Back
Fore
SplineSet
513 629 m 2,0,1
 615 629 615 629 676.5 672 c 128,-1,2
 738 715 738 715 746 794 c 0,3,4
 755 865 755 865 705.5 909 c 128,-1,5
 656 953 656 953 568 953 c 0,6,7
 478 955 478 955 407 907 c 128,-1,8
 336 859 336 859 319 781 c 1,9,-1
 139 780 l 1,10,11
 155 929 155 929 279.5 1016.5 c 128,-1,12
 404 1104 404 1104 576 1102 c 0,13,14
 745 1100 745 1100 841.5 1017.5 c 128,-1,15
 938 935 938 935 928 796 c 0,16,17
 918 640 918 640 724 551 c 1,18,19
 799 518 799 518 833.5 455.5 c 128,-1,20
 868 393 868 393 863 312 c 0,21,22
 857 208 857 208 797.5 133 c 128,-1,23
 738 58 738 58 636 18 c 128,-1,24
 534 -22 534 -22 415 -19 c 0,25,26
 246 -17 246 -17 139.5 76 c 128,-1,27
 33 169 33 169 39 321 c 1,28,-1
 216 320 l 1,29,30
 212 238 212 238 270 184.5 c 128,-1,31
 328 131 328 131 423 129 c 0,32,33
 526 127 526 127 599.5 177 c 128,-1,34
 673 227 673 227 684 311 c 0,35,36
 705 472 705 472 500 473 c 2,37,-1
 315 474 l 1,38,-1
 343 630 l 1,39,-1
 513 629 l 2,0,1
EndSplineSet
Substitution2: "'smcp' Lowercase to Small Capitals lookup 1 subtable" uni0417.c2sc
EndChar

StartChar: uni0438
Encoding: 1080 1080 239
Width: 1157
GlyphClass: 2
Flags: W
LayerCount: 2
Back
Fore
SplineSet
892 1082 m 1,0,-1
 1079 1082 l 1,1,-1
 891 0 l 1,2,-1
 710 0 l 1,3,-1
 846 777 l 1,4,-1
 234 0 l 1,5,-1
 47 0 l 1,6,-1
 235 1082 l 1,7,-1
 415 1082 l 1,8,-1
 280 304 l 1,9,-1
 892 1082 l 1,0,-1
EndSplineSet
Substitution2: "'smcp' Lowercase to Small Capitals lookup 1 subtable" uni0418.c2sc
EndChar

StartChar: uni043A
Encoding: 1082 1082 240
Width: 1083
GlyphClass: 2
Flags: W
LayerCount: 2
Back
Fore
SplineSet
446 461 m 1,0,-1
 309 461 l 1,1,-1
 228 0 l 1,2,-1
 47 0 l 1,3,-1
 235 1082 l 1,4,-1
 416 1082 l 1,5,-1
 336 624 l 1,6,-1
 446 624 l 1,7,-1
 878 1082 l 1,8,-1
 1111 1082 l 1,9,-1
 597 553 l 1,10,-1
 944 0 l 1,11,-1
 730 0 l 1,12,-1
 446 461 l 1,0,-1
EndSplineSet
Substitution2: "'smcp' Lowercase to Small Capitals lookup 1 subtable" uni041A.c2sc
EndChar

StartChar: uni043B
Encoding: 1083 1083 241
Width: 1158
GlyphClass: 2
Flags: W
LayerCount: 2
Back
Fore
SplineSet
1081 1082 m 1,0,-1
 893 0 l 1,1,-1
 711 0 l 1,2,-1
 873 929 l 1,3,-1
 517 929 l 1,4,-1
 436 559 l 1,5,-1
 414 451 l 2,6,7
 361 209 361 209 266 106 c 128,-1,8
 171 3 171 3 22 0 c 2,9,-1
 -56 0 l 1,10,-1
 -38 162 l 1,11,-1
 1 164 l 2,12,13
 98 170 98 170 160 250.5 c 128,-1,14
 222 331 222 331 254 505 c 2,15,-1
 272 608 l 1,16,-1
 370 1082 l 1,17,-1
 1081 1082 l 1,0,-1
EndSplineSet
Substitution2: "'smcp' Lowercase to Small Capitals lookup 1 subtable" uni041B.c2sc
EndChar

StartChar: uni043C
Encoding: 1084 1084 242
Width: 1483
GlyphClass: 2
Flags: W
LayerCount: 2
Back
Fore
SplineSet
674 247 m 1,0,-1
 1176 1082 l 1,1,-1
 1406 1082 l 1,2,-1
 1218 0 l 1,3,-1
 1037 0 l 1,4,-1
 1172 773 l 1,5,-1
 704 0 l 1,6,-1
 578 0 l 1,7,-1
 370 812 l 1,8,-1
 228 0 l 1,9,-1
 48 0 l 1,10,-1
 236 1082 l 1,11,-1
 465 1082 l 1,12,-1
 674 247 l 1,0,-1
EndSplineSet
Substitution2: "'smcp' Lowercase to Small Capitals lookup 1 subtable" uni041C.c2sc
EndChar

StartChar: uni043D
Encoding: 1085 1085 243
Width: 1156
GlyphClass: 2
Flags: W
LayerCount: 2
Back
Fore
SplineSet
890 0 m 1,0,-1
 709 0 l 1,1,-1
 790 462 l 1,2,-1
 309 462 l 1,3,-1
 228 0 l 1,4,-1
 47 0 l 1,5,-1
 235 1082 l 1,6,-1
 416 1082 l 1,7,-1
 335 613 l 1,8,-1
 815 613 l 1,9,-1
 897 1082 l 1,10,-1
 1078 1082 l 1,11,-1
 890 0 l 1,0,-1
EndSplineSet
Substitution2: "'smcp' Lowercase to Small Capitals lookup 1 subtable" uni041D.c2sc
EndChar

StartChar: uni043F
Encoding: 1087 1087 244
Width: 1157
GlyphClass: 2
Flags: W
LayerCount: 2
Back
Fore
SplineSet
891 0 m 1,0,-1
 710 0 l 1,1,-1
 872 929 l 1,2,-1
 390 929 l 1,3,-1
 228 0 l 1,4,-1
 47 0 l 1,5,-1
 235 1082 l 1,6,-1
 1079 1082 l 1,7,-1
 891 0 l 1,0,-1
EndSplineSet
Substitution2: "'smcp' Lowercase to Small Capitals lookup 1 subtable" uni041F.c2sc
EndChar

StartChar: uni0442
Encoding: 1090 1090 245
Width: 964
GlyphClass: 2
Flags: W
LayerCount: 2
Back
Fore
SplineSet
974 932 m 1,0,-1
 622 932 l 1,1,-1
 460 0 l 1,2,-1
 280 0 l 1,3,-1
 441 932 l 1,4,-1
 96 932 l 1,5,-1
 122 1082 l 1,6,-1
 1000 1082 l 1,7,-1
 974 932 l 1,0,-1
EndSplineSet
Substitution2: "'smcp' Lowercase to Small Capitals lookup 1 subtable" uni0422.c2sc
EndChar

StartChar: uni0444
Encoding: 1092 1092 246
Width: 1450
GlyphClass: 2
Flags: W
LayerCount: 2
Back
Fore
SplineSet
551 1104 m 0,0,1
 633 1102 633 1102 698 1072 c 1,2,-1
 785 1536 l 1,3,-1
 966 1536 l 1,4,-1
 877 1066 l 1,5,6
 954 1101 954 1101 1035 1100 c 0,7,8
 1248 1097 1248 1097 1313 862 c 0,9,10
 1341 759 1341 759 1339 643 c 1,11,-1
 1331 523 l 1,12,-1
 1329 507 l 2,13,14
 1295 258 1295 258 1174.5 116 c 128,-1,15
 1054 -26 1054 -26 870 -23 c 0,16,17
 783 -21 783 -21 707 12 c 1,18,-1
 627 -416 l 1,19,-1
 446 -416 l 1,20,-1
 527 9 l 1,21,22
 454 -20 454 -20 383 -19 c 0,23,24
 239 -19 239 -19 159.5 87.5 c 128,-1,25
 80 194 80 194 77 379 c 0,26,27
 76 438 76 438 82 493 c 2,28,-1
 94 575 l 1,29,30
 139 831 139 831 256.5 968.5 c 128,-1,31
 374 1106 374 1106 551 1104 c 0,0,1
1150 527 m 2,32,33
 1161 627 1161 627 1158 698 c 0,34,35
 1142 941 1142 941 976 948 c 0,36,37
 925 950 925 950 864 930 c 1,38,-1
 722 145 l 1,39,40
 766 129 766 129 825 127 c 0,41,42
 952 125 952 125 1036.5 224.5 c 128,-1,43
 1121 324 1121 324 1147 506 c 2,44,-1
 1150 527 l 2,32,33
263 493 m 2,45,46
 257 440 257 440 257 378 c 2,47,-1
 259 330 l 1,48,49
 278 139 278 139 435 132 c 0,50,51
 482 130 482 130 540 148 c 1,52,-1
 682 935 l 1,53,54
 630 953 630 953 588 953 c 0,55,56
 463 955 463 955 382.5 852.5 c 128,-1,57
 302 750 302 750 270 543 c 2,58,-1
 263 493 l 2,45,46
EndSplineSet
Substitution2: "'smcp' Lowercase to Small Capitals lookup 1 subtable" uni0424.c2sc
EndChar

StartChar: uni0446
Encoding: 1094 1094 247
Width: 1187
GlyphClass: 2
Flags: W
LayerCount: 2
Back
Fore
SplineSet
235 1082 m 1,0,-1
 416 1082 l 1,1,-1
 255 151 l 1,2,-1
 736 151 l 1,3,-1
 898 1082 l 1,4,-1
 1079 1082 l 1,5,-1
 917 151 l 1,6,-1
 1043 151 l 1,7,-1
 943 -321 l 1,8,-1
 781 -321 l 1,9,-1
 837 0 l 1,10,-1
 47 0 l 1,11,-1
 235 1082 l 1,0,-1
EndSplineSet
Substitution2: "'smcp' Lowercase to Small Capitals lookup 1 subtable" uni0426.c2sc
EndChar

StartChar: uni0447
Encoding: 1095 1095 248
Width: 1090
GlyphClass: 2
Flags: W
LayerCount: 2
Back
Fore
SplineSet
836 0 m 1,0,-1
 654 0 l 1,1,-1
 729 393 l 1,2,3
 606 360 606 360 488 362 c 0,4,5
 310 364 310 364 216.5 473 c 128,-1,6
 123 582 123 582 144 767 c 1,7,-1
 194 1083 l 1,8,-1
 375 1083 l 1,9,-1
 324 766 l 2,10,11
 318 714 318 714 323 669 c 0,12,13
 339 521 339 521 497 515 c 0,14,15
 607 512 607 512 744 543 c 1,16,-1
 842 1082 l 1,17,-1
 1024 1082 l 1,18,-1
 836 0 l 1,0,-1
EndSplineSet
Substitution2: "'smcp' Lowercase to Small Capitals lookup 1 subtable" uni0427.c2sc
EndChar

StartChar: uni0448
Encoding: 1096 1096 249
Width: 1616
GlyphClass: 2
Flags: W
LayerCount: 2
Back
Fore
SplineSet
416 1082 m 1,0,-1
 255 151 l 1,1,-1
 638 151 l 1,2,-1
 799 1082 l 1,3,-1
 980 1082 l 1,4,-1
 818 151 l 1,5,-1
 1200 151 l 1,6,-1
 1362 1082 l 1,7,-1
 1544 1082 l 1,8,-1
 1356 0 l 1,9,-1
 47 0 l 1,10,-1
 235 1082 l 1,11,-1
 416 1082 l 1,0,-1
EndSplineSet
Substitution2: "'smcp' Lowercase to Small Capitals lookup 1 subtable" uni0428.c2sc
EndChar

StartChar: uni0449
Encoding: 1097 1097 250
Width: 1653
GlyphClass: 2
Flags: W
LayerCount: 2
Back
Fore
SplineSet
406 1082 m 1,0,-1
 244 151 l 1,1,-1
 627 151 l 1,2,-1
 789 1082 l 1,3,-1
 969 1082 l 1,4,-1
 808 151 l 1,5,-1
 1189 151 l 1,6,-1
 1351 1082 l 1,7,-1
 1533 1082 l 1,8,-1
 1371 151 l 1,9,-1
 1519 151 l 1,10,-1
 1420 -321 l 1,11,-1
 1257 -321 l 1,12,-1
 1313 0 l 1,13,-1
 36 0 l 1,14,-1
 224 1082 l 1,15,-1
 406 1082 l 1,0,-1
EndSplineSet
Substitution2: "'smcp' Lowercase to Small Capitals lookup 1 subtable" uni0429.c2sc
EndChar

StartChar: uni044A
Encoding: 1098 1098 251
Width: 1243
Flags: W
LayerCount: 2
Back
Fore
SplineSet
113 1082 m 1,0,-1
 605 1082 l 1,1,-1
 540 709 l 1,2,-1
 794 708 l 2,3,4
 957 704 957 704 1052 611 c 128,-1,5
 1147 518 1147 518 1136 366 c 0,6,7
 1125 201 1125 201 1003.5 100.5 c 128,-1,8
 882 0 882 0 695 0 c 2,9,-1
 236 0 l 1,10,-1
 397 930 l 1,11,-1
 86 930 l 1,12,-1
 113 1082 l 1,0,-1
514 558 m 1,13,-1
 443 151 l 1,14,-1
 699 150 l 2,15,16
 806 152 806 152 873.5 208.5 c 128,-1,17
 941 265 941 265 954 359 c 0,18,19
 965 446 965 446 922 499.5 c 128,-1,20
 879 553 879 553 791 557 c 2,21,-1
 514 558 l 1,13,-1
EndSplineSet
Substitution2: "'smcp' Lowercase to Small Capitals lookup 1 subtable" uni042A.c2sc
EndChar

StartChar: uni044B
Encoding: 1099 1099 252
Width: 1552
GlyphClass: 2
Flags: W
LayerCount: 2
Back
Fore
SplineSet
351 709 m 1,0,-1
 588 707 l 2,1,2
 765 706 765 706 862 612.5 c 128,-1,3
 959 519 959 519 948 366 c 0,4,5
 937 201 937 201 815.5 100.5 c 128,-1,6
 694 0 694 0 505 0 c 2,7,-1
 48 0 l 1,8,-1
 236 1082 l 1,9,-1
 417 1082 l 1,10,-1
 351 709 l 1,0,-1
326 558 m 1,11,-1
 255 151 l 1,12,-1
 511 150 l 2,13,14
 618 152 618 152 685.5 208.5 c 128,-1,15
 753 265 753 265 766 359 c 0,16,17
 777 446 777 446 733.5 499.5 c 128,-1,18
 690 553 690 553 603 557 c 2,19,-1
 326 558 l 1,11,-1
1261 0 m 1,20,-1
 1080 0 l 1,21,-1
 1268 1082 l 1,22,-1
 1449 1082 l 1,23,-1
 1261 0 l 1,20,-1
EndSplineSet
Substitution2: "'smcp' Lowercase to Small Capitals lookup 1 subtable" uni042B.c2sc
EndChar

StartChar: uni044C
Encoding: 1100 1100 253
Width: 1089
Flags: W
LayerCount: 2
Back
Fore
SplineSet
351 709 m 1,0,-1
 588 707 l 2,1,2
 765 706 765 706 862 612.5 c 128,-1,3
 959 519 959 519 948 366 c 0,4,5
 937 201 937 201 815.5 100.5 c 128,-1,6
 694 0 694 0 505 0 c 2,7,-1
 48 0 l 1,8,-1
 236 1082 l 1,9,-1
 417 1082 l 1,10,-1
 351 709 l 1,0,-1
326 558 m 1,11,-1
 255 151 l 1,12,-1
 511 150 l 2,13,14
 618 152 618 152 685.5 208.5 c 128,-1,15
 753 265 753 265 766 359 c 0,16,17
 777 446 777 446 733.5 499.5 c 128,-1,18
 690 553 690 553 603 557 c 2,19,-1
 326 558 l 1,11,-1
EndSplineSet
Substitution2: "'smcp' Lowercase to Small Capitals lookup 1 subtable" uni042C.c2sc
EndChar

StartChar: uni044D
Encoding: 1101 1101 254
Width: 1078
GlyphClass: 2
Flags: W
LayerCount: 2
Back
Fore
SplineSet
571 951 m 0,0,1
 472 953 472 953 396 893 c 128,-1,2
 320 833 320 833 300 739 c 1,3,-1
 129 738 l 1,4,5
 139 838 139 838 204.5 923.5 c 128,-1,6
 270 1009 270 1009 370.5 1056.5 c 128,-1,7
 471 1104 471 1104 579 1103 c 0,8,9
 687 1100 687 1100 769 1050.5 c 128,-1,10
 851 1001 851 1001 900.5 907.5 c 128,-1,11
 950 814 950 814 959 695 c 0,12,13
 964 630 964 630 958 565 c 2,14,-1
 955 540 l 2,15,16
 926 289 926 289 776.5 132 c 128,-1,17
 627 -25 627 -25 419 -20 c 0,18,19
 254 -16 254 -16 153 94 c 128,-1,20
 52 204 52 204 60 372 c 1,21,-1
 231 371 l 1,22,23
 225 270 225 270 278.5 201.5 c 128,-1,24
 332 133 332 133 428 129 c 0,25,26
 544 124 544 124 632 212.5 c 128,-1,27
 720 301 720 301 769 475 c 1,28,-1
 369 475 l 1,29,-1
 396 627 l 1,30,-1
 784 627 l 1,31,32
 792 772 792 772 734.5 860 c 128,-1,33
 677 948 677 948 571 951 c 0,0,1
EndSplineSet
Substitution2: "'smcp' Lowercase to Small Capitals lookup 1 subtable" uni042D.c2sc
EndChar

StartChar: uni044E
Encoding: 1102 1102 255
Width: 1631
GlyphClass: 2
Flags: W
LayerCount: 2
Back
Fore
SplineSet
336 623 m 1,0,-1
 580 623 l 1,1,2
 646 852 646 852 791.5 980 c 128,-1,3
 937 1108 937 1108 1129 1103 c 0,4,5
 1265 1099 1265 1099 1360.5 1027.5 c 128,-1,6
 1456 956 1456 956 1499.5 831 c 128,-1,7
 1543 706 1543 706 1528 554 c 2,8,-1
 1527 545 l 1,9,10
 1493 285 1493 285 1339 130 c 128,-1,11
 1185 -25 1185 -25 969 -20 c 0,12,13
 843 -18 843 -18 746.5 48 c 128,-1,14
 650 114 650 114 603.5 226 c 128,-1,15
 557 338 557 338 568 472 c 1,16,-1
 311 471 l 1,17,-1
 228 0 l 1,18,-1
 48 0 l 1,19,-1
 236 1082 l 1,20,-1
 416 1082 l 1,21,-1
 336 623 l 1,0,-1
751 522 m 2,22,23
 746 480 746 480 747 435 c 0,24,25
 747 294 747 294 807 213.5 c 128,-1,26
 867 133 867 133 977 129 c 0,27,28
 1116 124 1116 124 1217.5 238 c 128,-1,29
 1319 352 1319 352 1346 553 c 0,30,31
 1353 616 1353 616 1348 685 c 0,32,33
 1339 805 1339 805 1280 875.5 c 128,-1,34
 1221 946 1221 946 1119 950 c 0,35,36
 979 955 979 955 879 841.5 c 128,-1,37
 779 728 779 728 753 544 c 1,38,-1
 751 522 l 2,22,23
EndSplineSet
Substitution2: "'smcp' Lowercase to Small Capitals lookup 1 subtable" uni042E.c2sc
EndChar

StartChar: uni044F
Encoding: 1103 1103 256
Width: 1100
GlyphClass: 2
Flags: W
LayerCount: 2
Back
Fore
SplineSet
1023 1082 m 1,0,-1
 835 0 l 1,1,-1
 653 0 l 1,2,-1
 726 421 l 1,3,-1
 463 421 l 1,4,-1
 142 0 l 1,5,-1
 -65 0 l 1,6,-1
 286 453 l 1,7,8
 201 495 201 495 161 573 c 128,-1,9
 121 651 121 651 127 744 c 0,10,11
 138 899 138 899 263 991 c 128,-1,12
 388 1083 388 1083 572 1083 c 2,13,-1
 1023 1082 l 1,0,-1
308 743 m 0,14,15
 298 666 298 666 341 622 c 128,-1,16
 384 578 384 578 462 574 c 2,17,-1
 752 573 l 1,18,-1
 815 932 l 1,19,-1
 568 933 l 2,20,21
 463 931 463 931 392 880 c 128,-1,22
 321 829 321 829 308 743 c 0,14,15
EndSplineSet
Substitution2: "'smcp' Lowercase to Small Capitals lookup 1 subtable" uni042F.c2sc
EndChar

StartChar: uni0452
Encoding: 1106 1106 257
Width: 1104
Flags: W
LayerCount: 2
Back
Fore
SplineSet
699 1209 m 1,0,-1
 422 1209 l 1,1,-1
 368 950 l 1,2,3
 510 1105 510 1105 696 1101 c 0,4,5
 850 1097 850 1097 922.5 993.5 c 128,-1,6
 995 890 995 890 976 709 c 1,7,-1
 847 -89 l 1,8,9
 825 -257 825 -257 729 -350 c 128,-1,10
 633 -443 633 -443 484 -439 c 0,11,12
 439 -439 439 -439 364 -419 c 1,13,-1
 395 -273 l 1,14,15
 444 -288 444 -288 493 -288 c 0,16,17
 632 -288 632 -288 667 -77 c 2,18,-1
 796 712 l 2,19,20
 802 761 802 761 798 803 c 0,21,22
 781 943 781 943 632 946 c 0,23,24
 466 950 466 950 346 772 c 1,25,-1
 212 0 l 1,26,-1
 31 0 l 1,27,-1
 241 1209 l 1,28,-1
 82 1209 l 1,29,-1
 108 1361 l 1,30,-1
 267 1361 l 1,31,-1
 298 1536 l 1,32,-1
 479 1536 l 1,33,-1
 448 1361 l 1,34,-1
 726 1361 l 1,35,-1
 699 1209 l 1,0,-1
EndSplineSet
Substitution2: "'smcp' Lowercase to Small Capitals lookup 1 subtable" uni0402.c2sc
EndChar

StartChar: uni0454
Encoding: 1108 1108 258
Width: 1078
GlyphClass: 2
Flags: W
LayerCount: 2
Back
Fore
SplineSet
497 130 m 0,0,1
 594 128 594 128 672.5 185.5 c 128,-1,2
 751 243 751 243 778 340 c 1,3,-1
 950 341 l 1,4,5
 935 240 935 240 868.5 156 c 128,-1,6
 802 72 802 72 699 24 c 128,-1,7
 596 -24 596 -24 489 -21 c 0,8,9
 287 -16 287 -16 182.5 132 c 128,-1,10
 78 280 78 280 101 517 c 2,11,-1
 104 544 l 2,12,13
 134 802 134 802 284.5 954.5 c 128,-1,14
 435 1107 435 1107 650 1102 c 0,15,16
 819 1098 819 1098 920 987.5 c 128,-1,17
 1021 877 1021 877 1019 709 c 1,18,-1
 849 709 l 1,19,20
 849 816 849 816 792.5 881.5 c 128,-1,21
 736 947 736 947 641 951 c 0,22,23
 519 956 519 956 430 872.5 c 128,-1,24
 341 789 341 789 292 616 c 1,25,-1
 690 616 l 1,26,-1
 663 464 l 1,27,-1
 276 464 l 1,28,29
 261 314 261 314 320 223.5 c 128,-1,30
 379 133 379 133 497 130 c 0,0,1
EndSplineSet
Substitution2: "'smcp' Lowercase to Small Capitals lookup 1 subtable" uni0404.c2sc
EndChar

StartChar: uni0459
Encoding: 1113 1113 259
Width: 1695
Flags: W
LayerCount: 2
Back
Fore
SplineSet
1046 1082 m 1,0,-1
 974 670 l 1,1,-1
 1228 669 l 1,2,3
 1393 664 1393 664 1488 577.5 c 128,-1,4
 1583 491 1583 491 1574 346 c 0,5,6
 1565 191 1565 191 1444.5 95.5 c 128,-1,7
 1324 0 1324 0 1134 0 c 2,8,-1
 676 0 l 1,9,-1
 838 929 l 1,10,-1
 513 929 l 1,11,-1
 432 559 l 1,12,-1
 408 441 l 2,13,14
 357 210 357 210 261 105.5 c 128,-1,15
 165 1 165 1 11 0 c 2,16,-1
 -61 0 l 1,17,-1
 -42 162 l 1,18,-1
 -4 164 l 2,19,20
 93 170 93 170 155 250.5 c 128,-1,21
 217 331 217 331 249 505 c 2,22,-1
 267 608 l 1,23,-1
 365 1082 l 1,24,-1
 1046 1082 l 1,0,-1
948 518 m 1,25,-1
 884 149 l 1,26,-1
 1140 148 l 2,27,28
 1242 150 1242 150 1312 204.5 c 128,-1,29
 1382 259 1382 259 1393 348 c 0,30,31
 1404 422 1404 422 1360 467 c 128,-1,32
 1316 512 1316 512 1225 517 c 1,33,-1
 948 518 l 1,25,-1
EndSplineSet
Substitution2: "'smcp' Lowercase to Small Capitals lookup 1 subtable" uni0409.c2sc
EndChar

StartChar: uni045A
Encoding: 1114 1114 260
Width: 1721
Flags: W
LayerCount: 2
Back
Fore
SplineSet
345 673 m 1,0,-1
 826 673 l 1,1,-1
 897 1082 l 1,2,-1
 1078 1082 l 1,3,-1
 1006 669 l 1,4,-1
 1260 668 l 2,5,6
 1423 664 1423 664 1519 577 c 128,-1,7
 1615 490 1615 490 1606 346 c 0,8,9
 1597 191 1597 191 1476.5 95.5 c 128,-1,10
 1356 0 1356 0 1166 0 c 2,11,-1
 709 0 l 1,12,-1
 800 522 l 1,13,-1
 319 522 l 1,14,-1
 228 0 l 1,15,-1
 47 0 l 1,16,-1
 235 1082 l 1,17,-1
 416 1082 l 1,18,-1
 345 673 l 1,0,-1
980 518 m 1,19,-1
 916 149 l 1,20,-1
 1172 148 l 2,21,22
 1274 150 1274 150 1343 204 c 128,-1,23
 1412 258 1412 258 1425 348 c 0,24,25
 1436 422 1436 422 1392.5 467 c 128,-1,26
 1349 512 1349 512 1257 517 c 1,27,-1
 980 518 l 1,19,-1
EndSplineSet
Substitution2: "'smcp' Lowercase to Small Capitals lookup 1 subtable" uni040A.c2sc
EndChar

StartChar: uni045B
Encoding: 1115 1115 261
Width: 1136
Flags: W
LayerCount: 2
Back
Fore
SplineSet
721 1214 m 1,0,-1
 418 1214 l 1,1,-1
 369 950 l 1,2,3
 511 1105 511 1105 696 1101 c 0,4,5
 848 1099 848 1099 921.5 996.5 c 128,-1,6
 995 894 995 894 976 709 c 1,7,-1
 858 0 l 1,8,-1
 677 0 l 1,9,-1
 796 712 l 2,10,11
 802 761 802 761 797 803 c 0,12,13
 780 943 780 943 632 946 c 0,14,15
 466 950 466 950 346 772 c 1,16,-1
 212 0 l 1,17,-1
 31 0 l 1,18,-1
 242 1214 l 1,19,-1
 103 1214 l 1,20,-1
 130 1365 l 1,21,-1
 268 1365 l 1,22,-1
 298 1536 l 1,23,-1
 479 1536 l 1,24,-1
 447 1365 l 1,25,-1
 748 1365 l 1,26,-1
 721 1214 l 1,0,-1
EndSplineSet
Substitution2: "'smcp' Lowercase to Small Capitals lookup 1 subtable" uni040B.c2sc
EndChar

StartChar: uni045F
Encoding: 1119 1119 262
Width: 1157
Flags: W
LayerCount: 2
Back
Fore
SplineSet
416 1082 m 1,0,-1
 255 151 l 1,1,-1
 736 151 l 1,2,-1
 898 1082 l 1,3,-1
 1079 1082 l 1,4,-1
 891 0 l 1,5,-1
 563 0 l 1,6,-1
 500 -356 l 1,7,-1
 320 -356 l 1,8,-1
 382 0 l 1,9,-1
 47 0 l 1,10,-1
 235 1082 l 1,11,-1
 416 1082 l 1,0,-1
EndSplineSet
Substitution2: "'smcp' Lowercase to Small Capitals lookup 1 subtable" uni040F.c2sc
EndChar

StartChar: uni0460
Encoding: 1120 1120 263
Width: 1756
GlyphClass: 2
Flags: W
LayerCount: 2
Back
Fore
SplineSet
1763 1456 m 1,0,-1
 1583 397 l 1,1,2
 1556 201 1556 201 1428.5 87.5 c 128,-1,3
 1301 -26 1301 -26 1116 -22 c 0,4,5
 1010 -20 1010 -20 932 27.5 c 128,-1,6
 854 75 854 75 822 155 c 1,7,8
 683 -28 683 -28 462 -22 c 0,9,10
 291 -16 291 -16 201 99.5 c 128,-1,11
 111 215 111 215 130 397 c 1,12,-1
 310 1456 l 1,13,-1
 498 1456 l 1,14,-1
 319 396 l 2,15,16
 314 351 314 351 318 306 c 0,17,18
 325 228 325 228 366 183 c 128,-1,19
 407 138 407 138 476 135 c 0,20,21
 585 130 585 130 663 202 c 128,-1,22
 741 274 741 274 758 396 c 2,23,-1
 939 1456 l 1,24,-1
 1133 1456 l 1,25,-1
 954 396 l 1,26,27
 942 276 942 276 989 207 c 128,-1,28
 1036 138 1036 138 1130 135 c 0,29,30
 1230 132 1230 132 1301 199 c 128,-1,31
 1372 266 1372 266 1393 385 c 2,32,-1
 1575 1456 l 1,33,-1
 1763 1456 l 1,0,-1
EndSplineSet
EndChar

StartChar: uni0461
Encoding: 1121 1121 264
Width: 1542
GlyphClass: 2
Flags: W
LayerCount: 2
Back
Fore
SplineSet
1503 1082 m 1,0,-1
 1381 354 l 1,1,2
 1356 178 1356 178 1245.5 76 c 128,-1,3
 1135 -26 1135 -26 963 -22 c 0,4,5
 873 -20 873 -20 805 18.5 c 128,-1,6
 737 57 737 57 706 126 c 1,7,8
 583 -26 583 -26 393 -22 c 0,9,10
 241 -18 241 -18 160 85 c 128,-1,11
 79 188 79 188 96 353 c 1,12,-1
 218 1082 l 1,13,-1
 398 1082 l 1,14,-1
 276 352 l 2,15,16
 272 314 272 314 275 276 c 0,17,18
 278 212 278 212 312 172 c 128,-1,19
 346 132 346 132 406 129 c 0,20,21
 497 125 497 125 562.5 185 c 128,-1,22
 628 245 628 245 646 352 c 2,23,-1
 769 1082 l 1,24,-1
 951 1082 l 1,25,-1
 829 352 l 1,26,27
 819 250 819 250 858.5 190.5 c 128,-1,28
 898 131 898 131 977 129 c 0,29,30
 1062 126 1062 126 1122 184.5 c 128,-1,31
 1182 243 1182 243 1200 352 c 2,32,-1
 1322 1082 l 1,33,-1
 1503 1082 l 1,0,-1
EndSplineSet
EndChar

StartChar: uni0463
Encoding: 1123 1123 265
Width: 1087
Flags: W
LayerCount: 2
Back
Fore
SplineSet
726 1082 m 1,0,-1
 415 1082 l 1,1,-1
 357 746 l 1,2,-1
 610 745 l 1,3,4
 775 739 775 739 869 641 c 128,-1,5
 963 543 963 543 951 385 c 0,6,7
 937 209 937 209 811.5 102.5 c 128,-1,8
 686 -4 686 -4 505 0 c 1,9,-1
 46 0 l 1,10,-1
 234 1082 l 1,11,-1
 48 1082 l 1,12,-1
 75 1233 l 1,13,-1
 259 1233 l 1,14,-1
 316 1558 l 1,15,-1
 498 1558 l 1,16,-1
 441 1233 l 1,17,-1
 753 1233 l 1,18,-1
 726 1082 l 1,0,-1
331 594 m 1,19,-1
 254 151 l 1,20,-1
 509 149 l 2,21,22
 613 151 613 151 684 212.5 c 128,-1,23
 755 274 755 274 767 379 c 0,24,25
 780 470 780 470 736.5 529.5 c 128,-1,26
 693 589 693 589 607 593 c 2,27,-1
 331 594 l 1,19,-1
EndSplineSet
EndChar

StartChar: uni0464
Encoding: 1124 1124 266
Width: 1790
Flags: W
LayerCount: 2
Back
Fore
SplineSet
406 832 m 1,0,-1
 591 832 l 1,1,2
 624 976 624 976 686 1100.5 c 128,-1,3
 748 1225 748 1225 838 1312 c 0,4,5
 1014 1482 1014 1482 1263 1477 c 0,6,7
 1470 1473 1470 1473 1589.5 1343.5 c 128,-1,8
 1709 1214 1709 1214 1715 988 c 1,9,-1
 1529 988 l 1,10,11
 1522 1156 1522 1156 1453 1236.5 c 128,-1,12
 1384 1317 1384 1317 1255 1320 c 0,13,14
 1084 1325 1084 1325 962.5 1203 c 128,-1,15
 841 1081 841 1081 780 832 c 1,16,-1
 1312 832 l 1,17,-1
 1285 681 l 1,18,-1
 764 682 l 1,19,20
 750 604 750 604 748 543 c 0,21,22
 742 433 742 433 773 337 c 128,-1,23
 804 241 804 241 868.5 191 c 128,-1,24
 933 141 933 141 1026 138 c 0,25,26
 1179 133 1179 133 1279 211.5 c 128,-1,27
 1379 290 1379 290 1431 462 c 1,28,-1
 1617 463 l 1,29,30
 1570 236 1570 236 1407 105.5 c 128,-1,31
 1244 -25 1244 -25 1017 -19 c 0,32,33
 815 -15 815 -15 691.5 125 c 128,-1,34
 568 265 568 265 561 494 c 0,35,36
 558 574 558 574 572 654 c 2,37,-1
 578 682 l 1,38,-1
 380 681 l 1,39,-1
 261 0 l 1,40,-1
 73 0 l 1,41,-1
 326 1456 l 1,42,-1
 514 1456 l 1,43,-1
 406 832 l 1,0,-1
EndSplineSet
EndChar

StartChar: uni0465
Encoding: 1125 1125 267
Width: 1492
Flags: W
LayerCount: 2
Back
Fore
SplineSet
332 615 m 1,0,-1
 509 615 l 1,1,2
 574 855 574 855 714.5 981 c 128,-1,3
 855 1107 855 1107 1050 1102 c 0,4,5
 1217 1098 1217 1098 1319 987.5 c 128,-1,6
 1421 877 1421 877 1419 709 c 1,7,-1
 1249 709 l 1,8,9
 1249 815 1249 815 1193 881 c 128,-1,10
 1137 947 1137 947 1042 951 c 0,11,12
 917 954 917 954 828.5 869.5 c 128,-1,13
 740 785 740 785 692 615 c 1,14,-1
 1122 615 l 1,15,-1
 1095 464 l 1,16,-1
 676 464 l 1,17,18
 661 314 661 314 720 223.5 c 128,-1,19
 779 133 779 133 897 130 c 0,20,21
 999 128 999 128 1075.5 186.5 c 128,-1,22
 1152 245 1152 245 1178 340 c 1,23,-1
 1350 341 l 1,24,25
 1335 240 1335 240 1267.5 155.5 c 128,-1,26
 1200 71 1200 71 1098 23.5 c 128,-1,27
 996 -24 996 -24 889 -21 c 0,28,29
 698 -17 698 -17 588.5 120.5 c 128,-1,30
 479 258 479 258 498 465 c 1,31,-1
 306 464 l 1,32,-1
 226 0 l 1,33,-1
 44 0 l 1,34,-1
 232 1082 l 1,35,-1
 414 1082 l 1,36,-1
 332 615 l 1,0,-1
EndSplineSet
EndChar

StartChar: uni0466
Encoding: 1126 1126 268
Width: 1207
Flags: W
LayerCount: 2
Back
Fore
SplineSet
853 438 m 1,0,-1
 686 438 l 1,1,-1
 610 0 l 1,2,-1
 426 0 l 1,3,-1
 503 438 l 1,4,-1
 353 438 l 1,5,-1
 131 0 l 1,6,-1
 -70 0 l 1,7,-1
 692 1456 l 1,8,-1
 859 1456 l 1,9,-1
 1107 0 l 1,10,-1
 923 0 l 1,11,-1
 853 438 l 1,0,-1
437 602 m 1,12,-1
 827 602 l 1,13,-1
 736 1185 l 1,14,-1
 437 602 l 1,12,-1
EndSplineSet
EndChar

StartChar: uni0467
Encoding: 1127 1127 269
Width: 1071
Flags: W
LayerCount: 2
Back
Fore
SplineSet
678 297 m 1,0,-1
 562 297 l 1,1,-1
 510 0 l 1,2,-1
 329 0 l 1,3,-1
 381 297 l 1,4,-1
 267 297 l 1,5,-1
 99 0 l 1,6,-1
 -94 0 l 1,7,-1
 522 1082 l 1,8,-1
 678 1082 l 1,9,-1
 922 0 l 1,10,-1
 745 0 l 1,11,-1
 678 297 l 1,0,-1
351 449 m 1,12,-1
 644 449 l 1,13,-1
 572 775 l 1,14,-1
 567 851 l 1,15,-1
 527 760 l 1,16,-1
 351 449 l 1,12,-1
EndSplineSet
EndChar

StartChar: uni0468
Encoding: 1128 1128 270
Width: 1759
Flags: W
LayerCount: 2
Back
Fore
SplineSet
383 601 m 1,0,-1
 757 601 l 1,1,-1
 1206 1456 l 1,2,-1
 1373 1456 l 1,3,-1
 1621 0 l 1,4,-1
 1436 0 l 1,5,-1
 1366 438 l 1,6,-1
 1199 438 l 1,7,-1
 1123 0 l 1,8,-1
 939 0 l 1,9,-1
 1016 438 l 1,10,-1
 867 438 l 1,11,-1
 643 0 l 1,12,-1
 443 0 l 1,13,-1
 674 440 l 1,14,-1
 356 440 l 1,15,-1
 279 0 l 1,16,-1
 90 0 l 1,17,-1
 343 1456 l 1,18,-1
 532 1456 l 1,19,-1
 383 601 l 1,0,-1
951 602 m 1,20,-1
 1340 602 l 1,21,-1
 1250 1185 l 1,22,-1
 951 602 l 1,20,-1
EndSplineSet
EndChar

StartChar: uni0469
Encoding: 1129 1129 271
Width: 1511
Flags: W
LayerCount: 2
Back
Fore
SplineSet
337 449 m 1,0,-1
 595 449 l 1,1,-1
 956 1082 l 1,2,-1
 1111 1082 l 1,3,-1
 1355 0 l 1,4,-1
 1179 0 l 1,5,-1
 1112 297 l 1,6,-1
 995 297 l 1,7,-1
 943 0 l 1,8,-1
 762 0 l 1,9,-1
 815 297 l 1,10,-1
 700 297 l 1,11,-1
 532 0 l 1,12,-1
 339 0 l 1,13,-1
 509 296 l 1,14,-1
 311 296 l 1,15,-1
 259 0 l 1,16,-1
 78 0 l 1,17,-1
 266 1082 l 1,18,-1
 448 1082 l 1,19,-1
 337 449 l 1,0,-1
785 449 m 1,20,-1
 1078 449 l 1,21,-1
 1006 775 l 1,22,-1
 1000 851 l 1,23,-1
 961 760 l 1,24,-1
 785 449 l 1,20,-1
EndSplineSet
EndChar

StartChar: uni046A
Encoding: 1130 1130 272
Width: 1703
Flags: W
LayerCount: 2
Back
Fore
SplineSet
1090 807 m 1,0,-1
 1103 807 l 2,1,2
 1319 807 1319 807 1425.5 692 c 128,-1,3
 1532 577 1532 577 1508 369 c 1,4,-1
 1448 0 l 1,5,-1
 1259 0 l 1,6,-1
 1320 370 l 2,7,8
 1328 437 1328 437 1321 489 c 0,9,10
 1300 649 1300 649 1099 652 c 2,11,-1
 980 654 l 1,12,-1
 950 617 l 1,13,-1
 841 0 l 1,14,-1
 652 0 l 1,15,-1
 766 632 l 1,16,-1
 760 651 l 1,17,-1
 632 654 l 2,18,19
 479 656 479 656 395 588 c 128,-1,20
 311 520 311 520 287 375 c 2,21,-1
 226 0 l 1,22,-1
 38 0 l 1,23,-1
 99 369 l 1,24,25
 129 588 129 588 265 699.5 c 128,-1,26
 401 811 401 811 649 811 c 2,27,-1
 685 811 l 1,28,-1
 425 1456 l 1,29,-1
 1583 1454 l 1,30,-1
 1090 807 l 1,0,-1
875 810 m 1,31,-1
 890 810 l 1,32,-1
 1250 1298 l 1,33,-1
 695 1297 l 1,34,-1
 875 810 l 1,31,-1
EndSplineSet
EndChar

StartChar: uni046B
Encoding: 1131 1131 273
Width: 1470
Flags: W
LayerCount: 2
Back
Fore
SplineSet
41 0 m 1,0,-1
 67 170 l 2,1,2
 97 380 97 380 215.5 487.5 c 128,-1,3
 334 595 334 595 548 604 c 1,4,-1
 360 1082 l 1,5,-1
 1291 1082 l 1,6,-1
 920 600 l 1,7,8
 1091 589 1091 589 1174.5 475 c 128,-1,9
 1258 361 1258 361 1236 164 c 1,10,-1
 1211 0 l 1,11,-1
 1029 0 l 1,12,-1
 1054 165 l 2,13,14
 1061 226 1061 226 1059 277 c 0,15,16
 1049 445 1049 445 868 452 c 2,17,-1
 815 454 l 1,18,-1
 798 432 l 1,19,-1
 719 0 l 1,20,-1
 538 0 l 1,21,-1
 622 444 l 1,22,-1
 619 453 l 1,23,-1
 561 454 l 2,24,25
 430 456 430 456 352.5 391 c 128,-1,26
 275 326 275 326 251 183 c 2,27,-1
 223 0 l 1,28,-1
 41 0 l 1,0,-1
724 604 m 1,29,-1
 733 603 l 1,30,-1
 968 930 l 1,31,-1
 615 930 l 1,32,-1
 724 604 l 1,29,-1
EndSplineSet
EndChar

StartChar: uni046C
Encoding: 1132 1132 274
Width: 2249
Flags: W
LayerCount: 2
Back
Fore
SplineSet
583 0 m 1,0,-1
 650 396 l 1,1,2
 683 564 683 564 778 663 c 1,3,-1
 375 660 l 1,4,-1
 260 0 l 1,5,-1
 72 0 l 1,6,-1
 325 1456 l 1,7,-1
 513 1456 l 1,8,-1
 401 812 l 1,9,-1
 1238 812 l 1,10,-1
 970 1456 l 1,11,-1
 2138 1456 l 1,12,-1
 1636 807 l 1,13,-1
 1655 807 l 2,14,15
 1869 806 1869 806 1973 692 c 0,16,17
 2077 577 2077 577 2054 369 c 1,18,-1
 1994 0 l 1,19,-1
 1805 0 l 1,20,-1
 1866 370 l 2,21,22
 1874 437 1874 437 1867 489 c 0,23,24
 1847 637 1847 637 1671 650 c 1,25,-1
 1526 654 l 1,26,-1
 1495 615 l 1,27,-1
 1386 0 l 1,28,-1
 1198 0 l 1,29,-1
 1312 631 l 1,30,-1
 1305 651 l 1,31,-1
 1177 653 l 2,32,33
 1028 655 1028 655 943 589.5 c 128,-1,34
 858 524 858 524 834 375 c 2,35,-1
 772 0 l 1,36,-1
 583 0 l 1,0,-1
1421 810 m 1,37,-1
 1436 810 l 1,38,-1
 1796 1298 l 1,39,-1
 1241 1297 l 1,40,-1
 1421 810 l 1,37,-1
EndSplineSet
EndChar

StartChar: uni046D
Encoding: 1133 1133 275
Width: 1951
Flags: W
LayerCount: 2
Back
Fore
SplineSet
522 0 m 1,0,-1
 550 170 l 2,1,2
 579 349 579 349 674 455 c 1,3,-1
 306 452 l 1,4,-1
 227 0 l 1,5,-1
 46 0 l 1,6,-1
 234 1082 l 1,7,-1
 416 1082 l 1,8,-1
 332 604 l 1,9,-1
 1037 604 l 1,10,-1
 841 1082 l 1,11,-1
 1773 1082 l 1,12,-1
 1401 599 l 1,13,14
 1575 586 1575 586 1657 472 c 128,-1,15
 1739 358 1739 358 1717 164 c 1,16,-1
 1692 0 l 1,17,-1
 1510 0 l 1,18,-1
 1535 165 l 2,19,20
 1542 226 1542 226 1540 277 c 0,21,22
 1530 445 1530 445 1349 452 c 2,23,-1
 1296 454 l 1,24,-1
 1279 432 l 1,25,-1
 1200 0 l 1,26,-1
 1019 0 l 1,27,-1
 1103 444 l 1,28,-1
 1100 452 l 1,29,-1
 1029 454 l 2,30,31
 900 454 900 454 826 385.5 c 128,-1,32
 752 317 752 317 729 164 c 2,33,-1
 704 0 l 1,34,-1
 522 0 l 1,0,-1
1205 604 m 1,35,-1
 1214 603 l 1,36,-1
 1449 930 l 1,37,-1
 1096 930 l 1,38,-1
 1205 604 l 1,35,-1
EndSplineSet
EndChar

